<svg width="43" height="43" viewBox="0 0 43 43" fill="none" xmlns="http://www.w3.org/2000/svg">
<path d="M8.45405 0.573242C4.26208 0.573242 0.886719 3.94861 0.886719 8.14058V34.4494C0.886719 38.6414 4.26208 42.0168 8.45405 42.0168H22.7132V25.8149H18.429V19.9818H22.7132V14.9982C22.7132 11.0828 25.2446 7.48784 31.0757 7.48784C33.4367 7.48784 35.1825 7.7145 35.1825 7.7145L35.0452 13.1617C35.0452 13.1617 33.2647 13.1449 31.3218 13.1449C29.219 13.1449 28.8818 14.1138 28.8818 15.7222V19.9818H35.2123L34.9365 25.815H28.8818V42.0168H34.7629C38.9549 42.0168 42.3302 38.6415 42.3302 34.4495V8.14062C42.3302 3.94865 38.9549 0.573284 34.7629 0.573284H8.45401L8.45405 0.573242Z" fill="#F8F8F8"/>
</svg>
