<svg width="1440" height="362" viewBox="0 0 1440 362" fill="none" xmlns="http://www.w3.org/2000/svg">
<path fill-rule="evenodd" clip-rule="evenodd" d="M60.7034 50.8766H0V77.1108V77.2243V351H1440V77.2243V77.1108V0L1396.18 6.9639C1335.47 15.7464 1214.07 33.3116 1092.66 31.1159C1035.15 30.0759 977.644 24.602 920.136 19.1281C856.237 13.046 792.339 6.9639 728.441 6.9639C647.503 6.9639 566.565 16.7223 485.627 26.4807C445.158 31.3599 404.689 36.2391 364.22 39.8985C242.814 50.8766 121.407 50.8766 60.7035 50.8766H60.7034Z" fill="url(#paint0_linear_263_1251)"/>
<path fill-rule="evenodd" clip-rule="evenodd" d="M60.7034 60.1665H0V86.5502V86.6643V362H1440V86.6643V86.5502V9L1396.18 16.0036C1335.47 24.8362 1214.07 42.5014 1092.66 40.2932C1035.15 39.2472 977.644 33.7422 920.135 28.2371C856.237 22.1203 792.339 16.0036 728.441 16.0036C647.503 16.0036 566.565 25.8176 485.627 35.6316C445.158 40.5386 404.689 45.4456 364.22 49.1258C242.814 60.1665 121.407 60.1665 60.7034 60.1665H60.7034Z" fill="url(#paint1_linear_263_1251)"/>
<defs>
<linearGradient id="paint0_linear_263_1251" x1="719.941" y1="6.05684e-09" x2="719.941" y2="351" gradientUnits="userSpaceOnUse">
<stop stop-color="white"/>
<stop offset="1" stop-color="white"/>
</linearGradient>
<linearGradient id="paint1_linear_263_1251" x1="719.941" y1="9" x2="719.941" y2="362" gradientUnits="userSpaceOnUse">
<stop/>
<stop offset="1"/>
</linearGradient>
</defs>
</svg>
