<svg width="1915" height="432" viewBox="0 0 1915 432" fill="none" xmlns="http://www.w3.org/2000/svg">
<path fill-rule="evenodd" clip-rule="evenodd" d="M1832.62 62.9742H1914.46V95.4464V95.5869V434.462H-27.0027V95.5869V95.4464V0L32.0798 8.61979C113.923 19.4907 277.608 41.2325 441.294 38.5147C518.829 37.2274 596.364 30.4519 673.899 23.6764C760.05 16.1481 846.2 8.61979 932.35 8.61979C1041.47 8.61979 1150.6 20.6986 1259.72 32.7773C1314.28 38.8167 1368.84 44.8561 1423.41 49.3856C1587.09 62.9742 1750.78 62.9742 1832.62 62.9742H1832.62Z" fill="url(#paint0_linear_495_112)"/>
<path fill-rule="evenodd" clip-rule="evenodd" d="M1832.62 76.4557H1914.46V107.633V107.768V433.129H-27.0027V107.768V107.633V15.9927L32.0798 24.2687C113.923 34.7061 277.608 55.5809 441.294 52.9716C518.829 51.7355 596.364 45.2303 673.899 38.725C760.05 31.4968 846.2 24.2687 932.35 24.2687C1041.47 24.2687 1150.6 35.8658 1259.72 47.4629C1314.28 53.2615 1368.84 59.06 1423.41 63.4089C1587.09 76.4557 1750.78 76.4557 1832.62 76.4557H1832.62Z" fill="url(#paint1_linear_495_112)"/>
<defs>
<linearGradient id="paint0_linear_495_112" x1="943.809" y1="7.49705e-09" x2="943.809" y2="434.462" gradientUnits="userSpaceOnUse">
<stop stop-color="white"/>
<stop offset="1" stop-color="white"/>
</linearGradient>
<linearGradient id="paint1_linear_495_112" x1="943.809" y1="15.9927" x2="943.809" y2="433.129" gradientUnits="userSpaceOnUse">
<stop/>
<stop offset="1"/>
</linearGradient>
</defs>
</svg>
