<svg width="42" height="43" viewBox="0 0 42 43" fill="none" xmlns="http://www.w3.org/2000/svg">
<path fill-rule="evenodd" clip-rule="evenodd" d="M12.622 0.697573C14.8323 0.596262 15.5369 0.573242 21.1651 0.573242C26.7945 0.573242 27.4979 0.597411 29.707 0.697573C31.9139 0.797734 33.4209 1.14885 34.739 1.66113C36.1215 2.18165 37.3739 2.9972 38.409 4.05105C39.463 5.08606 40.2787 6.33852 40.799 7.7211C41.3112 9.03923 41.6612 10.5462 41.7625 12.7519C41.8639 14.9622 41.8869 15.6667 41.8869 21.295C41.8869 26.9232 41.8628 27.6278 41.7625 29.8382C41.6623 32.0437 41.3112 33.5508 40.799 34.8689C40.2694 36.2309 39.5602 37.3877 38.409 38.5389C37.374 39.5929 36.1215 40.4086 34.739 40.9289C33.4209 41.4411 31.9139 41.7911 29.7083 41.8924C27.4979 41.9938 26.7933 42.0168 21.1651 42.0168C15.5369 42.0168 14.8323 41.9926 12.622 41.8924C10.4163 41.7922 8.90935 41.4411 7.59122 40.9289C6.22933 40.3993 5.07237 39.6901 3.92117 38.5389C2.86713 37.5039 2.05152 36.2514 1.53125 34.8689C1.01897 33.5508 0.669 32.0437 0.56769 29.8382C0.466379 27.6278 0.443359 26.9243 0.443359 21.295C0.443359 15.6656 0.467528 14.9622 0.56769 12.753C0.667851 10.5462 1.01897 9.03923 1.53125 7.7211C2.05176 6.33862 2.86731 5.08621 3.92117 4.05105C4.95616 2.99701 6.20862 2.1814 7.59122 1.66113C8.90935 1.14885 10.4163 0.798883 12.622 0.697573ZM29.539 4.42749C27.3539 4.32848 26.6978 4.30661 21.1651 4.30661C15.6324 4.30661 14.9762 4.32848 12.7912 4.42749C10.7709 4.51959 9.67375 4.85688 8.94388 5.14124C7.97687 5.51653 7.28613 5.96549 6.56087 6.69076C5.83678 7.41602 5.38665 8.10675 5.01136 9.07376C4.727 9.80363 4.3897 10.9007 4.29761 12.9211C4.19859 15.1061 4.17672 15.7623 4.17672 21.295C4.17672 26.8277 4.19859 27.4838 4.29761 29.6688C4.3897 31.6892 4.727 32.7863 5.01136 33.5163C5.34332 34.4164 5.87282 35.2306 6.56087 35.8993C7.22943 36.5873 8.04374 37.1168 8.94388 37.4487C9.67375 37.7332 10.7709 38.0704 12.7912 38.1625C14.9762 38.2616 15.6313 38.2834 21.1651 38.2834C26.699 38.2834 27.3539 38.2616 29.539 38.1625C31.5593 38.0704 32.6565 37.7332 33.3864 37.4487C34.3534 37.0735 35.0442 36.6246 35.7694 35.8993C36.4574 35.2308 36.9869 34.4164 37.3189 33.5163C37.6033 32.7863 37.9405 31.6892 38.0326 29.6688C38.1317 27.4838 38.1536 26.8277 38.1536 21.295C38.1536 15.7623 38.1317 15.1061 38.0326 12.9211C37.9405 10.9007 37.6033 9.80363 37.3189 9.07376C36.9436 8.10675 36.4947 7.41602 35.7694 6.69076C35.0442 5.96666 34.3534 5.51653 33.3864 5.14124C32.6565 4.85688 31.5593 4.51959 29.539 4.42749ZM18.5193 27.6828C19.3582 28.0303 20.2571 28.2091 21.1651 28.2091C22.999 28.2091 24.7575 27.4806 26.0541 26.184C27.3509 24.8874 28.0794 23.1287 28.0794 21.295C28.0794 19.4613 27.3509 17.7026 26.0541 16.4059C24.7575 15.1093 22.999 14.3808 21.1651 14.3808C20.2571 14.3808 19.3582 14.5597 18.5193 14.9071C17.6803 15.2546 16.9182 15.7639 16.2761 16.4059C15.6341 17.048 15.1248 17.8102 14.7773 18.649C14.4298 19.4879 14.251 20.387 14.251 21.295C14.251 22.203 14.4298 23.1021 14.7773 23.941C15.1248 24.7798 15.6341 25.542 16.2761 26.184C16.9182 26.826 17.6803 27.3354 18.5193 27.6828ZM13.6338 13.7636C15.6312 11.7662 18.3404 10.644 21.1651 10.644C23.9901 10.644 26.6991 11.7662 28.6965 13.7636C30.6939 15.761 31.8161 18.4702 31.8161 21.295C31.8161 24.1197 30.6939 26.8288 28.6965 28.8264C26.6991 30.8238 23.9901 31.946 21.1651 31.946C18.3404 31.946 15.6312 30.8238 13.6338 28.8264C11.6363 26.8288 10.5142 24.1197 10.5142 21.295C10.5142 18.4702 11.6363 15.761 13.6338 13.7636ZM34.1778 12.2309C34.6499 11.7587 34.9151 11.1183 34.9151 10.4506C34.9151 9.78286 34.6499 9.14248 34.1778 8.67032C33.7055 8.19817 33.0652 7.93291 32.3974 7.93291C31.7298 7.93291 31.0893 8.19817 30.6172 8.67032C30.145 9.14248 29.8797 9.78286 29.8797 10.4506C29.8797 11.1183 30.145 11.7587 30.6172 12.2309C31.0893 12.703 31.7298 12.9683 32.3974 12.9683C33.0652 12.9683 33.7055 12.703 34.1778 12.2309Z" fill="#F8F8F8"/>
</svg>
