<svg width="42" height="43" viewBox="0 0 42 43" fill="none" xmlns="http://www.w3.org/2000/svg">
<path fill-rule="evenodd" clip-rule="evenodd" d="M0 4.0355C0 3.11725 0.364776 2.23662 1.01407 1.58732C1.66337 0.938018 2.54401 0.573242 3.46225 0.573242H37.9811C38.4359 0.573242 38.8861 0.662802 39.3061 0.836797C39.7262 1.01079 40.1078 1.26581 40.4294 1.58732C40.7508 1.90882 41.0059 2.29049 41.18 2.71054C41.3538 3.13061 41.4435 3.58082 41.4435 4.0355V38.5544C41.4435 39.0091 41.3538 39.4594 41.18 39.8793C41.0059 40.2994 40.7508 40.6811 40.4294 41.0027C40.1078 41.324 39.7262 41.5791 39.3061 41.7532C38.8861 41.9271 38.4359 42.0168 37.9811 42.0168H3.46225C2.54401 42.0168 1.66337 41.6518 1.01407 41.0027C0.364776 40.3533 0 39.4728 0 38.5544V4.0355ZM16.4047 16.3736H22.0169V19.1935C22.8259 17.5719 24.8989 16.1145 28.0131 16.1145C33.9828 16.1145 35.3996 19.342 35.3996 25.264V36.2319H29.3558V26.6126C29.3558 23.2403 28.5468 21.3381 26.4893 21.3381C23.6357 21.3381 22.4485 23.3887 22.4485 26.6126V36.2319H16.4047V16.3736ZM6.04383 35.9729H12.0877V16.1145H6.04383V35.9729ZM12.9511 9.63899C12.9511 10.1492 12.8506 10.6545 12.6553 11.1258C12.4601 11.5972 12.1739 12.0255 11.8131 12.3863C11.4523 12.7471 11.024 13.0333 10.5526 13.2286C10.0812 13.4238 9.57598 13.5243 9.06575 13.5243C8.55553 13.5243 8.0503 13.4238 7.57891 13.2286C7.10751 13.0333 6.67921 12.7471 6.31841 12.3863C5.95762 12.0255 5.67144 11.5972 5.47618 11.1258C5.28093 10.6545 5.18043 10.1492 5.18043 9.63899C5.18043 8.60854 5.58978 7.6203 6.31841 6.89165C7.04705 6.16302 8.0353 5.75367 9.06575 5.75367C10.0962 5.75367 11.0845 6.16302 11.8131 6.89165C12.5417 7.6203 12.9511 8.60854 12.9511 9.63899V9.63899Z" fill="#F8F8F8"/>
</svg>
