<svg width="222" height="153" viewBox="0 0 222 153" fill="none" xmlns="http://www.w3.org/2000/svg">
<g clip-path="url(#clip0_266_54)">
<path d="M219.902 57.9124H219.842L185.442 72.5702L138.376 92.6254C138.192 92.7026 137.995 92.7428 137.795 92.7438C137.596 92.7449 137.398 92.7066 137.213 92.6313L88.6544 72.5284L53.4092 57.9363L53.3553 57.9124H53.2953C52.7392 57.913 52.206 58.1337 51.8128 58.5261C51.4196 58.9185 51.1984 59.4505 51.1978 60.0055V150.907C51.1984 151.462 51.4196 151.994 51.8128 152.386C52.206 152.779 52.7392 152.999 53.2953 153H219.902C220.459 152.999 220.992 152.779 221.385 152.386C221.778 151.994 221.999 151.462 222 150.907V60.0055C221.999 59.4505 221.778 58.9185 221.385 58.5261C220.992 58.1337 220.459 57.913 219.902 57.9124Z" fill="#F8F8F8"/>
<path d="M220.501 58.5103C220.44 58.5103 220.381 58.4916 220.33 58.4567L137.459 0.864785C137.207 0.690338 136.907 0.597111 136.6 0.597633C136.293 0.598155 135.994 0.692401 135.742 0.867705L53.4674 58.4561C53.4352 58.4787 53.3988 58.4947 53.3604 58.5032C53.322 58.5117 53.2823 58.5126 53.2435 58.5058C53.2047 58.4991 53.1677 58.4847 53.1345 58.4636C53.1013 58.4426 53.0725 58.4152 53.0499 58.383C53.0273 58.3509 53.0113 58.3146 53.0028 58.2762C52.9942 58.2379 52.9933 58.1983 53.0001 58.1596C53.0069 58.1209 53.0213 58.0839 53.0424 58.0508C53.0635 58.0176 53.091 57.989 53.1232 57.9664L135.398 0.378005C135.75 0.132616 136.169 0.000707363 136.599 2.83696e-06C137.029 -0.00070169 137.448 0.12983 137.801 0.374063L220.673 57.9658C220.725 58.0022 220.765 58.0544 220.785 58.1146C220.806 58.1749 220.807 58.2401 220.788 58.3009C220.768 58.3616 220.73 58.4147 220.679 58.4524C220.627 58.49 220.565 58.5103 220.501 58.5103Z" fill="#3F3D56"/>
<path d="M58.1689 60.5518L136.681 2.48755L215.79 64.6833L140.727 109.087L99.9738 99.8179L58.1689 60.5518Z" fill="#E6E6E6"/>
<path d="M103.414 136.514H64.6268C64.3887 136.514 64.1528 136.468 63.9326 136.377C63.7125 136.286 63.5125 136.153 63.344 135.985C63.1754 135.817 63.0417 135.618 62.9505 135.398C62.8593 135.179 62.8124 134.943 62.8124 134.706C62.8124 134.468 62.8593 134.233 62.9505 134.013C63.0417 133.794 63.1754 133.594 63.344 133.426C63.5125 133.258 63.7125 133.125 63.9326 133.034C64.1528 132.944 64.3887 132.897 64.6268 132.897H103.414C103.652 132.897 103.888 132.944 104.108 133.034C104.328 133.125 104.528 133.258 104.697 133.426C104.865 133.594 104.999 133.794 105.09 134.013C105.182 134.233 105.228 134.468 105.228 134.706C105.228 134.943 105.182 135.179 105.09 135.398C104.999 135.618 104.865 135.817 104.697 135.985C104.528 136.153 104.328 136.286 104.108 136.377C103.888 136.468 103.652 136.514 103.414 136.514Z" fill="black"/>
<path d="M78.5428 128.74H64.6268C64.3887 128.74 64.1528 128.693 63.9326 128.603C63.7125 128.512 63.5125 128.379 63.344 128.211C63.1754 128.043 63.0417 127.843 62.9505 127.624C62.8593 127.404 62.8124 127.169 62.8124 126.931C62.8124 126.694 62.8593 126.458 62.9505 126.239C63.0417 126.019 63.1754 125.82 63.344 125.652C63.5125 125.484 63.7125 125.351 63.9326 125.26C64.1528 125.169 64.3887 125.123 64.6268 125.123H78.5428C78.781 125.123 79.0169 125.169 79.237 125.26C79.4571 125.351 79.6571 125.484 79.8257 125.652C79.9942 125.82 80.1279 126.019 80.2191 126.239C80.3103 126.458 80.3572 126.694 80.3572 126.931C80.3572 127.169 80.3103 127.404 80.2191 127.624C80.1279 127.843 79.9942 128.043 79.8257 128.211C79.6571 128.379 79.4571 128.512 79.237 128.603C79.0169 128.693 78.781 128.74 78.5428 128.74Z" fill="black"/>
<path d="M137.786 92.8928C137.491 92.8931 137.199 92.836 136.926 92.7247L88.5046 72.6759V9.91979C88.5053 9.36485 88.7265 8.83283 89.1197 8.44044C89.513 8.04804 90.0461 7.82731 90.6022 7.82666H183.495C184.051 7.82731 184.584 8.04804 184.977 8.44044C185.37 8.83283 185.592 9.36485 185.592 9.91979V72.7197L185.501 72.7585L138.671 92.7149C138.391 92.8325 138.09 92.893 137.786 92.8928Z" fill="#F8F8F8"/>
<path d="M137.785 93.0422C137.471 93.0426 137.16 92.9818 136.869 92.8632L88.3547 72.7759V9.91988C88.3554 9.3253 88.5924 8.75527 89.0137 8.33484C89.4351 7.91441 90.0063 7.67792 90.6021 7.67725H183.495C184.09 7.67792 184.662 7.91441 185.083 8.33484C185.504 8.75527 185.741 9.3253 185.742 9.91988V72.8185L138.73 92.8524C138.431 92.978 138.11 93.0425 137.785 93.0422ZM88.954 72.3764L137.097 92.3103C137.546 92.4921 138.049 92.4891 138.496 92.302L185.143 72.4237V9.91988C185.142 9.48387 184.968 9.06586 184.659 8.75755C184.35 8.44924 183.932 8.2758 183.495 8.27528H90.6021C90.1652 8.2758 89.7463 8.44924 89.4373 8.75755C89.1284 9.06586 88.9546 9.48387 88.954 9.91988V72.3764Z" fill="#3F3D56"/>
<path d="M219.902 57.9124H219.842L185.442 72.5702L138.376 92.6254C138.192 92.7026 137.995 92.7428 137.795 92.7438C137.596 92.7449 137.398 92.7066 137.213 92.6313L88.6544 72.5284L53.4092 57.9363L53.3553 57.9124H53.2953C52.7392 57.913 52.206 58.1337 51.8128 58.5261C51.4196 58.9185 51.1984 59.4505 51.1978 60.0055V150.907C51.1984 151.462 51.4196 151.994 51.8128 152.386C52.206 152.779 52.7392 152.999 53.2953 153H219.902C220.459 152.999 220.992 152.779 221.385 152.386C221.778 151.994 221.999 151.462 222 150.907V60.0055C221.999 59.4505 221.778 58.9185 221.385 58.5261C220.992 58.1337 220.459 57.913 219.902 57.9124ZM221.401 150.907C221.401 151.303 221.243 151.684 220.962 151.964C220.681 152.244 220.3 152.402 219.902 152.402H53.2953C52.898 152.402 52.517 152.244 52.2361 151.964C51.9551 151.684 51.7972 151.303 51.7971 150.907V60.0055C51.7976 59.6188 51.9479 59.2474 52.2165 58.9688C52.4851 58.6901 52.8513 58.5259 53.2384 58.5104L88.6544 73.1742L136.983 93.1845C137.506 93.3969 138.092 93.3937 138.613 93.1755L185.442 73.2191L219.962 58.5104C220.349 58.527 220.714 58.6917 220.982 58.9702C221.25 59.2487 221.4 59.6195 221.401 60.0055V150.907Z" fill="#3F3D56"/>
<path d="M130.247 31.285H97.2854C96.6496 31.285 96.0399 31.033 95.5903 30.5844C95.1407 30.1358 94.8882 29.5273 94.8882 28.8929C94.8882 28.2584 95.1407 27.65 95.5903 27.2014C96.0399 26.7528 96.6496 26.5007 97.2854 26.5007H130.247C130.883 26.5007 131.493 26.7528 131.942 27.2014C132.392 27.65 132.644 28.2584 132.644 28.8929C132.644 29.5273 132.392 30.1358 131.942 30.5844C131.493 31.033 130.883 31.285 130.247 31.285Z" fill="black"/>
<path d="M113.167 21.1185H97.2854C96.6496 21.1185 96.0399 20.8665 95.5903 20.4179C95.1407 19.9693 94.8882 19.3608 94.8882 18.7264C94.8882 18.0919 95.1407 17.4835 95.5903 17.0349C96.0399 16.5863 96.6496 16.3342 97.2854 16.3342H113.167C113.803 16.3342 114.413 16.5863 114.862 17.0349C115.312 17.4835 115.564 18.0919 115.564 18.7264C115.564 19.3608 115.312 19.9693 114.862 20.4179C114.413 20.8665 113.803 21.1185 113.167 21.1185Z" fill="black"/>
<path d="M161.701 55.2067H111.36C110.724 55.2067 110.114 54.9546 109.665 54.506C109.215 54.0574 108.962 53.4489 108.962 52.8145C108.962 52.1801 109.215 51.5716 109.665 51.123C110.114 50.6744 110.724 50.4224 111.36 50.4224H161.701C162.337 50.4224 162.947 50.6744 163.396 51.123C163.846 51.5716 164.099 52.1801 164.099 52.8145C164.099 53.4489 163.846 54.0574 163.396 54.506C162.947 54.9546 162.337 55.2067 161.701 55.2067Z" fill="#CCCCCC"/>
<path d="M161.701 66.2701H111.36C110.724 66.2701 110.114 66.0181 109.665 65.5695C109.215 65.1209 108.962 64.5124 108.962 63.878C108.962 63.2435 109.215 62.6351 109.665 62.1865C110.114 61.7379 110.724 61.4858 111.36 61.4858H161.701C162.337 61.4858 162.947 61.7379 163.396 62.1865C163.846 62.6351 164.099 63.2435 164.099 63.878C164.099 64.5124 163.846 65.1209 163.396 65.5695C162.947 66.0181 162.337 66.2701 161.701 66.2701Z" fill="#CCCCCC"/>
<path d="M12.2702 69.0666C11.9587 69.0661 11.657 68.9582 11.4161 68.7612C11.1753 68.5641 11.01 68.2901 10.9484 67.9855L9.85802 62.5615C9.27976 59.6845 9.87051 56.6961 11.5003 54.2538C13.1301 51.8114 15.6654 50.1151 18.5485 49.5381C21.4316 48.9611 24.4263 49.5506 26.8739 51.1769C29.3214 52.8032 31.0213 55.3331 31.5995 58.2101L32.6896 63.6341C32.7595 63.9839 32.6876 64.3471 32.4895 64.644C32.2914 64.941 31.9833 65.1474 31.6329 65.2179L12.5359 69.0402C12.4484 69.0577 12.3594 69.0666 12.2702 69.0666Z" fill="#2F2E41"/>
<path d="M46.173 149.826L42.7473 149.825L41.1184 136.64L46.1742 136.64L46.173 149.826Z" fill="#A0616A"/>
<path d="M40.3004 148.849H46.9071V153H36.1406C36.1406 151.899 36.5789 150.843 37.359 150.064C38.1391 149.286 39.1971 148.849 40.3004 148.849Z" fill="#2F2E41"/>
<path d="M10.4785 149.791L7.3241 148.458L10.9763 135.682L15.6317 137.65L10.4785 149.791Z" fill="#A0616A"/>
<path d="M5.4527 146.607L11.5362 149.178L9.91392 153L2.14294e-06 148.81C0.213048 148.308 0.523081 147.853 0.912405 147.471C1.30173 147.088 1.76272 146.786 2.26905 146.581C2.77538 146.377 3.31714 146.274 3.86339 146.278C4.40964 146.282 4.94969 146.394 5.4527 146.607Z" fill="#2F2E41"/>
<path d="M21.0428 67.7074C25.1075 67.7074 28.4026 64.4193 28.4026 60.3632C28.4026 56.3071 25.1075 53.019 21.0428 53.019C16.9781 53.019 13.683 56.3071 13.683 60.3632C13.683 64.4193 16.9781 67.7074 21.0428 67.7074Z" fill="#A0616A"/>
<path d="M21.391 93.7732L21.3155 93.5285C19.31 87.0235 17.2371 80.3 15.1613 73.9053L15.1051 73.7327L15.2327 73.6033C18.4548 70.3325 24.4911 69.0278 29.274 70.5695C34.0877 72.1201 37.4048 76.4694 36.9902 80.6866C36.7696 83.2201 37.4517 85.75 38.9163 87.8311L39.1084 88.1091L38.8081 88.2656C33.4309 91.0268 27.6307 92.8756 21.6451 93.7364L21.391 93.7732Z" fill="#3F3D56"/>
<path d="M12.5148 147.422C12.2523 147.422 11.9946 147.352 11.7676 147.221L7.792 144.93C7.46587 144.744 7.22203 144.442 7.10923 144.085C6.99644 143.728 7.023 143.341 7.18362 143.002L16.0176 122.085L22.769 91.5781L35.073 87.1135L35.1849 87.1649C48.3761 93.2116 47.3564 136.552 47.018 145.179C47.0028 145.542 46.8558 145.887 46.6045 146.15C46.3532 146.413 46.0147 146.575 45.6521 146.607L41.9522 147.09C41.5761 147.123 41.2011 147.014 40.9012 146.785C40.6012 146.556 40.3979 146.224 40.3314 145.853L32.778 112.167C32.7704 112.103 32.7423 112.043 32.6979 111.997C32.6535 111.95 32.5951 111.919 32.5315 111.908C32.4706 111.896 32.4074 111.904 32.3513 111.93C32.2952 111.957 32.2489 112 32.2192 112.055L13.8249 146.655C13.728 146.829 13.5973 146.982 13.4403 147.104C13.2834 147.227 13.1034 147.317 12.9111 147.369C12.782 147.404 12.6487 147.422 12.5148 147.422Z" fill="#2F2E41"/>
<path d="M16.9337 116.681C17.1661 116.343 17.3213 115.958 17.3885 115.554C17.4557 115.15 17.4332 114.735 17.3226 114.341C17.212 113.946 17.0161 113.58 16.7485 113.269C16.4809 112.958 16.1483 112.709 15.774 112.54L15.9752 106.136L12.1049 105.065L11.9481 114.113C11.7055 114.759 11.7089 115.472 11.9576 116.116C12.2064 116.76 12.6832 117.29 13.2978 117.607C13.9123 117.923 14.6219 118.004 15.292 117.833C15.9621 117.663 16.5463 117.253 16.9337 116.681Z" fill="#A0616A"/>
<path d="M12.0053 109.912L11.7782 109.91C11.4038 109.908 11.0441 109.765 10.7707 109.51C10.4973 109.254 10.3303 108.906 10.303 108.533C9.93176 103.763 8.79181 87.5163 9.70987 78.7076C9.8315 77.8856 10.1173 77.0963 10.5502 76.3865C10.9831 75.6767 11.5544 75.0609 12.2302 74.5754C12.9061 74.09 13.6726 73.7449 14.4846 73.5605C15.2965 73.3762 16.1373 73.3563 16.9571 73.5021L17.1934 73.5543L17.1916 73.7959C17.1075 85.3853 17.1129 96.907 17.1182 108.05C17.119 108.39 17.0035 108.72 16.7907 108.986C16.5779 109.252 16.2806 109.437 15.9479 109.512C14.6509 109.779 13.3298 109.913 12.0053 109.912Z" fill="#F8F8F8"/>
<path d="M20.8158 123.811C19.825 123.807 18.8699 123.442 18.1294 122.785C17.3889 122.128 16.914 121.225 16.7936 120.243L17.1195 93.4958L11.792 80.049C11.5678 78.2826 11.9485 76.4923 12.8724 74.969C13.7964 73.4456 15.2092 72.2787 16.8815 71.6576L18.3057 71.1245C18.5748 71.0238 18.8612 70.9771 19.1484 70.9872C19.4357 70.9972 19.7181 71.0637 19.9795 71.1829C20.2409 71.3022 20.4762 71.4717 20.6718 71.6819C20.8674 71.892 21.0195 72.1386 21.1193 72.4076L26.6128 87.2082L26.6142 87.2299C26.9951 93.1206 28.7143 122.439 25.2865 123.314C23.8341 123.653 22.3465 123.82 20.8547 123.811L20.8158 123.811Z" fill="#494861"/>
<path d="M52.4642 106.583C52.0836 106.429 51.7414 106.193 51.4618 105.893C51.1822 105.593 50.972 105.235 50.846 104.845C50.72 104.455 50.6813 104.042 50.7325 103.635C50.7838 103.228 50.9237 102.838 51.1426 102.491L47.4346 97.2597L50.0706 94.2358L55.2031 101.696C55.7627 102.102 56.1538 102.698 56.3022 103.372C56.4507 104.046 56.3463 104.751 56.0087 105.354C55.6711 105.956 55.1238 106.414 54.4705 106.64C53.8173 106.867 53.1034 106.846 52.4642 106.583Z" fill="#A0616A"/>
<path d="M48.7615 99.8603C48.5678 99.8545 48.3784 99.8024 48.2091 99.7083C48.0398 99.6143 47.8957 99.481 47.7888 99.3198L47.7693 99.2903C41.6339 90.0237 35.2896 80.4417 28.8596 70.8895L28.7904 70.7865L28.8789 70.6995C29.4429 70.1742 30.1075 69.7681 30.8327 69.5057C31.558 69.2432 32.329 69.1298 33.0993 69.1723C33.8923 69.1867 34.6734 69.3679 35.3914 69.704C36.1095 70.0401 36.7485 70.5236 37.2666 71.1228C42.8855 77.945 50.9048 92.1047 53.2287 96.2822C53.3754 96.5416 53.4188 96.8466 53.3503 97.1365C53.2818 97.4263 53.1064 97.6798 52.859 97.8465C51.7179 98.6217 50.4956 99.2706 49.2137 99.7816C49.0698 99.838 48.916 99.8648 48.7615 99.8603Z" fill="#F8F8F8"/>
<path d="M46.7017 117.85C43.0267 117.852 29.878 92.5879 27.2795 87.5233L27.257 87.4619L24.3825 71.9644C24.3302 71.6824 24.3342 71.3929 24.3943 71.1124C24.4545 70.8319 24.5695 70.5661 24.7328 70.3301C24.8962 70.0941 25.1046 69.8927 25.3462 69.7373C25.5877 69.5819 25.8577 69.4757 26.1405 69.4247L27.6376 69.1545C29.3927 68.8335 31.2051 69.1139 32.7804 69.9502C34.3557 70.7865 35.6015 72.1296 36.3155 73.7614L40.0715 89.5159L52.6309 110.81C53.0434 111.722 53.104 112.754 52.8012 113.708C52.4983 114.662 51.8533 115.471 50.9898 115.98C49.7132 116.751 48.3497 117.368 46.9278 117.818C46.8543 117.839 46.7782 117.85 46.7017 117.85Z" fill="#494861"/>
<path d="M26.7589 60.4268H11.926V58.6327C11.9283 56.6507 12.7182 54.7506 14.1227 53.3492C15.5271 51.9478 17.4312 51.1595 19.4174 51.1572H20.616C22.6021 51.1595 24.5063 51.9478 25.9107 53.3492C27.3151 54.7506 28.1051 56.6507 28.1073 58.6327V59.0812C28.1069 59.438 27.9647 59.78 27.7119 60.0322C27.4591 60.2845 27.1164 60.4264 26.7589 60.4268Z" fill="#2F2E41"/>
</g>
<defs>
<clipPath id="clip0_266_54">
<rect width="222" height="153" fill="white"/>
</clipPath>
</defs>
</svg>
