<svg width="279" height="197" viewBox="0 0 279 197" fill="none" xmlns="http://www.w3.org/2000/svg">
<path d="M113.708 93.7696V59.7109H163.191V93.7696M113.708 93.7696H163.191M113.708 93.7696H106.338L113.708 99.4461M163.191 93.7696H170.561L163.191 99.4461M113.708 99.4461H163.191M113.708 99.4461V124.99M163.191 99.4461V124.99M113.708 124.99H83.1758L91.5984 133.505M113.708 124.99H132.659M91.5984 133.505H184.247M91.5984 133.505V165.671V195H184.247V165.671V133.505M184.247 133.505L193.723 124.99H163.191M163.191 124.99H145.293M132.659 124.99V107.961M132.659 124.99H145.293M132.659 107.961H145.293M132.659 107.961L129.5 106.069M145.293 107.961V124.99M145.293 107.961L148.451 106.069" stroke="white" stroke-width="3"/>
<path d="M114.76 60.6573L105.284 54.9808H110.548M162.137 60.6573L171.612 54.9808H164.243M164.243 54.9808V48.3583L160.031 46.4661L147.397 28.4907H128.446L114.76 46.4661L110.548 48.3583V54.9808M164.243 54.9808H110.548" stroke="white" stroke-width="3"/>
<path d="M128.446 28.4901L132.658 22.8136H133.71M147.397 28.4901L143.186 22.8136H142.133M137.922 22.8136V13.3529M137.922 22.8136H133.71M137.922 22.8136H142.133M137.922 2H138.975L141.08 11.4607M137.922 2V13.3529M137.922 2H136.869L134.763 11.4607M141.08 11.4607L137.922 13.3529M141.08 11.4607L142.133 15.245L145.292 18.0833L142.133 20.9215V22.8136M137.922 13.3529L134.763 11.4607M134.763 11.4607L133.71 15.245L130.552 18.0833L133.71 20.9215V22.8136" stroke="white" stroke-width="3"/>
<path d="M115.811 194.038V140.128H161.082V195" stroke="white" stroke-width="3"/>
<path d="M148.003 72.0106C148.003 76.2603 144.116 79.9713 138.975 79.9713C133.834 79.9713 129.946 76.2603 129.946 72.0106C129.946 67.7608 133.834 64.0498 138.975 64.0498C144.116 64.0498 148.003 67.7608 148.003 72.0106Z" stroke="white" stroke-width="3"/>
<ellipse cx="138.975" cy="72.0095" rx="4.21132" ry="5.67645" fill="white"/>
<path d="M53.6871 130.667C53.6871 134.001 50.9449 136.736 47.5223 136.736C44.0996 136.736 41.3574 134.001 41.3574 130.667C41.3574 127.333 44.0996 124.599 47.5223 124.599C50.9449 124.599 53.6871 127.333 53.6871 130.667Z" stroke="white" stroke-width="3"/>
<ellipse cx="47.522" cy="130.667" rx="3.06593" ry="3.7843" fill="white"/>
<path d="M67.3429 116.719V194.999H26.5004V116.719M67.3429 116.719L73.6962 109.853H65.5277H30.1308H21.0547L26.5004 116.719M67.3429 116.719H26.5004" stroke="white" stroke-width="3"/>
<path d="M40.7079 73.9014C39.9967 73.9014 32.1137 97.8686 27.3721 109.852H67.3796L53.6928 73.9014H40.7079Z" stroke="white" stroke-width="3"/>
<path d="M40.0039 195V153.373H54.7435V195" stroke="white" stroke-width="3"/>
<path d="M49.8214 73.9016H44.4561L46.1962 68.9922C46.5109 68.1043 47.7666 68.1043 48.0813 68.9922L49.8214 73.9016Z" stroke="white" stroke-width="3"/>
<path d="M0 195H279" stroke="white" stroke-width="3"/>
<rect x="44.4229" y="86.7549" width="4.66483" height="15.9215" stroke="white" stroke-width="3"/>
<path d="M236.517 130.667C236.517 134.001 233.775 136.736 230.352 136.736C226.93 136.736 224.188 134.001 224.188 130.667C224.188 127.333 226.93 124.599 230.352 124.599C233.775 124.599 236.517 127.333 236.517 130.667Z" stroke="white" stroke-width="3"/>
<ellipse cx="230.352" cy="130.667" rx="3.06593" ry="3.7843" fill="white"/>
<path d="M250.173 116.719V194.999H209.33V116.719M250.173 116.719L256.526 109.853H248.358H212.961H203.885L209.33 116.719M250.173 116.719H209.33" stroke="white" stroke-width="3"/>
<path d="M223.538 73.9014C222.827 73.9014 214.944 97.8686 210.202 109.852H250.21L236.523 73.9014H223.538Z" stroke="white" stroke-width="3"/>
<path d="M222.834 195V153.373H237.574V195" stroke="white" stroke-width="3"/>
<path d="M232.652 73.9016H227.286L229.026 68.9922C229.341 68.1043 230.597 68.1043 230.911 68.9922L232.652 73.9016Z" stroke="white" stroke-width="3"/>
<rect x="227.253" y="86.7549" width="4.66483" height="15.9215" stroke="white" stroke-width="3"/>
</svg>
