<svg width="55" height="61" viewBox="0 0 55 61" fill="none" xmlns="http://www.w3.org/2000/svg">
<path d="M21.752 39.3037V21.2859L35.8257 30.2948L21.752 39.3037ZM53.0636 15.617C52.4442 12.9927 50.6164 10.9251 48.3005 10.2245C44.0996 8.95215 27.259 8.95215 27.259 8.95215C27.259 8.95215 10.4183 8.95215 6.2174 10.2245C3.90152 10.9251 2.07372 12.9927 1.45436 15.617C0.330078 20.3733 0.330078 30.2948 0.330078 30.2948C0.330078 30.2948 0.330078 40.2163 1.45436 44.9726C2.07372 47.5969 3.90152 49.6645 6.2174 50.365C10.4183 51.6374 27.259 51.6374 27.259 51.6374C27.259 51.6374 44.0996 51.6374 48.3005 50.365C50.6164 49.6645 52.4442 47.5969 53.0636 44.9726C54.1878 40.2163 54.1878 30.2948 54.1878 30.2948C54.1878 30.2948 54.1878 20.3733 53.0636 15.617Z" fill="#F8F8F8"/>
</svg>
