<svg width="627" height="64" viewBox="0 0 627 64" fill="none" xmlns="http://www.w3.org/2000/svg">
<path d="M0.415925 63L25.3759 7H38.1759L63.2159 63H49.6159L29.1359 13.56H34.2559L13.6959 63H0.415925ZM12.8959 51L16.3359 41.16H45.1359L48.6559 51H12.8959ZM90.9553 63.64C86.3153 63.64 82.182 62.7067 78.5553 60.84C74.9286 58.92 72.0753 56.28 69.9953 52.92C67.9686 49.56 66.9553 45.7467 66.9553 41.48C66.9553 37.16 67.9686 33.3467 69.9953 30.04C72.0753 26.68 74.9286 24.0667 78.5553 22.2C82.182 20.28 86.3153 19.32 90.9553 19.32C95.4886 19.32 99.4353 20.28 102.795 22.2C106.155 24.0667 108.635 26.76 110.235 30.28L100.555 35.48C99.4353 33.4533 98.022 31.96 96.3153 31C94.662 30.04 92.8486 29.56 90.8753 29.56C88.742 29.56 86.822 30.04 85.1153 31C83.4086 31.96 82.0486 33.32 81.0353 35.08C80.0753 36.84 79.5953 38.9733 79.5953 41.48C79.5953 43.9867 80.0753 46.12 81.0353 47.88C82.0486 49.64 83.4086 51 85.1153 51.96C86.822 52.92 88.742 53.4 90.8753 53.4C92.8486 53.4 94.662 52.9467 96.3153 52.04C98.022 51.08 99.4353 49.56 100.555 47.48L110.235 52.76C108.635 56.2267 106.155 58.92 102.795 60.84C99.4353 62.7067 95.4886 63.64 90.9553 63.64ZM145.747 19.32C149.16 19.32 152.2 20.0133 154.867 21.4C157.587 22.7333 159.72 24.8133 161.267 27.64C162.813 30.4133 163.587 33.9867 163.587 38.36V63H151.107V40.28C151.107 36.8133 150.333 34.2533 148.787 32.6C147.293 30.9467 145.16 30.12 142.387 30.12C140.413 30.12 138.627 30.5467 137.027 31.4C135.48 32.2 134.253 33.4533 133.347 35.16C132.493 36.8667 132.067 39.0533 132.067 41.72V63H119.587V3.64H132.067V31.88L129.267 28.28C130.813 25.4 133.027 23.1867 135.907 21.64C138.787 20.0933 142.067 19.32 145.747 19.32ZM177.299 63V19.96H189.779V63H177.299ZM183.539 13.96C181.246 13.96 179.379 13.2933 177.939 11.96C176.499 10.6267 175.779 8.97333 175.779 7C175.779 5.02666 176.499 3.37333 177.939 2.04C179.379 0.706663 181.246 0.0399952 183.539 0.0399952C185.832 0.0399952 187.699 0.679996 189.139 1.96C190.579 3.18667 191.299 4.78667 191.299 6.76C191.299 8.84 190.579 10.5733 189.139 11.96C187.752 13.2933 185.886 13.96 183.539 13.96ZM225.122 63.64C220.215 63.64 215.895 62.68 212.162 60.76C208.482 58.84 205.628 56.2267 203.602 52.92C201.575 49.56 200.562 45.7467 200.562 41.48C200.562 37.16 201.548 33.3467 203.522 30.04C205.548 26.68 208.295 24.0667 211.762 22.2C215.228 20.28 219.148 19.32 223.522 19.32C227.735 19.32 231.522 20.2267 234.882 22.04C238.295 23.8 240.988 26.36 242.962 29.72C244.935 33.0267 245.922 37 245.922 41.64C245.922 42.12 245.895 42.68 245.842 43.32C245.788 43.9067 245.735 44.4667 245.682 45H210.722V37.72H239.122L234.322 39.88C234.322 37.64 233.868 35.6933 232.962 34.04C232.055 32.3867 230.802 31.1067 229.202 30.2C227.602 29.24 225.735 28.76 223.602 28.76C221.468 28.76 219.575 29.24 217.922 30.2C216.322 31.1067 215.068 32.4133 214.162 34.12C213.255 35.7733 212.802 37.7467 212.802 40.04V41.96C212.802 44.3067 213.308 46.3867 214.322 48.2C215.388 49.96 216.855 51.32 218.722 52.28C220.642 53.1867 222.882 53.64 225.442 53.64C227.735 53.64 229.735 53.2933 231.442 52.6C233.202 51.9067 234.802 50.8667 236.242 49.48L242.882 56.68C240.908 58.92 238.428 60.6533 235.442 61.88C232.455 63.0533 229.015 63.64 225.122 63.64ZM267.529 63L249.449 19.96H262.329L277.369 57H270.969L286.569 19.96H298.569L280.409 63H267.529ZM326.25 63.64C321.343 63.64 317.023 62.68 313.29 60.76C309.61 58.84 306.756 56.2267 304.73 52.92C302.703 49.56 301.69 45.7467 301.69 41.48C301.69 37.16 302.676 33.3467 304.65 30.04C306.676 26.68 309.423 24.0667 312.89 22.2C316.356 20.28 320.276 19.32 324.65 19.32C328.863 19.32 332.65 20.2267 336.01 22.04C339.423 23.8 342.116 26.36 344.09 29.72C346.063 33.0267 347.05 37 347.05 41.64C347.05 42.12 347.023 42.68 346.97 43.32C346.916 43.9067 346.863 44.4667 346.81 45H311.85V37.72H340.25L335.45 39.88C335.45 37.64 334.996 35.6933 334.09 34.04C333.183 32.3867 331.93 31.1067 330.33 30.2C328.73 29.24 326.863 28.76 324.73 28.76C322.596 28.76 320.703 29.24 319.05 30.2C317.45 31.1067 316.196 32.4133 315.29 34.12C314.383 35.7733 313.93 37.7467 313.93 40.04V41.96C313.93 44.3067 314.436 46.3867 315.45 48.2C316.516 49.96 317.983 51.32 319.85 52.28C321.77 53.1867 324.01 53.64 326.57 53.64C328.863 53.64 330.863 53.2933 332.57 52.6C334.33 51.9067 335.93 50.8667 337.37 49.48L344.01 56.68C342.036 58.92 339.556 60.6533 336.57 61.88C333.583 63.0533 330.143 63.64 326.25 63.64ZM412.878 19.32C416.292 19.32 419.305 20.0133 421.918 21.4C424.585 22.7333 426.665 24.8133 428.158 27.64C429.705 30.4133 430.478 33.9867 430.478 38.36V63H417.998V40.28C417.998 36.8133 417.278 34.2533 415.838 32.6C414.398 30.9467 412.372 30.12 409.758 30.12C407.945 30.12 406.318 30.5467 404.878 31.4C403.438 32.2 402.318 33.4267 401.518 35.08C400.718 36.7333 400.318 38.84 400.318 41.4V63H387.838V40.28C387.838 36.8133 387.118 34.2533 385.678 32.6C384.292 30.9467 382.292 30.12 379.678 30.12C377.865 30.12 376.238 30.5467 374.798 31.4C373.358 32.2 372.238 33.4267 371.438 35.08C370.638 36.7333 370.238 38.84 370.238 41.4V63H357.758V19.96H369.678V31.72L367.438 28.28C368.932 25.3467 371.038 23.1333 373.758 21.64C376.532 20.0933 379.678 19.32 383.198 19.32C387.145 19.32 390.585 20.3333 393.518 22.36C396.505 24.3333 398.478 27.3733 399.438 31.48L395.038 30.28C396.478 26.92 398.772 24.2533 401.918 22.28C405.118 20.3067 408.772 19.32 412.878 19.32ZM465.737 63.64C460.831 63.64 456.511 62.68 452.777 60.76C449.097 58.84 446.244 56.2267 444.217 52.92C442.191 49.56 441.177 45.7467 441.177 41.48C441.177 37.16 442.164 33.3467 444.137 30.04C446.164 26.68 448.911 24.0667 452.377 22.2C455.844 20.28 459.764 19.32 464.137 19.32C468.351 19.32 472.137 20.2267 475.497 22.04C478.911 23.8 481.604 26.36 483.577 29.72C485.551 33.0267 486.537 37 486.537 41.64C486.537 42.12 486.511 42.68 486.457 43.32C486.404 43.9067 486.351 44.4667 486.297 45H451.337V37.72H479.737L474.937 39.88C474.937 37.64 474.484 35.6933 473.577 34.04C472.671 32.3867 471.417 31.1067 469.817 30.2C468.217 29.24 466.351 28.76 464.217 28.76C462.084 28.76 460.191 29.24 458.537 30.2C456.937 31.1067 455.684 32.4133 454.777 34.12C453.871 35.7733 453.417 37.7467 453.417 40.04V41.96C453.417 44.3067 453.924 46.3867 454.937 48.2C456.004 49.96 457.471 51.32 459.337 52.28C461.257 53.1867 463.497 53.64 466.057 53.64C468.351 53.64 470.351 53.2933 472.057 52.6C473.817 51.9067 475.417 50.8667 476.857 49.48L483.497 56.68C481.524 58.92 479.044 60.6533 476.057 61.88C473.071 63.0533 469.631 63.64 465.737 63.64ZM523.406 19.32C526.819 19.32 529.859 20.0133 532.526 21.4C535.246 22.7333 537.379 24.8133 538.926 27.64C540.473 30.4133 541.246 33.9867 541.246 38.36V63H528.766V40.28C528.766 36.8133 527.993 34.2533 526.446 32.6C524.953 30.9467 522.819 30.12 520.046 30.12C518.073 30.12 516.286 30.5467 514.686 31.4C513.139 32.2 511.913 33.4533 511.006 35.16C510.153 36.8667 509.726 39.0533 509.726 41.72V63H497.246V19.96H509.166V31.88L506.926 28.28C508.473 25.4 510.686 23.1867 513.566 21.64C516.446 20.0933 519.726 19.32 523.406 19.32ZM572.558 63.64C567.492 63.64 563.545 62.36 560.718 59.8C557.892 57.1867 556.478 53.32 556.478 48.2V10.44H568.958V48.04C568.958 49.8533 569.438 51.2667 570.398 52.28C571.358 53.24 572.665 53.72 574.318 53.72C576.292 53.72 577.972 53.1867 579.358 52.12L582.718 60.92C581.438 61.8267 579.892 62.52 578.078 63C576.318 63.4267 574.478 63.64 572.558 63.64ZM549.838 30.52V20.92H579.678V30.52H549.838ZM606.604 63.64C602.924 63.64 599.377 63.2133 595.964 62.36C592.604 61.4533 589.937 60.3333 587.964 59L592.124 50.04C594.097 51.2667 596.417 52.28 599.084 53.08C601.804 53.8267 604.471 54.2 607.084 54.2C609.964 54.2 611.991 53.8533 613.164 53.16C614.391 52.4667 615.004 51.5067 615.004 50.28C615.004 49.2667 614.524 48.52 613.564 48.04C612.657 47.5067 611.431 47.1067 609.884 46.84C608.337 46.5733 606.631 46.3067 604.764 46.04C602.951 45.7733 601.111 45.4267 599.244 45C597.377 44.52 595.671 43.8267 594.124 42.92C592.577 42.0133 591.324 40.7867 590.364 39.24C589.457 37.6933 589.004 35.6933 589.004 33.24C589.004 30.52 589.777 28.12 591.324 26.04C592.924 23.96 595.217 22.3333 598.204 21.16C601.191 19.9333 604.764 19.32 608.924 19.32C611.857 19.32 614.844 19.64 617.884 20.28C620.924 20.92 623.457 21.8533 625.484 23.08L621.324 31.96C619.244 30.7333 617.137 29.9067 615.004 29.48C612.924 29 610.897 28.76 608.924 28.76C606.151 28.76 604.124 29.1333 602.844 29.88C601.564 30.6267 600.924 31.5867 600.924 32.76C600.924 33.8267 601.377 34.6267 602.284 35.16C603.244 35.6933 604.497 36.12 606.044 36.44C607.591 36.76 609.271 37.0533 611.084 37.32C612.951 37.5333 614.817 37.88 616.684 38.36C618.551 38.84 620.231 39.5333 621.724 40.44C623.271 41.2933 624.524 42.4933 625.484 44.04C626.444 45.5333 626.924 47.5067 626.924 49.96C626.924 52.6267 626.124 55 624.524 57.08C622.924 59.1067 620.604 60.7067 617.564 61.88C614.577 63.0533 610.924 63.64 606.604 63.64Z" fill="#8C50A6"/>
</svg>
