<svg width="621" height="67" viewBox="0 0 621 67" fill="none" xmlns="http://www.w3.org/2000/svg">
<path d="M26.1973 66.08C21.1573 66.08 16.3273 65.42 11.7073 64.1C7.08734 62.72 3.36734 60.95 0.547344 58.79L5.49734 47.81C8.19734 49.73 11.3773 51.32 15.0373 52.58C18.7573 53.78 22.5073 54.38 26.2873 54.38C29.1673 54.38 31.4773 54.11 33.2173 53.57C35.0173 52.97 36.3373 52.16 37.1773 51.14C38.0173 50.12 38.4373 48.95 38.4373 47.63C38.4373 45.95 37.7773 44.63 36.4573 43.67C35.1373 42.65 33.3973 41.84 31.2373 41.24C29.0773 40.58 26.6773 39.98 24.0373 39.44C21.4573 38.84 18.8473 38.12 16.2073 37.28C13.6273 36.44 11.2573 35.36 9.09734 34.04C6.93734 32.72 5.16734 30.98 3.78734 28.82C2.46734 26.66 1.80734 23.9 1.80734 20.54C1.80734 16.94 2.76734 13.67 4.68734 10.73C6.66734 7.73 9.60734 5.36 13.5073 3.62C17.4673 1.82 22.4173 0.919999 28.3573 0.919999C32.3173 0.919999 36.2173 1.4 40.0573 2.36C43.8973 3.26 47.2873 4.64 50.2273 6.5L45.7273 17.57C42.7873 15.89 39.8473 14.66 36.9073 13.88C33.9673 13.04 31.0873 12.62 28.2673 12.62C25.4473 12.62 23.1373 12.95 21.3373 13.61C19.5373 14.27 18.2473 15.14 17.4673 16.22C16.6873 17.24 16.2973 18.44 16.2973 19.82C16.2973 21.44 16.9573 22.76 18.2773 23.78C19.5973 24.74 21.3373 25.52 23.4973 26.12C25.6573 26.72 28.0273 27.32 30.6073 27.92C33.2473 28.52 35.8573 29.21 38.4373 29.99C41.0773 30.77 43.4773 31.82 45.6373 33.14C47.7973 34.46 49.5373 36.2 50.8573 38.36C52.2373 40.52 52.9273 43.25 52.9273 46.55C52.9273 50.09 51.9373 53.33 49.9573 56.27C47.9773 59.21 45.0073 61.58 41.0473 63.38C37.1473 65.18 32.1973 66.08 26.1973 66.08ZM62.8899 65V2H74.9499L112.12 47.36H106.27V2H120.67V65H108.7L71.4399 19.64H77.2899V65H62.8899ZM148.625 65V13.88H128.465V2H183.365V13.88H163.205V65H148.625ZM220.481 66.08C215.621 66.08 211.091 65.3 206.891 63.74C202.751 62.12 199.151 59.84 196.091 56.9C193.031 53.96 190.631 50.51 188.891 46.55C187.211 42.59 186.371 38.24 186.371 33.5C186.371 28.76 187.211 24.41 188.891 20.45C190.631 16.49 193.031 13.04 196.091 10.1C199.211 7.16 202.841 4.91 206.981 3.34999C211.121 1.73 215.651 0.919999 220.571 0.919999C226.031 0.919999 230.951 1.88 235.331 3.8C239.771 5.66 243.491 8.42 246.491 12.08L237.131 20.72C234.971 18.26 232.571 16.43 229.931 15.23C227.291 13.97 224.411 13.34 221.291 13.34C218.351 13.34 215.651 13.82 213.191 14.78C210.731 15.74 208.601 17.12 206.801 18.92C205.001 20.72 203.591 22.85 202.571 25.31C201.611 27.77 201.131 30.5 201.131 33.5C201.131 36.5 201.611 39.23 202.571 41.69C203.591 44.15 205.001 46.28 206.801 48.08C208.601 49.88 210.731 51.26 213.191 52.22C215.651 53.18 218.351 53.66 221.291 53.66C224.411 53.66 227.291 53.06 229.931 51.86C232.571 50.6 234.971 48.71 237.131 46.19L246.491 54.83C243.491 58.49 239.771 61.28 235.331 63.2C230.951 65.12 226.001 66.08 220.481 66.08Z" fill="#D12156"/>
<path d="M281.825 65V2H296.405V65H281.825ZM311.357 65V2H325.937V65H311.357ZM353.938 65V13.88H333.778V2H388.678V13.88H368.518V65H353.938ZM422.011 65V2H452.791C460.711 2 466.651 3.5 470.611 6.5C474.631 9.5 476.641 13.46 476.641 18.38C476.641 21.68 475.831 24.56 474.211 27.02C472.591 29.42 470.371 31.28 467.551 32.6C464.731 33.92 461.491 34.58 457.831 34.58L459.541 30.89C463.501 30.89 467.011 31.55 470.071 32.87C473.131 34.13 475.501 36.02 477.181 38.54C478.921 41.06 479.791 44.15 479.791 47.81C479.791 53.21 477.661 57.44 473.401 60.5C469.141 63.5 462.871 65 454.591 65H422.011ZM436.501 54.02H453.511C457.291 54.02 460.141 53.42 462.061 52.22C464.041 50.96 465.031 48.98 465.031 46.28C465.031 43.64 464.041 41.69 462.061 40.43C460.141 39.11 457.291 38.45 453.511 38.45H435.421V27.83H450.991C454.531 27.83 457.231 27.23 459.091 26.03C461.011 24.77 461.971 22.88 461.971 20.36C461.971 17.9 461.011 16.07 459.091 14.87C457.231 13.61 454.531 12.98 450.991 12.98H436.501V54.02ZM534.029 2H548.609V65H534.029V2ZM505.409 65H490.829V2H505.409V65ZM535.109 39.17H504.329V26.84H535.109V39.17ZM591.505 66.08C582.565 66.08 575.575 63.59 570.535 58.61C565.495 53.63 562.975 46.52 562.975 37.28V2H577.555V36.74C577.555 42.74 578.785 47.06 581.245 49.7C583.705 52.34 587.155 53.66 591.595 53.66C596.035 53.66 599.485 52.34 601.945 49.7C604.405 47.06 605.635 42.74 605.635 36.74V2H620.035V37.28C620.035 46.52 617.515 53.63 612.475 58.61C607.435 63.59 600.445 66.08 591.505 66.08Z" fill="#F8F8F8"/>
</svg>
