<svg width="1034" height="497" viewBox="0 0 1034 497" fill="none" xmlns="http://www.w3.org/2000/svg">
<g filter="url(#filter0_f_242_25)">
<g filter="url(#filter1_f_242_25)">
<ellipse cx="531.257" cy="248.6" rx="249.25" ry="148.4" fill="#201127"/>
</g>
<g opacity="0.6" filter="url(#filter2_f_242_25)">
<path d="M213.816 239.794C244.968 179.848 320.442 77.7113 366.237 211.076C385.15 266.157 432.99 378.673 449.95 313.235L476.38 239.794C494.18 188.636 536.903 117.015 565.384 239.794C593.865 362.572 620.27 339.285 629.912 312.293C658.097 223.16 704.676 75.3986 727.817 182.359C750.958 289.32 775.657 357.488 791.233 331.125C831.799 262.463 825.904 128.188 846.861 160.703C856.874 176.239 878.012 280.751 898.038 302.407C914.059 319.732 920.66 263.96 919.177 239.794" stroke="#30153C"/>
<path d="M216.027 241.75C246.983 185.918 321.984 90.7907 367.491 215.003C386.286 266.304 433.826 371.098 450.68 310.151L476.944 241.75C494.633 194.103 537.087 127.397 565.39 241.75C593.693 356.103 619.932 334.413 629.514 309.274C657.522 226.257 703.809 88.6367 726.805 188.257C749.801 287.877 774.345 351.367 789.823 326.813C830.135 262.863 824.277 137.804 845.102 168.087C855.052 182.557 876.058 279.897 895.959 300.066C911.879 316.202 918.439 264.258 916.965 241.75" stroke="#30153C"/>
<path d="M213.816 244.636C244.968 192.33 320.442 103.211 366.237 219.578C385.15 267.639 432.99 365.815 449.95 308.717L476.38 244.636C494.18 199.998 536.903 137.505 565.384 244.636C593.865 351.766 620.27 331.446 629.912 307.895C658.097 230.122 704.676 101.193 727.817 194.521C750.958 287.849 775.657 347.33 791.233 324.326C831.799 264.416 825.904 147.255 846.861 175.625C856.874 189.181 878.012 280.373 898.038 299.269C914.059 314.386 920.66 265.722 919.177 244.636" stroke="#30153C"/>
<path d="M213.816 240.875C244.968 188.569 320.442 99.4498 366.237 215.817C385.15 263.878 432.99 362.054 449.95 304.956L476.38 240.875C494.18 196.237 536.903 133.744 565.384 240.875C593.865 348.005 620.27 327.685 629.912 304.134C658.097 226.361 704.676 97.4318 727.817 190.76C750.958 284.088 775.657 343.569 791.233 320.565C831.799 260.655 825.904 143.494 846.861 171.864C856.874 185.42 878.012 276.612 898.038 295.508C914.059 310.625 920.66 261.961 919.177 240.875" stroke="#30153C"/>
<path d="M213.816 236.174C244.968 183.868 320.442 94.7489 366.237 211.117C385.15 259.177 432.99 357.353 449.95 300.255L476.38 236.174C494.18 191.536 536.903 129.044 565.384 236.174C593.865 343.304 620.27 322.985 629.912 299.433C658.097 221.66 704.676 92.7309 727.817 186.059C750.958 279.388 775.657 338.868 791.233 315.864C831.799 255.954 825.904 138.793 846.861 167.164C856.874 180.719 878.012 271.911 898.038 290.807C914.059 305.924 920.66 257.26 919.177 236.174" stroke="#30153C"/>
<path d="M216.027 241.448C246.983 194.726 321.984 115.119 367.491 219.065C386.286 261.996 433.826 349.692 450.68 298.689L476.944 241.448C494.633 201.575 537.087 145.753 565.39 241.448C593.693 337.143 619.932 318.992 629.514 297.955C657.522 228.483 703.809 113.316 726.805 196.683C749.801 280.049 774.345 333.18 789.823 312.632C830.135 259.117 824.277 154.461 845.102 179.804C855.052 191.913 876.058 273.371 895.959 290.25C911.879 303.753 918.439 260.284 916.965 241.448" stroke="#30153C"/>
<path d="M216.027 239.644C246.983 197.035 321.984 124.438 367.491 219.232C386.286 258.382 433.826 338.357 450.68 291.844L476.944 239.644C494.633 203.281 537.087 152.374 565.39 239.644C593.693 326.913 619.932 310.36 629.514 291.175C657.522 227.82 703.809 122.794 726.805 198.82C749.801 274.846 774.345 323.299 789.823 304.56C830.135 255.756 824.277 160.316 845.102 183.427C855.052 194.47 876.058 268.756 895.959 284.148C911.879 296.462 918.439 256.821 916.965 239.644" stroke="#30153C"/>
<path d="M213.816 238.769C244.87 199.687 320.108 133.097 365.759 220.046C384.613 255.957 432.303 329.312 449.21 286.649L475.556 238.769C493.302 205.416 535.89 158.722 564.282 238.769C592.674 318.816 618.996 303.633 628.608 286.036C656.704 227.924 703.137 131.589 726.206 201.323C749.275 271.058 773.896 315.501 789.423 298.313C829.862 253.548 823.985 166.006 844.876 187.205C854.858 197.333 875.93 265.471 895.893 279.59C911.864 290.885 918.444 254.524 916.966 238.769" stroke="#30153C"/>
<path d="M216.027 239.309C246.983 204.047 321.984 143.966 367.491 222.416C386.286 254.817 433.826 321.003 450.68 282.51L476.944 239.309C494.633 209.216 537.087 167.086 565.39 239.309C593.693 311.532 619.932 297.833 629.514 281.956C657.522 229.524 703.809 142.606 726.805 205.524C749.801 268.442 774.345 308.541 789.823 293.033C830.135 252.644 824.277 173.659 845.102 192.785C855.052 201.924 876.058 263.402 895.959 276.14C911.879 286.331 918.439 253.525 916.965 239.309" stroke="#30153C"/>
<path d="M216.027 240.768C246.983 208.151 321.984 152.576 367.491 225.142C386.286 255.113 433.826 316.335 450.68 280.729L476.944 240.768C494.633 212.932 537.087 173.962 565.39 240.768C593.693 307.574 619.932 294.903 629.514 280.216C657.522 231.717 703.809 151.318 726.805 209.517C749.801 267.716 774.345 304.808 789.823 290.463C830.135 253.103 824.277 180.042 845.102 197.733C855.052 206.187 876.058 263.054 895.959 274.837C911.879 284.264 918.439 253.917 916.965 240.768" stroke="#30153C"/>
<path d="M216.027 239.893C246.983 210.802 321.984 161.236 367.491 225.957C386.286 252.687 433.826 307.291 450.68 275.534L476.944 239.893C494.633 215.067 537.087 180.31 565.39 239.893C593.693 299.477 619.932 288.176 629.514 275.077C657.522 231.821 703.809 160.113 726.805 212.021C749.801 263.928 774.345 297.01 789.823 284.216C830.135 250.894 824.277 185.732 845.102 201.511C855.052 209.051 876.058 259.77 895.959 270.279C911.879 278.687 918.439 251.621 916.965 239.893" stroke="#30153C"/>
<path d="M216.027 239.958C246.983 214.393 321.984 170.835 367.491 227.711C386.286 251.201 433.826 299.186 450.68 271.278L476.944 239.958C494.633 218.141 537.087 187.597 565.39 239.958C593.693 292.319 619.932 282.388 629.514 270.877C657.522 232.864 703.809 169.848 726.805 215.464C749.801 261.079 774.345 290.151 789.823 278.908C830.135 249.626 824.277 192.362 845.102 206.228C855.052 212.854 876.058 257.425 895.959 266.661C911.879 274.049 918.439 250.264 916.965 239.958" stroke="#30153C"/>
<path d="M216.027 240.963C246.983 218.925 321.984 181.374 367.491 230.405C386.286 250.656 433.826 292.022 450.68 267.964L476.944 240.963C494.633 222.155 537.087 195.824 565.39 240.963C593.693 286.103 619.932 277.541 629.514 267.618C657.522 234.848 703.809 180.524 726.805 219.848C749.801 259.171 774.345 284.233 789.823 274.541C830.135 249.298 824.277 199.932 845.102 211.886C855.052 217.598 876.058 256.021 895.959 263.983C911.879 270.352 918.439 249.848 916.965 240.963" stroke="#30153C"/>
<path d="M213.816 240.564C244.87 222.345 320.108 191.303 365.759 231.836C384.613 248.576 432.303 282.772 449.21 262.884L475.556 240.564C493.302 225.016 535.89 203.249 564.282 240.564C592.674 277.879 618.996 270.801 628.608 262.598C656.704 235.508 703.137 190.601 726.206 223.108C749.275 255.616 773.896 276.334 789.423 268.321C829.862 247.453 823.985 206.644 844.876 216.526C854.858 221.248 875.93 253.012 895.893 259.593C911.864 264.859 918.444 247.909 916.966 240.564" stroke="#30153C"/>
<path d="M216.027 241.547C247.081 225.679 322.319 198.643 367.969 233.946C386.823 248.526 434.513 278.309 451.421 260.988L477.767 241.547C495.512 228.006 538.1 209.047 566.493 241.547C594.885 274.048 621.207 267.883 630.818 260.738C658.915 237.144 705.348 198.031 728.416 226.344C751.485 254.657 776.106 272.702 791.633 265.723C832.072 247.548 826.196 212.005 847.087 220.612C857.068 224.724 878.141 252.389 898.104 258.121C914.074 262.707 920.655 247.944 919.176 241.547" stroke="#30153C"/>
<path d="M216.027 242.088C247.081 230.04 322.319 209.513 367.969 236.316C386.823 247.387 434.513 270 451.421 256.848L477.767 242.088C495.512 231.806 538.1 217.412 566.493 242.088C594.885 266.764 621.207 262.084 630.818 256.659C658.915 238.745 705.348 209.048 728.416 230.545C751.485 252.042 776.106 265.742 791.633 260.444C832.072 246.644 826.196 219.658 847.087 226.192C857.068 229.315 878.141 250.32 898.104 254.672C914.074 258.154 920.655 246.945 919.176 242.088" stroke="#30153C"/>
<path d="M213.816 242.153C245.066 233.631 320.776 219.112 366.714 238.071C385.687 245.901 433.677 261.896 450.691 252.593L477.203 242.153C495.059 234.881 537.915 224.699 566.486 242.153C595.057 259.607 621.544 256.296 631.217 252.459C659.49 239.788 706.215 218.783 729.428 233.988C752.642 249.193 777.418 258.884 793.043 255.136C833.736 245.376 827.823 226.288 848.845 230.91C858.889 233.118 880.094 247.975 900.183 251.054C916.254 253.517 922.876 245.589 921.388 242.153" stroke="#30153C"/>
</g>
<path d="M143.273 238.569C177.325 150.182 259.826 -0.414064 309.883 196.226C330.558 277.441 382.851 443.34 401.391 346.854L430.28 238.569C449.738 163.139 496.438 57.5378 527.571 238.569C558.704 419.6 587.567 385.263 598.106 345.466C628.915 214.043 679.83 -3.82409 705.126 153.884C730.421 311.592 757.419 412.103 774.445 373.232C818.788 271.993 812.344 74.012 835.252 121.954C846.197 144.86 869.303 298.959 891.194 330.889C908.706 356.434 915.922 274.201 914.3 238.569" stroke="url(#paint0_linear_242_25)"/>
<path d="M145.691 240.066C179.527 156.93 261.505 15.2799 311.245 200.239C331.788 276.628 383.751 432.672 402.173 341.919L430.879 240.066C450.214 169.117 496.618 69.789 527.553 240.066C558.489 410.343 587.169 378.046 597.642 340.613C628.255 216.997 678.848 12.0724 703.983 160.412C729.119 308.751 755.946 403.291 772.864 366.729C816.925 271.505 810.523 85.2846 833.285 130.378C844.161 151.924 867.121 296.868 888.872 326.902C906.274 350.929 913.444 273.582 911.833 240.066" stroke="url(#paint1_linear_242_25)"/>
<path d="M143.273 243.671C177.325 166.223 259.826 34.2649 309.883 206.569C330.558 277.732 382.851 423.099 401.391 338.555L430.28 243.671C449.738 177.577 496.438 85.0445 527.571 243.671C558.704 402.297 587.567 372.21 598.106 337.338C628.915 222.18 679.83 31.2769 705.126 169.467C730.421 307.657 757.419 395.728 774.445 361.667C818.788 272.959 812.344 99.4798 835.252 141.488C846.197 161.56 869.303 296.587 891.194 324.565C908.706 346.948 915.922 274.893 914.3 243.671" stroke="url(#paint2_linear_242_25)"/>
<path d="M143.273 238.763C177.323 160.877 259.818 28.1738 309.872 201.451C330.545 273.016 382.835 419.204 401.373 334.183L430.261 238.763C449.718 172.295 496.414 79.2403 527.545 238.763C558.676 398.285 587.537 368.028 598.076 332.959C628.882 217.151 679.794 25.1689 705.088 164.139C730.382 303.11 757.378 391.679 774.403 357.426C818.742 268.216 812.299 93.7571 835.205 136.003C846.15 156.188 869.255 291.978 891.144 320.114C908.655 342.624 915.87 270.162 914.249 238.763" stroke="url(#paint3_linear_242_25)"/>
<path d="M143.273 231.763C177.323 153.877 259.818 21.1738 309.872 194.451C330.545 266.016 382.835 412.204 401.373 327.183L430.261 231.763C449.718 165.295 496.414 72.2403 527.545 231.763C558.676 391.285 587.537 361.028 598.076 325.959C628.882 210.151 679.794 18.1689 705.088 157.139C730.382 296.11 757.378 384.679 774.403 350.426C818.742 261.216 812.299 86.7571 835.205 129.003C846.15 149.188 869.255 284.978 891.144 313.114C908.655 335.624 915.87 263.162 914.249 231.763" stroke="url(#paint4_linear_242_25)"/>
<path d="M145.691 239.616C179.527 170.044 261.505 51.5058 311.245 206.287C331.788 270.213 383.751 400.797 402.173 324.851L430.879 239.616C450.214 180.243 496.618 97.1214 527.553 239.616C558.489 382.111 587.169 355.084 597.642 323.758C628.255 220.311 678.848 48.8217 703.983 172.958C729.119 297.095 755.946 376.21 772.864 345.613C816.925 265.925 810.523 110.089 833.285 147.825C844.161 165.855 867.121 287.151 888.872 312.284C906.274 332.391 913.444 267.664 911.833 239.616" stroke="url(#paint5_linear_242_25)"/>
<path d="M145.691 236.929C179.527 173.483 261.505 65.3822 311.245 206.535C331.788 264.832 383.751 383.918 402.173 314.659L430.879 236.929C450.214 182.784 496.618 106.981 527.553 236.929C558.489 366.878 587.169 342.23 597.642 313.663C628.255 219.324 678.848 62.9344 703.983 176.141C729.119 289.347 755.946 361.496 772.864 333.593C816.925 260.922 810.523 118.807 833.285 153.22C844.161 169.663 867.121 280.279 888.872 303.199C906.274 321.535 913.444 262.507 911.833 236.929" stroke="url(#paint6_linear_242_25)"/>
<path d="M143.273 235.626C177.216 177.431 259.453 78.276 309.35 207.747C329.958 261.22 382.084 370.45 400.564 306.923L429.361 235.626C448.757 185.962 495.307 116.432 526.34 235.626C557.374 354.82 586.144 332.212 596.65 306.009C627.36 219.478 678.112 76.0307 703.327 179.868C728.541 283.706 755.453 349.884 772.424 324.29C816.625 257.633 810.202 127.279 833.036 158.845C843.946 173.927 866.979 275.388 888.799 296.411C906.255 313.23 913.448 259.087 911.832 235.626" stroke="url(#paint7_linear_242_25)"/>
<path d="M145.691 236.431C179.527 183.924 261.505 94.4609 311.245 211.277C331.788 259.523 383.751 358.077 402.173 300.759L430.879 236.431C450.214 191.621 496.618 128.888 527.553 236.431C558.489 343.974 587.169 323.576 597.642 299.934C628.255 221.861 678.848 92.4352 703.983 186.123C729.119 279.811 755.946 339.521 772.864 316.429C816.925 256.287 810.523 138.674 833.285 167.155C844.161 180.763 867.121 272.306 888.872 291.275C906.274 306.45 913.444 257.599 911.833 236.431" stroke="url(#paint8_linear_242_25)"/>
<path d="M145.691 238.604C179.527 190.035 261.505 107.281 311.245 215.336C331.788 259.964 383.751 351.126 402.173 298.107L430.879 238.604C450.214 197.155 496.618 139.126 527.553 238.604C558.489 338.081 587.169 319.213 597.642 297.344C628.255 225.126 678.848 105.407 703.983 192.069C729.119 278.73 755.946 333.962 772.864 312.601C816.925 256.97 810.523 148.179 833.285 174.523C844.161 187.11 867.121 271.788 888.872 289.334C906.274 303.371 913.444 258.184 911.833 238.604" stroke="url(#paint9_linear_242_25)"/>
<path d="M145.691 237.301C179.527 193.982 261.505 120.175 311.245 216.549C331.788 256.352 383.751 337.659 402.173 290.371L430.879 237.301C450.214 200.333 496.618 148.578 527.553 237.301C558.489 326.024 587.169 309.196 597.642 289.691C628.255 225.281 678.848 118.504 703.983 195.797C729.119 273.089 755.946 322.35 772.864 303.299C816.925 253.682 810.523 156.652 833.285 180.148C844.161 191.374 867.121 266.898 888.872 282.547C906.274 295.066 913.444 254.764 911.833 237.301" stroke="url(#paint10_linear_242_25)"/>
<path d="M145.691 237.397C179.527 199.33 261.505 134.469 311.245 219.161C331.788 254.139 383.751 325.591 402.173 284.035L430.879 237.397C450.214 204.91 496.618 159.429 527.553 237.397C558.489 315.366 587.169 300.578 597.642 283.437C628.255 226.834 678.848 133 703.983 200.924C729.119 268.848 755.946 312.138 772.864 295.396C816.925 251.793 810.523 166.524 833.285 187.172C844.161 197.038 867.121 263.407 888.872 277.159C906.274 288.161 913.444 252.744 911.833 237.397" stroke="url(#paint11_linear_242_25)"/>
<path d="M145.691 238.894C179.527 206.077 261.505 150.163 311.245 223.173C331.788 253.327 383.751 314.923 402.173 279.099L430.879 238.894C450.214 210.888 496.618 171.68 527.553 238.894C558.489 306.109 587.169 293.36 597.642 278.584C628.255 229.788 678.848 148.897 703.983 207.452C729.119 266.007 755.946 303.325 772.864 288.893C816.925 251.304 810.523 177.797 833.285 195.597C844.161 204.102 867.121 261.316 888.872 273.172C906.274 282.656 913.444 252.124 911.833 238.894" stroke="url(#paint12_linear_242_25)"/>
<path d="M143.273 238.299C177.216 211.171 259.453 164.948 309.35 225.303C329.958 250.23 382.084 301.15 400.564 271.536L429.361 238.299C448.757 215.148 495.307 182.735 526.34 238.299C557.374 293.863 586.144 283.324 596.65 271.109C627.36 230.772 678.112 163.902 703.327 212.307C728.541 260.713 755.453 291.562 772.424 279.632C816.625 248.558 810.202 187.792 833.036 202.507C843.946 209.537 866.979 256.835 888.799 266.635C906.255 274.476 913.448 249.236 911.832 238.299" stroke="url(#paint13_linear_242_25)"/>
<path d="M145.691 239.764C179.634 216.136 261.87 175.877 311.768 228.445C332.376 250.155 384.502 294.505 402.982 268.712L431.779 239.764C451.175 219.6 497.725 191.37 528.758 239.764C559.791 288.158 588.562 278.979 599.068 268.34C629.778 233.207 680.53 174.966 705.745 217.125C730.959 259.285 757.871 286.154 774.842 275.763C819.043 248.699 812.62 195.774 835.454 208.59C846.364 214.713 869.397 255.908 891.217 264.444C908.673 271.272 915.866 249.289 914.249 239.764" stroke="url(#paint14_linear_242_25)"/>
<path d="M145.691 240.569C179.634 222.629 261.87 192.063 311.768 231.975C332.376 248.459 384.502 282.131 402.982 262.548L431.779 240.569C451.175 225.259 497.725 203.825 528.758 240.569C559.791 277.313 588.562 270.344 599.068 262.266C629.778 235.591 680.53 191.37 705.745 223.38C730.959 255.391 757.871 275.791 774.842 267.902C819.043 247.353 812.62 207.169 835.454 216.9C846.364 221.549 869.397 252.826 891.217 259.307C908.673 264.492 915.866 247.801 914.249 240.569" stroke="url(#paint15_linear_242_25)"/>
<path d="M143.273 240.666C177.43 227.977 260.183 206.356 310.394 234.587C331.132 246.247 383.586 270.064 402.182 256.212L431.161 240.666C450.678 229.837 497.521 214.676 528.75 240.666C559.978 266.656 588.929 261.726 599.502 256.013C630.405 237.145 681.476 205.867 706.849 228.508C732.222 251.149 759.303 265.579 776.381 259.999C820.86 245.464 814.397 217.041 837.374 223.924C848.353 227.213 871.531 249.336 893.488 253.92C911.054 257.587 918.292 245.781 916.665 240.666" stroke="url(#paint16_linear_242_25)"/>
<g opacity="0.6" filter="url(#filter3_f_242_25)">
<path d="M176.19 218.552C210.55 145.479 293.798 20.9766 344.308 183.546C365.17 250.688 417.937 387.842 436.644 308.075L465.795 218.552C485.429 156.191 532.551 68.8872 563.966 218.552C595.381 368.216 624.505 339.829 635.14 306.927C666.228 198.275 717.604 18.1574 743.128 148.54C768.653 278.922 795.895 362.018 813.075 329.882C857.819 246.185 851.317 82.507 874.432 122.142C885.476 141.08 908.792 268.478 930.88 294.876C948.551 315.994 955.832 248.01 954.196 218.552" stroke="#3D1B4D"/>
<path d="M178.63 220.936C212.774 152.879 295.499 36.9204 345.693 188.333C366.424 250.867 418.86 378.609 437.45 304.316L466.418 220.936C485.929 162.856 532.756 81.5431 563.974 220.936C595.192 360.33 624.133 333.891 634.702 303.247C665.594 202.051 716.648 34.2947 742.013 155.729C767.377 277.164 794.449 354.557 811.521 324.626C855.984 246.673 849.523 94.2282 872.493 131.143C883.468 148.781 906.638 267.436 928.588 292.023C946.148 311.692 953.383 248.373 951.757 220.936" stroke="#3D1B4D"/>
<path d="M176.19 224.454C210.55 160.695 293.798 52.0601 344.308 193.91C365.17 252.495 417.937 372.168 436.644 302.567L465.795 224.454C485.429 170.042 532.551 93.8645 563.966 224.454C595.381 355.044 624.505 330.274 635.14 301.566C666.228 206.762 717.604 49.6002 743.128 163.365C768.653 277.131 795.895 349.636 813.075 321.595C857.819 248.565 851.317 105.748 874.432 140.332C885.476 156.856 908.792 268.017 930.88 291.051C948.551 309.477 955.832 250.158 954.196 224.454" stroke="#3D1B4D"/>
<path d="M176.19 219.87C210.55 156.11 293.798 47.4756 344.308 189.325C365.17 247.91 417.937 367.584 436.644 297.983L465.795 219.87C485.429 165.457 532.551 89.28 563.966 219.87C595.381 350.459 624.505 325.69 635.14 296.981C666.228 202.177 717.604 45.0157 743.128 158.781C768.653 272.546 795.895 345.051 813.075 317.01C857.819 243.981 851.317 101.164 874.432 135.747C885.476 152.271 908.792 263.433 930.88 286.466C948.551 304.893 955.832 245.574 954.196 219.87" stroke="#3D1B4D"/>
<path d="M176.19 214.139C210.55 150.38 293.798 41.7454 344.308 183.595C365.17 242.18 417.937 361.854 436.644 292.253L465.795 214.139C485.429 159.727 532.551 83.5498 563.966 214.139C595.381 344.729 624.505 319.96 635.14 291.251C666.228 196.447 717.604 39.2855 743.128 153.051C768.653 266.816 795.895 339.321 813.075 311.28C857.819 238.25 851.317 95.4337 874.432 130.017C885.476 146.541 908.792 257.702 930.88 280.736C948.551 299.163 955.832 239.843 954.196 214.139" stroke="#3D1B4D"/>
<path d="M178.63 220.568C212.774 163.615 295.499 66.5759 345.693 193.284C366.424 245.616 418.86 352.515 437.45 290.344L466.418 220.568C485.929 171.964 532.756 103.918 563.974 220.568C595.192 337.218 624.133 315.093 634.702 289.449C665.594 204.764 716.648 64.3786 742.013 166C767.377 267.622 794.449 332.388 811.521 307.34C855.984 242.106 849.523 114.533 872.493 145.425C883.468 160.186 906.638 259.481 928.588 280.056C946.148 296.516 953.383 243.528 951.757 220.568" stroke="#3D1B4D"/>
<path d="M178.63 218.369C212.774 166.43 295.499 77.9355 345.693 193.487C366.424 241.211 418.86 338.698 437.45 282L466.418 218.369C485.929 174.044 532.756 111.99 563.974 218.369C595.192 324.748 624.133 304.571 634.702 281.185C665.594 203.956 716.648 75.9317 742.013 168.606C767.377 261.279 794.449 320.343 811.521 297.5C855.984 238.01 849.523 121.67 872.493 149.842C883.468 163.303 906.638 253.856 928.588 272.619C946.148 287.629 953.383 239.307 951.757 218.369" stroke="#3D1B4D"/>
<path d="M176.19 217.302C210.443 169.662 293.429 88.4907 343.781 194.479C364.577 238.254 417.179 327.673 435.827 275.667L464.887 217.302C484.46 176.645 531.434 119.727 562.75 217.302C594.067 314.877 623.099 296.37 633.701 274.919C664.691 204.082 715.906 86.6527 741.351 171.657C766.795 256.661 793.952 310.836 811.078 289.885C855.682 235.317 849.201 128.606 872.243 154.447C883.253 166.793 906.495 249.852 928.514 267.062C946.13 280.831 953.388 236.508 951.757 217.302" stroke="#3D1B4D"/>
<path d="M178.63 217.961C212.774 174.977 295.499 101.74 345.693 197.369C366.424 236.865 418.86 317.544 437.45 270.622L466.418 217.961C485.929 181.278 532.756 129.923 563.974 217.961C595.192 305.999 624.133 289.3 634.702 269.946C665.594 206.033 716.648 100.082 742.013 176.777C767.377 253.473 794.449 302.353 811.521 283.449C855.984 234.216 849.523 137.935 872.493 161.249C883.468 172.389 906.638 247.329 928.588 262.857C946.148 275.28 953.383 235.289 951.757 217.961" stroke="#3D1B4D"/>
<path d="M178.63 219.739C212.774 179.98 295.499 112.235 345.693 200.692C366.424 237.225 418.86 311.853 437.45 268.451L466.418 219.739C485.929 185.808 532.756 138.304 563.974 219.739C595.192 301.175 624.133 285.729 634.702 267.826C665.594 208.707 716.648 110.701 742.013 181.645C767.377 252.588 794.449 297.802 811.521 280.316C855.984 234.775 849.523 145.715 872.493 167.281C883.468 177.586 906.638 246.905 928.588 261.269C946.148 272.76 953.383 235.768 951.757 219.739" stroke="#3D1B4D"/>
<path d="M178.63 218.673C212.774 183.211 295.499 122.791 345.693 201.684C366.424 234.268 418.86 300.828 437.45 262.118L466.418 218.673C485.929 188.41 532.756 146.041 563.974 218.673C595.192 291.304 624.133 277.528 634.702 261.561C665.594 208.832 716.648 121.422 742.013 184.696C767.377 247.97 794.449 288.296 811.521 272.7C855.984 232.083 849.523 152.651 872.493 171.886C883.468 181.076 906.638 242.901 928.588 255.712C946.148 265.961 953.383 232.969 951.757 218.673" stroke="#3D1B4D"/>
<path d="M178.63 218.752C212.774 187.589 295.499 134.492 345.693 203.823C366.424 232.457 418.86 290.949 437.45 256.931L466.418 218.752C485.929 192.157 532.756 154.925 563.974 218.752C595.192 282.579 624.133 270.473 634.702 256.442C665.594 210.105 716.648 133.29 742.013 188.894C767.377 244.498 794.449 279.936 811.521 266.231C855.984 230.537 849.523 160.733 872.493 177.636C883.468 185.712 906.638 240.044 928.588 251.302C946.148 260.308 953.383 231.315 951.757 218.752" stroke="#3D1B4D"/>
<path d="M178.63 219.977C212.774 193.112 295.499 147.339 345.693 207.107C366.424 231.792 418.86 282.216 437.45 252.89L466.418 219.977C485.929 197.051 532.756 164.954 563.974 219.977C595.192 275.001 624.133 264.564 634.702 252.468C665.594 212.523 716.648 146.303 742.013 194.238C767.377 242.172 794.449 272.722 811.521 260.907C855.984 230.136 849.523 169.961 872.493 184.533C883.468 191.495 906.638 238.333 928.588 248.038C946.148 255.802 953.383 230.808 951.757 219.977" stroke="#3D1B4D"/>
<path d="M176.19 219.49C210.443 197.282 293.429 159.443 343.781 208.851C364.577 229.257 417.179 270.941 435.827 246.698L464.887 219.49C484.46 200.538 531.434 174.004 562.75 219.49C594.067 264.976 623.099 256.349 633.701 246.349C664.691 213.328 715.906 158.586 741.351 198.212C766.795 237.838 793.952 263.093 811.078 253.326C855.682 227.888 849.201 178.143 872.243 190.189C883.253 195.945 906.495 234.664 928.514 242.687C946.13 249.105 953.388 228.443 951.757 219.49" stroke="#3D1B4D"/>
<path d="M178.63 220.689C212.882 201.346 295.868 168.39 346.22 211.423C367.016 229.196 419.618 265.501 438.266 244.386L467.326 220.689C486.899 204.182 533.873 181.072 565.189 220.689C596.506 260.306 625.538 252.792 636.14 244.083C667.13 215.322 718.345 167.644 743.79 202.157C769.234 236.67 796.391 258.666 813.518 250.159C858.121 228.004 851.64 184.677 874.682 195.169C885.692 200.182 908.934 233.905 930.953 240.893C948.569 246.483 955.827 228.487 954.196 220.689" stroke="#3D1B4D"/>
<path d="M178.63 221.348C212.882 206.662 295.868 181.639 346.22 214.313C367.016 227.807 419.618 255.372 438.266 239.34L467.326 221.348C486.899 208.815 533.873 191.268 565.189 221.348C596.506 251.428 625.538 245.722 636.14 239.11C667.13 217.273 718.345 181.073 743.79 207.277C769.234 233.481 796.391 250.182 813.518 243.723C858.121 226.902 851.64 194.006 874.682 201.972C885.692 205.778 908.934 231.382 930.953 236.688C948.569 240.932 955.827 227.269 954.196 221.348" stroke="#3D1B4D"/>
<path d="M176.19 221.428C210.658 211.04 294.166 193.341 344.835 216.451C365.762 225.996 418.694 245.493 437.46 234.154L466.703 221.428C486.399 212.563 533.668 200.152 565.182 221.428C596.695 242.703 625.91 238.668 636.579 233.991C667.764 218.545 719.301 192.94 744.905 211.475C770.51 230.01 797.838 241.822 815.072 237.254C859.956 225.356 853.434 202.088 876.621 207.722C887.7 210.414 911.088 228.525 933.246 232.278C950.972 235.28 958.276 225.615 956.635 221.428" stroke="#3D1B4D"/>
</g>
<g opacity="0.6" filter="url(#filter4_f_242_25)">
<path d="M21 197.552C62.9149 124.479 164.467 -0.0235468 226.084 162.546C251.532 229.688 315.901 366.842 338.722 287.075L374.283 197.552C398.234 135.191 455.717 47.8871 494.039 197.552C532.362 347.216 567.89 318.829 580.863 285.927C618.786 177.275 681.459 -2.84273 712.596 127.54C743.732 257.922 776.965 341.018 797.922 308.882C852.504 225.184 844.573 61.5069 872.77 101.142C886.243 120.079 914.685 247.478 941.631 273.876C963.187 294.994 972.069 227.01 970.073 197.552" stroke="#404AA3" stroke-opacity="0.18"/>
<path d="M23.9771 199.936C65.6292 131.879 166.544 15.9203 227.775 167.333C253.064 229.867 317.029 357.609 339.707 283.316L375.045 199.936C398.846 141.856 455.969 60.543 494.051 199.936C532.133 339.33 567.438 312.891 580.33 282.247C618.015 181.051 680.295 13.2946 711.237 134.729C742.178 256.164 775.202 333.557 796.029 303.626C850.268 225.673 842.387 73.2281 870.407 110.143C883.795 127.781 912.059 246.436 938.836 271.023C960.257 290.692 969.083 227.373 967.1 199.936" stroke="#404AA3" stroke-opacity="0.18"/>
<path d="M21 203.454C62.9149 139.695 164.467 31.0599 226.084 172.909C251.532 231.495 315.901 351.168 338.722 281.567L374.283 203.454C398.234 149.042 455.717 72.8643 494.039 203.454C532.362 334.043 567.89 309.274 580.863 280.566C618.786 185.762 681.459 28.6 712.596 142.365C743.732 256.13 776.965 328.636 797.922 300.595C852.504 227.565 844.573 84.7482 872.77 119.332C886.243 135.856 914.685 247.017 941.631 270.05C963.187 288.477 972.069 229.158 970.073 203.454" stroke="#404AA3" stroke-opacity="0.18"/>
<path d="M21 198.87C62.9149 135.11 164.467 26.4756 226.084 168.325C251.532 226.91 315.901 346.584 338.722 276.983L374.283 198.87C398.234 144.457 455.717 68.28 494.039 198.87C532.362 329.459 567.89 304.69 580.863 275.981C618.786 181.177 681.459 24.0157 712.596 137.781C743.732 251.546 776.965 324.051 797.922 296.01C852.504 222.981 844.573 80.1639 872.77 114.747C886.243 131.271 914.685 242.433 941.631 265.466C963.187 283.893 972.069 224.573 970.073 198.87" stroke="#404AA3" stroke-opacity="0.18"/>
<path d="M21 193.139C62.9149 129.38 164.467 20.7453 226.084 162.595C251.532 221.18 315.901 340.854 338.722 271.253L374.283 193.139C398.234 138.727 455.717 62.5497 494.039 193.139C532.362 323.729 567.89 298.96 580.863 270.251C618.786 175.447 681.459 18.2854 712.596 132.051C743.732 245.816 776.965 318.321 797.922 290.28C852.504 217.25 844.573 74.4336 872.77 109.017C886.243 125.541 914.685 236.702 941.631 259.736C963.187 278.163 972.069 218.843 970.073 193.139" stroke="#404AA3" stroke-opacity="0.18"/>
<path d="M23.9771 199.568C65.6292 142.615 166.544 45.5756 227.775 172.284C253.064 224.615 317.029 331.515 339.707 269.343L375.045 199.568C398.846 150.964 455.969 82.9178 494.051 199.568C532.133 316.218 567.438 294.093 580.33 268.449C618.015 183.764 680.295 43.3783 711.237 145C742.178 246.622 775.202 311.387 796.029 286.34C850.268 221.105 842.387 93.5332 870.407 124.425C883.795 139.185 912.059 238.481 938.836 259.056C960.257 275.516 969.083 222.528 967.1 199.568" stroke="#404AA3" stroke-opacity="0.18"/>
<path d="M23.9771 197.369C65.6292 145.43 166.544 56.9354 227.775 172.487C253.064 220.211 317.029 317.698 339.707 261L375.045 197.369C398.846 153.044 455.969 90.9895 494.051 197.369C532.133 303.748 567.438 283.571 580.33 260.185C618.015 182.956 680.295 54.9316 711.237 147.605C742.178 240.279 775.202 299.342 796.029 276.5C850.268 217.01 842.387 100.67 870.407 128.842C883.795 142.303 912.059 232.856 938.836 251.619C960.257 266.629 969.083 218.307 967.1 197.369" stroke="#404AA3" stroke-opacity="0.18"/>
<path d="M21 196.302C62.7835 148.662 164.017 67.4907 225.441 173.479C250.809 217.254 314.977 306.673 337.726 254.667L373.175 196.302C397.051 155.645 454.355 98.7265 492.557 196.302C530.759 293.877 566.175 275.37 579.108 253.919C616.912 183.082 679.389 65.6527 710.428 150.657C741.467 235.661 774.595 289.836 795.487 268.885C849.898 214.317 841.991 107.606 870.1 133.447C883.531 145.793 911.884 228.852 938.745 246.062C960.233 259.831 969.087 215.508 967.098 196.302" stroke="#404AA3" stroke-opacity="0.18"/>
<path d="M23.9771 196.961C65.6292 153.977 166.544 80.74 227.775 176.369C253.064 215.864 317.029 296.543 339.707 249.621L375.045 196.961C398.846 160.278 455.969 108.923 494.051 196.961C532.133 284.998 567.438 268.3 580.33 248.946C618.015 185.033 680.295 79.0816 711.237 155.777C742.178 232.473 775.202 281.353 796.029 262.449C850.268 213.215 842.387 116.934 870.407 140.249C883.795 151.389 912.059 226.329 938.836 241.857C960.257 254.28 969.083 214.289 967.1 196.961" stroke="#404AA3" stroke-opacity="0.18"/>
<path d="M23.9771 198.739C65.6292 158.979 166.544 91.2351 227.775 179.692C253.064 216.225 317.029 290.853 339.707 247.45L375.045 198.739C398.846 164.808 455.969 117.304 494.051 198.739C532.133 280.174 567.438 264.728 580.33 246.826C618.015 187.706 680.295 89.7012 711.237 160.645C742.178 231.588 775.202 276.802 796.029 259.316C850.268 213.775 842.387 124.715 870.407 146.281C883.795 156.585 912.059 225.905 938.836 240.269C960.257 251.759 969.083 214.768 967.1 198.739" stroke="#404AA3" stroke-opacity="0.18"/>
<path d="M23.9771 197.673C65.6292 162.211 166.544 101.791 227.775 180.685C253.064 213.268 317.029 279.828 339.707 241.118L375.045 197.673C398.846 167.41 455.969 125.041 494.051 197.673C532.133 270.304 567.438 256.528 580.33 240.561C618.015 187.833 680.295 100.423 711.237 163.696C742.178 226.97 775.202 267.296 796.029 251.701C850.268 211.083 842.387 131.651 870.407 150.886C883.795 160.076 912.059 221.902 938.836 234.712C960.257 244.961 969.083 211.969 967.1 197.673" stroke="#404AA3" stroke-opacity="0.18"/>
<path d="M23.9771 197.752C65.6292 166.589 166.544 113.492 227.775 182.823C253.064 211.457 317.029 269.949 339.707 235.931L375.045 197.752C398.846 171.157 455.969 133.924 494.051 197.752C532.133 261.579 567.438 249.473 580.33 235.441C618.015 189.104 680.295 112.29 711.237 167.894C742.178 223.498 775.202 258.936 796.029 245.231C850.268 209.537 842.387 139.733 870.407 156.636C883.795 164.712 912.059 219.044 938.836 230.302C960.257 239.308 969.083 210.315 967.1 197.752" stroke="#404AA3" stroke-opacity="0.18"/>
<path d="M23.9771 198.977C65.6292 172.112 166.544 126.339 227.775 186.107C253.064 210.792 317.029 261.216 339.707 231.89L375.045 198.977C398.846 176.051 455.969 143.953 494.051 198.977C532.133 254.001 567.438 243.564 580.33 231.468C618.015 191.523 680.295 125.303 711.237 173.238C742.178 221.172 775.202 251.722 796.029 239.907C850.268 209.136 842.387 148.961 870.407 163.532C883.795 170.495 912.059 217.332 938.836 227.038C960.257 234.802 969.083 209.807 967.1 198.977" stroke="#404AA3" stroke-opacity="0.18"/>
<path d="M21 198.49C62.7835 176.282 164.017 138.443 225.441 187.851C250.809 208.257 314.977 249.941 337.726 225.698L373.175 198.49C397.051 179.537 454.355 153.004 492.557 198.49C530.759 243.976 566.175 235.349 579.108 225.349C616.912 192.328 679.389 137.586 710.428 177.212C741.467 216.838 774.595 242.093 795.487 232.326C849.898 206.888 841.991 157.143 870.1 169.189C883.531 174.945 911.884 213.664 938.745 221.687C960.233 228.105 969.087 207.443 967.098 198.49" stroke="#404AA3" stroke-opacity="0.18"/>
<path d="M23.9771 199.689C65.7606 180.346 166.994 147.39 228.418 190.423C253.786 208.196 317.954 244.501 340.703 223.386L376.152 199.689C400.029 183.182 457.332 160.072 495.534 199.689C533.736 239.306 569.152 231.792 582.085 223.083C619.889 194.322 682.366 146.644 713.405 181.157C744.444 215.67 777.572 237.666 798.464 229.159C852.875 207.004 844.969 163.677 873.077 174.169C886.508 179.182 914.861 212.905 941.722 219.893C963.21 225.483 972.065 207.487 970.075 199.689" stroke="#404AA3" stroke-opacity="0.18"/>
<path d="M23.9771 200.348C65.7606 185.662 166.994 160.639 228.418 193.313C253.786 206.807 317.954 234.372 340.703 218.34L376.152 200.348C400.029 187.815 457.332 170.268 495.534 200.348C533.736 230.428 569.152 224.722 582.085 218.11C619.889 196.273 682.366 160.073 713.405 186.277C744.444 212.481 777.572 229.182 798.464 222.723C852.875 205.902 844.969 173.006 873.077 180.972C886.508 184.778 914.861 210.382 941.722 215.688C963.21 219.932 972.065 206.269 970.075 200.348" stroke="#404AA3" stroke-opacity="0.18"/>
<path d="M21 200.428C63.0463 190.04 164.916 172.341 226.726 195.451C252.255 204.996 316.826 224.493 339.718 213.154L375.39 200.428C399.416 191.563 457.08 179.152 495.522 200.428C533.965 221.703 569.604 217.668 582.618 212.991C620.66 197.545 683.529 171.94 714.764 190.475C745.998 209.01 779.335 220.822 800.358 216.254C855.111 204.356 847.155 181.088 875.44 186.722C888.955 189.414 917.487 207.525 944.516 211.278C966.14 214.28 975.05 204.615 973.048 200.428" stroke="#404AA3" stroke-opacity="0.18"/>
</g>
<g opacity="0.6" filter="url(#filter5_f_242_25)">
<path d="M1018 245.152C976.085 172.079 874.533 47.5766 812.916 210.146C787.468 277.288 723.099 414.442 700.278 334.675L664.717 245.152C640.766 182.791 583.283 95.4872 544.961 245.152C506.638 394.816 471.11 366.429 458.137 333.527C420.214 224.875 357.541 44.7574 326.404 175.14C295.268 305.522 262.035 388.618 241.078 356.482C186.496 272.785 194.427 109.107 166.23 148.742C152.757 167.68 124.315 295.078 97.3694 321.476C75.8131 342.594 66.9312 274.61 68.9271 245.152" stroke="#361844"/>
<path d="M1015.02 247.536C973.371 179.479 872.456 63.5203 811.225 214.933C785.936 277.467 721.971 405.209 699.293 330.916L663.955 247.536C640.154 189.456 583.031 108.143 544.949 247.536C506.867 386.93 471.562 360.491 458.67 329.847C420.985 228.651 358.705 60.8946 327.763 182.329C296.822 303.764 263.797 381.157 242.971 351.226C188.732 273.273 196.613 120.828 168.593 157.743C155.205 175.381 126.941 294.036 100.164 318.623C78.7432 338.292 69.9169 274.973 71.9003 247.536" stroke="#361844"/>
<path d="M1018 251.054C976.085 187.295 874.533 78.66 812.916 220.51C787.468 279.095 723.099 398.768 700.278 329.167L664.717 251.054C640.766 196.642 583.283 120.464 544.961 251.054C506.638 381.644 471.11 356.874 458.137 328.166C420.214 233.362 357.541 76.2001 326.404 189.965C295.268 303.73 262.035 376.236 241.078 348.195C186.496 275.165 194.427 132.348 166.23 166.932C152.757 183.456 124.315 294.617 97.3694 317.651C75.8131 336.077 66.9312 276.758 68.9271 251.054" stroke="#361844"/>
<path d="M1018 246.469C976.085 182.71 874.533 74.0755 812.916 215.925C787.468 274.51 723.099 394.184 700.278 324.583L664.717 246.469C640.766 192.057 583.283 115.88 544.961 246.469C506.638 377.059 471.11 352.29 458.137 323.581C420.214 228.777 357.541 71.6156 326.404 185.381C295.268 299.146 262.035 371.651 241.078 343.61C186.496 270.581 194.427 127.764 166.23 162.347C152.757 178.871 124.315 290.033 97.3694 313.066C75.8131 331.493 66.9312 272.173 68.9271 246.469" stroke="#361844"/>
<path d="M1018 240.739C976.085 176.98 874.533 68.3452 812.916 210.195C787.468 268.78 723.099 388.454 700.278 318.852L664.717 240.739C640.766 186.327 583.283 110.15 544.961 240.739C506.638 371.329 471.11 346.559 458.137 317.851C420.214 223.047 357.541 65.8853 326.404 179.65C295.268 293.416 262.035 365.921 241.078 337.88C186.496 264.85 194.427 122.034 166.23 156.617C152.757 173.141 124.315 284.302 97.3694 307.336C75.8131 325.763 66.9312 266.443 68.9271 240.739" stroke="#361844"/>
<path d="M1015.02 247.168C973.371 190.215 872.456 93.176 811.225 219.884C785.936 272.216 721.971 379.115 699.293 316.944L663.955 247.168C640.154 198.564 583.031 130.518 544.949 247.168C506.867 363.818 471.562 341.693 458.67 316.049C420.985 231.364 358.705 90.9787 327.763 192.6C296.822 294.222 263.797 358.988 242.971 333.94C188.732 268.706 196.613 141.134 168.593 172.025C155.205 186.786 126.941 286.081 100.164 306.656C78.7432 323.116 69.9169 270.129 71.9003 247.168" stroke="#361844"/>
<path d="M1015.02 244.968C973.371 193.03 872.456 104.535 811.225 220.087C785.936 267.81 721.971 365.297 699.293 308.6L663.955 244.968C640.154 200.644 583.031 138.589 544.949 244.968C506.867 351.348 471.562 331.17 458.67 307.784C420.985 230.556 358.705 102.531 327.763 195.205C296.822 287.879 263.797 346.942 242.971 324.1C188.732 264.609 196.613 148.27 168.593 176.442C155.205 189.902 126.941 280.455 100.164 299.218C78.7432 314.229 69.9169 265.907 71.9003 244.968" stroke="#361844"/>
<path d="M1018 243.902C976.217 196.262 874.983 115.091 813.559 221.079C788.191 264.854 724.023 354.273 701.274 302.268L665.825 243.902C641.949 203.246 584.645 146.327 546.443 243.902C508.241 341.477 472.825 322.97 459.892 301.519C422.088 230.682 359.611 113.253 328.572 198.257C297.533 283.261 264.405 337.437 243.513 316.485C189.102 261.918 197.009 155.206 168.9 181.047C155.469 193.393 127.116 276.452 100.255 293.662C78.7667 307.431 69.9126 263.108 71.9023 243.902" stroke="#361844"/>
<path d="M1015.02 244.561C973.371 201.577 872.456 128.34 811.225 223.969C785.936 263.464 721.971 344.143 699.293 297.221L663.955 244.561C640.154 207.878 583.031 156.523 544.949 244.561C506.867 332.598 471.562 315.9 458.67 296.546C420.985 232.633 358.705 126.682 327.763 203.377C296.822 280.073 263.797 328.953 242.971 310.049C188.732 260.815 196.613 164.534 168.593 187.849C155.205 198.989 126.941 273.929 100.164 289.457C78.7432 301.88 69.9169 261.889 71.9003 244.561" stroke="#361844"/>
<path d="M1015.02 246.339C973.371 206.579 872.456 138.835 811.225 227.292C785.936 263.825 721.971 338.453 699.293 295.05L663.955 246.339C640.154 212.408 583.031 164.904 544.949 246.339C506.867 327.774 471.562 312.328 458.67 294.426C420.985 235.306 358.705 137.301 327.763 208.245C296.822 279.188 263.797 324.402 242.971 306.916C188.732 261.375 196.613 172.315 168.593 193.881C155.205 204.185 126.941 273.505 100.164 287.869C78.7432 299.359 69.9169 262.368 71.9003 246.339" stroke="#361844"/>
<path d="M1015.02 245.273C973.371 209.811 872.456 149.39 811.225 228.284C785.936 260.868 721.971 327.428 699.293 288.718L663.955 245.273C640.154 215.009 583.031 172.641 544.949 245.273C506.867 317.904 471.562 304.128 458.67 288.161C420.985 235.432 358.705 148.022 327.763 211.296C296.822 274.57 263.797 314.896 242.971 299.3C188.732 258.683 196.613 179.251 168.593 198.485C155.205 207.676 126.941 269.501 100.164 282.312C78.7432 292.561 69.9169 259.569 71.9003 245.273" stroke="#361844"/>
<path d="M1015.02 245.352C973.371 214.189 872.456 161.092 811.225 230.423C785.936 259.057 721.971 317.549 699.293 283.531L663.955 245.352C640.154 218.757 583.031 181.524 544.949 245.352C506.867 309.179 471.562 297.073 458.67 283.041C420.985 236.704 358.705 159.89 327.763 215.494C296.822 271.098 263.797 306.536 242.971 292.831C188.732 257.136 196.613 187.333 168.593 204.236C155.205 212.312 126.941 266.644 100.164 277.902C78.7432 286.908 69.9169 257.915 71.9003 245.352" stroke="#361844"/>
<path d="M1015.02 246.577C973.371 219.713 872.456 173.939 811.225 233.708C785.936 258.392 721.971 308.817 699.293 279.49L663.955 246.577C640.154 223.651 583.031 191.554 544.949 246.577C506.867 301.601 471.562 291.165 458.67 279.068C420.985 239.123 358.705 172.903 327.763 220.838C296.822 268.773 263.797 299.322 242.971 287.508C188.732 256.737 196.613 196.561 168.593 211.133C155.205 218.095 126.941 264.933 100.164 274.638C78.7432 282.402 69.9169 257.408 71.9003 246.577" stroke="#361844"/>
<path d="M1018 246.09C976.217 223.882 874.983 186.043 813.559 235.451C788.191 255.857 724.023 297.541 701.274 273.298L665.825 246.09C641.949 227.138 584.645 200.604 546.443 246.09C508.241 291.576 472.825 282.949 459.892 272.949C422.088 239.928 359.611 185.186 328.572 224.812C297.533 264.438 264.405 289.693 243.513 279.926C189.102 254.488 197.009 204.743 168.9 216.789C155.469 222.545 127.116 261.264 100.255 269.287C78.7667 275.705 69.9126 255.043 71.9023 246.09" stroke="#361844"/>
<path d="M1015.02 247.289C973.239 227.947 872.006 194.99 810.582 238.023C785.214 255.796 721.046 292.101 698.297 270.986L662.848 247.289C638.971 230.782 581.668 207.672 543.466 247.289C505.264 286.906 469.848 279.392 456.915 270.683C419.111 241.922 356.634 194.244 325.595 228.757C294.556 263.27 261.428 285.266 240.536 276.759C186.125 254.604 194.031 211.277 165.922 221.769C152.492 226.782 124.139 260.505 97.2782 267.493C75.7895 273.083 66.9354 255.087 68.9251 247.289" stroke="#361844"/>
<path d="M1015.02 247.948C973.239 233.262 872.006 208.239 810.582 240.913C785.214 254.407 721.046 281.972 698.297 265.941L662.848 247.948C638.971 235.415 581.668 217.869 543.466 247.948C505.264 278.028 469.848 272.323 456.915 265.71C419.111 243.873 356.634 207.673 325.595 233.877C294.556 260.082 261.428 276.782 240.536 270.323C186.125 253.502 194.031 220.606 165.922 228.572C152.492 232.378 124.139 257.982 97.2782 263.288C75.7895 267.532 66.9354 253.869 68.9251 247.948" stroke="#361844"/>
<path d="M1018 248.027C975.954 237.64 874.084 219.941 812.274 243.051C786.745 252.596 722.174 272.093 699.282 260.754L663.61 248.027C639.584 239.162 581.92 226.752 543.478 248.027C505.035 269.303 469.396 265.268 456.382 260.591C418.34 245.145 355.471 219.54 324.236 238.075C293.002 256.61 259.665 268.422 238.642 263.854C183.889 251.956 191.845 228.688 163.56 234.322C150.045 237.014 121.513 255.125 94.4836 258.877C72.8598 261.88 63.95 252.215 65.9522 248.027" stroke="#361844"/>
</g>
</g>
<defs>
<filter id="filter0_f_242_25" x="5.56628" y="66.5" width="1027.87" height="345.5" filterUnits="userSpaceOnUse" color-interpolation-filters="sRGB">
<feFlood flood-opacity="0" result="BackgroundImageFix"/>
<feBlend mode="normal" in="SourceGraphic" in2="BackgroundImageFix" result="shape"/>
<feGaussianBlur stdDeviation="7.5" result="effect1_foregroundBlur_242_25"/>
</filter>
<filter id="filter1_f_242_25" x="182.007" y="0.200073" width="698.499" height="496.8" filterUnits="userSpaceOnUse" color-interpolation-filters="sRGB">
<feFlood flood-opacity="0" result="BackgroundImageFix"/>
<feBlend mode="normal" in="SourceGraphic" in2="BackgroundImageFix" result="shape"/>
<feGaussianBlur stdDeviation="50" result="effect1_foregroundBlur_242_25"/>
</filter>
<filter id="filter2_f_242_25" x="211.373" y="142.5" width="712.719" height="196.8" filterUnits="userSpaceOnUse" color-interpolation-filters="sRGB">
<feFlood flood-opacity="0" result="BackgroundImageFix"/>
<feBlend mode="normal" in="SourceGraphic" in2="BackgroundImageFix" result="shape"/>
<feGaussianBlur stdDeviation="1" result="effect1_foregroundBlur_242_25"/>
</filter>
<filter id="filter3_f_242_25" x="155.738" y="82.5001" width="821.622" height="274.801" filterUnits="userSpaceOnUse" color-interpolation-filters="sRGB">
<feFlood flood-opacity="0" result="BackgroundImageFix"/>
<feBlend mode="normal" in="SourceGraphic" in2="BackgroundImageFix" result="shape"/>
<feGaussianBlur stdDeviation="10" result="effect1_foregroundBlur_242_25"/>
</filter>
<filter id="filter4_f_242_25" x="0.566284" y="61.5" width="993.256" height="274.8" filterUnits="userSpaceOnUse" color-interpolation-filters="sRGB">
<feFlood flood-opacity="0" result="BackgroundImageFix"/>
<feBlend mode="normal" in="SourceGraphic" in2="BackgroundImageFix" result="shape"/>
<feGaussianBlur stdDeviation="10" result="effect1_foregroundBlur_242_25"/>
</filter>
<filter id="filter5_f_242_25" x="60.1775" y="124.1" width="963.256" height="244.8" filterUnits="userSpaceOnUse" color-interpolation-filters="sRGB">
<feFlood flood-opacity="0" result="BackgroundImageFix"/>
<feBlend mode="normal" in="SourceGraphic" in2="BackgroundImageFix" result="shape"/>
<feGaussianBlur stdDeviation="2.5" result="effect1_foregroundBlur_242_25"/>
</filter>
<linearGradient id="paint0_linear_242_25" x1="528.898" y1="98.8" x2="528.898" y2="381.6" gradientUnits="userSpaceOnUse">
<stop stop-color="#1B0C22"/>
<stop offset="1" stop-color="#B80F74" stop-opacity="0.05"/>
</linearGradient>
<linearGradient id="paint1_linear_242_25" x1="528.872" y1="108.6" x2="528.872" y2="374.6" gradientUnits="userSpaceOnUse">
<stop stop-color="#1B0C22"/>
<stop offset="1" stop-color="#B80F74" stop-opacity="0.05"/>
</linearGradient>
<linearGradient id="paint2_linear_242_25" x1="528.898" y1="121.2" x2="528.898" y2="369" gradientUnits="userSpaceOnUse">
<stop stop-color="#1B0C22"/>
<stop offset="1" stop-color="#B80F74" stop-opacity="0.05"/>
</linearGradient>
<linearGradient id="paint3_linear_242_25" x1="528.872" y1="115.6" x2="528.872" y2="364.8" gradientUnits="userSpaceOnUse">
<stop stop-color="#1B0C22"/>
<stop offset="1" stop-color="#B80F74" stop-opacity="0.05"/>
</linearGradient>
<linearGradient id="paint4_linear_242_25" x1="528.872" y1="108.6" x2="528.872" y2="357.8" gradientUnits="userSpaceOnUse">
<stop stop-color="#1B0C22"/>
<stop offset="1" stop-color="#B80F74" stop-opacity="0.05"/>
</linearGradient>
<linearGradient id="paint5_linear_242_25" x1="528.872" y1="129.6" x2="528.872" y2="352.2" gradientUnits="userSpaceOnUse">
<stop stop-color="#1B0C22"/>
<stop offset="1" stop-color="#B80F74" stop-opacity="0.05"/>
</linearGradient>
<linearGradient id="paint6_linear_242_25" x1="528.872" y1="136.6" x2="528.872" y2="339.6" gradientUnits="userSpaceOnUse">
<stop stop-color="#1B0C22"/>
<stop offset="1" stop-color="#B80F74" stop-opacity="0.05"/>
</linearGradient>
<linearGradient id="paint7_linear_242_25" x1="527.663" y1="143.6" x2="527.663" y2="329.8" gradientUnits="userSpaceOnUse">
<stop stop-color="#1B0C22"/>
<stop offset="1" stop-color="#B80F74" stop-opacity="0.05"/>
</linearGradient>
<linearGradient id="paint8_linear_242_25" x1="528.872" y1="153.4" x2="528.872" y2="321.4" gradientUnits="userSpaceOnUse">
<stop stop-color="#1B0C22"/>
<stop offset="1" stop-color="#B80F74" stop-opacity="0.05"/>
</linearGradient>
<linearGradient id="paint9_linear_242_25" x1="528.872" y1="161.8" x2="528.872" y2="317.2" gradientUnits="userSpaceOnUse">
<stop stop-color="#1B0C22"/>
<stop offset="1" stop-color="#B80F74" stop-opacity="0.05"/>
</linearGradient>
<linearGradient id="paint10_linear_242_25" x1="528.872" y1="168.8" x2="528.872" y2="307.4" gradientUnits="userSpaceOnUse">
<stop stop-color="#1B0C22"/>
<stop offset="1" stop-color="#B80F74" stop-opacity="0.05"/>
</linearGradient>
<linearGradient id="paint11_linear_242_25" x1="528.872" y1="177.2" x2="528.872" y2="299" gradientUnits="userSpaceOnUse">
<stop stop-color="#1B0C22"/>
<stop offset="1" stop-color="#B80F74" stop-opacity="0.05"/>
</linearGradient>
<linearGradient id="paint12_linear_242_25" x1="528.872" y1="187" x2="528.872" y2="292" gradientUnits="userSpaceOnUse">
<stop stop-color="#1B0C22"/>
<stop offset="1" stop-color="#B80F74" stop-opacity="0.05"/>
</linearGradient>
<linearGradient id="paint13_linear_242_25" x1="527.663" y1="195.4" x2="527.663" y2="282.2" gradientUnits="userSpaceOnUse">
<stop stop-color="#1B0C22"/>
<stop offset="1" stop-color="#B80F74" stop-opacity="0.05"/>
</linearGradient>
<linearGradient id="paint14_linear_242_25" x1="530.081" y1="202.4" x2="530.081" y2="278" gradientUnits="userSpaceOnUse">
<stop stop-color="#1B0C22"/>
<stop offset="1" stop-color="#B80F74" stop-opacity="0.05"/>
</linearGradient>
<linearGradient id="paint15_linear_242_25" x1="530.081" y1="212.2" x2="530.081" y2="269.6" gradientUnits="userSpaceOnUse">
<stop stop-color="#1B0C22"/>
<stop offset="1" stop-color="#B80F74" stop-opacity="0.05"/>
</linearGradient>
<linearGradient id="paint16_linear_242_25" x1="530.081" y1="220.6" x2="530.081" y2="261.2" gradientUnits="userSpaceOnUse">
<stop stop-color="#1B0C22"/>
<stop offset="1" stop-color="#B80F74" stop-opacity="0.05"/>
</linearGradient>
</defs>
</svg>
