<svg width="616" height="40" viewBox="0 0 616 40" fill="none" xmlns="http://www.w3.org/2000/svg">
<path d="M11.44 31.4C9.25333 31.4 7.16 31.0933 5.16 30.48C3.16 29.84 1.57333 29.0267 0.4 28.04L2.2 24C3.32 24.88 4.70667 25.6133 6.36 26.2C8.01333 26.7867 9.70667 27.08 11.44 27.08C12.9067 27.08 14.0933 26.92 15 26.6C15.9067 26.28 16.5733 25.8533 17 25.32C17.4267 24.76 17.64 24.1333 17.64 23.44C17.64 22.5867 17.3333 21.9067 16.72 21.4C16.1067 20.8667 15.3067 20.4533 14.32 20.16C13.36 19.84 12.28 19.5467 11.08 19.28C9.90667 19.0133 8.72 18.7067 7.52 18.36C6.34667 17.9867 5.26667 17.52 4.28 16.96C3.32 16.3733 2.53333 15.6 1.92 14.64C1.30667 13.68 1 12.4533 1 10.96C1 9.44 1.4 8.05333 2.2 6.8C3.02667 5.52 4.26667 4.50666 5.92 3.76C7.6 2.98666 9.72 2.6 12.28 2.6C13.96 2.6 15.6267 2.81333 17.28 3.24C18.9333 3.66667 20.3733 4.28 21.6 5.08L19.96 9.12C18.7067 8.37333 17.4133 7.82667 16.08 7.48C14.7467 7.10667 13.4667 6.92 12.24 6.92C10.8 6.92 9.62667 7.09333 8.72 7.44C7.84 7.78667 7.18667 8.24 6.76 8.8C6.36 9.36 6.16 10 6.16 10.72C6.16 11.5733 6.45333 12.2667 7.04 12.8C7.65333 13.3067 8.44 13.7067 9.4 14C10.3867 14.2933 11.48 14.5867 12.68 14.88C13.88 15.1467 15.0667 15.4533 16.24 15.8C17.44 16.1467 18.52 16.6 19.48 17.16C20.4667 17.72 21.2533 18.48 21.84 19.44C22.4533 20.4 22.76 21.6133 22.76 23.08C22.76 24.5733 22.3467 25.96 21.52 27.24C20.72 28.4933 19.48 29.5067 17.8 30.28C16.12 31.0267 14 31.4 11.44 31.4ZM37.0363 31.28C34.7962 31.28 32.7962 30.8133 31.0362 29.88C29.3029 28.92 27.9429 27.6133 26.9562 25.96C25.9696 24.3067 25.4762 22.4267 25.4762 20.32C25.4762 18.1867 25.9696 16.3067 26.9562 14.68C27.9429 13.0267 29.3029 11.7333 31.0362 10.8C32.7962 9.86667 34.7962 9.4 37.0363 9.4C39.1163 9.4 40.9429 9.82667 42.5162 10.68C44.1163 11.5067 45.3296 12.7333 46.1562 14.36L42.3163 16.6C41.6763 15.5867 40.8896 14.84 39.9562 14.36C39.0496 13.88 38.0629 13.64 36.9962 13.64C35.7696 13.64 34.6629 13.9067 33.6762 14.44C32.6896 14.9733 31.9162 15.7467 31.3562 16.76C30.7962 17.7467 30.5162 18.9333 30.5162 20.32C30.5162 21.7067 30.7962 22.9067 31.3562 23.92C31.9162 24.9067 32.6896 25.6667 33.6762 26.2C34.6629 26.7333 35.7696 27 36.9962 27C38.0629 27 39.0496 26.76 39.9562 26.28C40.8896 25.8 41.6763 25.0533 42.3163 24.04L46.1562 26.28C45.3296 27.88 44.1163 29.12 42.5162 30C40.9429 30.8533 39.1163 31.28 37.0363 31.28ZM50.0831 31V9.64H55.0831V31H50.0831ZM52.6031 6.12C51.6698 6.12 50.8965 5.82666 50.2831 5.24C49.6965 4.65333 49.4031 3.94667 49.4031 3.12C49.4031 2.26667 49.6965 1.56 50.2831 0.999998C50.8965 0.413332 51.6698 0.119999 52.6031 0.119999C53.5365 0.119999 54.2965 0.399999 54.8831 0.959998C55.4965 1.49333 55.8031 2.17333 55.8031 3C55.8031 3.88 55.5098 4.62666 54.9231 5.24C54.3365 5.82666 53.5631 6.12 52.6031 6.12ZM71.4856 31.28C69.1123 31.28 67.0323 30.8133 65.2456 29.88C63.4856 28.92 62.1123 27.6133 61.1256 25.96C60.1656 24.3067 59.6856 22.4267 59.6856 20.32C59.6856 18.1867 60.1523 16.3067 61.0856 14.68C62.0456 13.0267 63.3523 11.7333 65.0056 10.8C66.6856 9.86667 68.5923 9.4 70.7256 9.4C72.8056 9.4 74.659 9.85333 76.2856 10.76C77.9123 11.6667 79.1923 12.9467 80.1256 14.6C81.059 16.2533 81.5256 18.2 81.5256 20.44C81.5256 20.6533 81.5123 20.8933 81.4856 21.16C81.4856 21.4267 81.4723 21.68 81.4456 21.92H63.6456V18.6H78.8056L76.8456 19.64C76.8723 18.4133 76.619 17.3333 76.0856 16.4C75.5523 15.4667 74.819 14.7333 73.8856 14.2C72.979 13.6667 71.9256 13.4 70.7256 13.4C69.499 13.4 68.419 13.6667 67.4856 14.2C66.579 14.7333 65.859 15.48 65.3256 16.44C64.819 17.3733 64.5656 18.48 64.5656 19.76V20.56C64.5656 21.84 64.859 22.9733 65.4456 23.96C66.0323 24.9467 66.859 25.7067 67.9256 26.24C68.9923 26.7733 70.219 27.04 71.6056 27.04C72.8056 27.04 73.8856 26.8533 74.8456 26.48C75.8056 26.1067 76.659 25.52 77.4056 24.72L80.0856 27.8C79.1256 28.92 77.9123 29.7867 76.4456 30.4C75.0056 30.9867 73.3523 31.28 71.4856 31.28ZM98.2484 9.4C99.9551 9.4 101.475 9.73333 102.808 10.4C104.168 11.0667 105.235 12.0933 106.008 13.48C106.782 14.84 107.168 16.6 107.168 18.76V31H102.168V19.4C102.168 17.5067 101.715 16.0933 100.808 15.16C99.9284 14.2267 98.6884 13.76 97.0884 13.76C95.9151 13.76 94.8751 14 93.9684 14.48C93.0618 14.96 92.3551 15.68 91.8484 16.64C91.3684 17.5733 91.1284 18.76 91.1284 20.2V31H86.1284V9.64H90.8884V15.4L90.0484 13.64C90.7951 12.28 91.8751 11.24 93.2884 10.52C94.7284 9.77333 96.3818 9.4 98.2484 9.4ZM123.15 31.28C120.91 31.28 118.91 30.8133 117.15 29.88C115.417 28.92 114.057 27.6133 113.07 25.96C112.084 24.3067 111.59 22.4267 111.59 20.32C111.59 18.1867 112.084 16.3067 113.07 14.68C114.057 13.0267 115.417 11.7333 117.15 10.8C118.91 9.86667 120.91 9.4 123.15 9.4C125.23 9.4 127.057 9.82667 128.63 10.68C130.23 11.5067 131.444 12.7333 132.27 14.36L128.43 16.6C127.79 15.5867 127.004 14.84 126.07 14.36C125.164 13.88 124.177 13.64 123.11 13.64C121.884 13.64 120.777 13.9067 119.79 14.44C118.804 14.9733 118.03 15.7467 117.47 16.76C116.91 17.7467 116.63 18.9333 116.63 20.32C116.63 21.7067 116.91 22.9067 117.47 23.92C118.03 24.9067 118.804 25.6667 119.79 26.2C120.777 26.7333 121.884 27 123.11 27C124.177 27 125.164 26.76 126.07 26.28C127.004 25.8 127.79 25.0533 128.43 24.04L132.27 26.28C131.444 27.88 130.23 29.12 128.63 30C127.057 30.8533 125.23 31.28 123.15 31.28ZM146.12 31.28C143.747 31.28 141.667 30.8133 139.88 29.88C138.12 28.92 136.747 27.6133 135.76 25.96C134.8 24.3067 134.32 22.4267 134.32 20.32C134.32 18.1867 134.787 16.3067 135.72 14.68C136.68 13.0267 137.987 11.7333 139.64 10.8C141.32 9.86667 143.227 9.4 145.36 9.4C147.44 9.4 149.293 9.85333 150.92 10.76C152.547 11.6667 153.827 12.9467 154.76 14.6C155.693 16.2533 156.16 18.2 156.16 20.44C156.16 20.6533 156.147 20.8933 156.12 21.16C156.12 21.4267 156.107 21.68 156.08 21.92H138.28V18.6H153.44L151.48 19.64C151.507 18.4133 151.253 17.3333 150.72 16.4C150.187 15.4667 149.453 14.7333 148.52 14.2C147.613 13.6667 146.56 13.4 145.36 13.4C144.133 13.4 143.053 13.6667 142.12 14.2C141.213 14.7333 140.493 15.48 139.96 16.44C139.453 17.3733 139.2 18.48 139.2 19.76V20.56C139.2 21.84 139.493 22.9733 140.08 23.96C140.667 24.9467 141.493 25.7067 142.56 26.24C143.627 26.7733 144.853 27.04 146.24 27.04C147.44 27.04 148.52 26.8533 149.48 26.48C150.44 26.1067 151.293 25.52 152.04 24.72L154.72 27.8C153.76 28.92 152.547 29.7867 151.08 30.4C149.64 30.9867 147.987 31.28 146.12 31.28ZM180.177 31.4C178.231 31.4 176.484 31.08 174.937 30.44C173.391 29.8 172.177 28.92 171.297 27.8C170.417 26.68 169.977 25.3867 169.977 23.92C169.977 22.5867 170.271 21.3867 170.857 20.32C171.444 19.2533 172.377 18.24 173.657 17.28C174.937 16.2933 176.577 15.3067 178.577 14.32C180.151 13.5467 181.377 12.8667 182.257 12.28C183.164 11.6933 183.791 11.1333 184.137 10.6C184.511 10.0667 184.697 9.50667 184.697 8.92C184.697 8.12 184.417 7.48 183.857 7C183.297 6.49333 182.497 6.24 181.457 6.24C180.337 6.24 179.457 6.52 178.817 7.08C178.204 7.61333 177.897 8.32 177.897 9.2C177.897 9.65333 177.977 10.0933 178.137 10.52C178.324 10.9467 178.644 11.4267 179.097 11.96C179.551 12.4933 180.204 13.1733 181.057 14L195.857 28.2L193.097 31.44L177.097 16.08C176.191 15.2 175.457 14.3867 174.897 13.64C174.337 12.8933 173.937 12.1733 173.697 11.48C173.457 10.76 173.337 10.0267 173.337 9.28C173.337 7.97333 173.671 6.82667 174.337 5.84C175.004 4.82667 175.951 4.05333 177.177 3.52C178.404 2.96 179.831 2.68 181.457 2.68C182.977 2.68 184.284 2.93333 185.377 3.44C186.497 3.92 187.364 4.62667 187.977 5.56C188.617 6.46666 188.937 7.56 188.937 8.84C188.937 9.96 188.657 11 188.097 11.96C187.537 12.8933 186.657 13.7867 185.457 14.64C184.284 15.4933 182.711 16.3867 180.737 17.32C179.271 18.04 178.111 18.72 177.257 19.36C176.404 20 175.791 20.64 175.417 21.28C175.044 21.92 174.857 22.6267 174.857 23.4C174.857 24.1733 175.084 24.8533 175.537 25.44C176.017 26.0267 176.684 26.4933 177.537 26.84C178.391 27.16 179.391 27.32 180.537 27.32C182.244 27.32 183.791 26.9467 185.177 26.2C186.591 25.4267 187.777 24.28 188.737 22.76C189.697 21.24 190.391 19.36 190.817 17.12L194.857 18.44C194.297 21.1333 193.324 23.4533 191.937 25.4C190.577 27.32 188.897 28.8 186.897 29.84C184.897 30.88 182.657 31.4 180.177 31.4ZM216.674 31V7.4H207.394V3H231.154V7.4H221.874V31H216.674ZM242.229 31.28C239.856 31.28 237.776 30.8133 235.989 29.88C234.229 28.92 232.856 27.6133 231.869 25.96C230.909 24.3067 230.429 22.4267 230.429 20.32C230.429 18.1867 230.896 16.3067 231.829 14.68C232.789 13.0267 234.096 11.7333 235.749 10.8C237.429 9.86667 239.336 9.4 241.469 9.4C243.549 9.4 245.403 9.85333 247.029 10.76C248.656 11.6667 249.936 12.9467 250.869 14.6C251.803 16.2533 252.269 18.2 252.269 20.44C252.269 20.6533 252.256 20.8933 252.229 21.16C252.229 21.4267 252.216 21.68 252.189 21.92H234.389V18.6H249.549L247.589 19.64C247.616 18.4133 247.363 17.3333 246.829 16.4C246.296 15.4667 245.563 14.7333 244.629 14.2C243.723 13.6667 242.669 13.4 241.469 13.4C240.243 13.4 239.163 13.6667 238.229 14.2C237.323 14.7333 236.603 15.48 236.069 16.44C235.563 17.3733 235.309 18.48 235.309 19.76V20.56C235.309 21.84 235.603 22.9733 236.189 23.96C236.776 24.9467 237.603 25.7067 238.669 26.24C239.736 26.7733 240.963 27.04 242.349 27.04C243.549 27.04 244.629 26.8533 245.589 26.48C246.549 26.1067 247.403 25.52 248.149 24.72L250.829 27.8C249.869 28.92 248.656 29.7867 247.189 30.4C245.749 30.9867 244.096 31.28 242.229 31.28ZM266.672 31.28C264.432 31.28 262.432 30.8133 260.672 29.88C258.939 28.92 257.579 27.6133 256.592 25.96C255.606 24.3067 255.112 22.4267 255.112 20.32C255.112 18.1867 255.606 16.3067 256.592 14.68C257.579 13.0267 258.939 11.7333 260.672 10.8C262.432 9.86667 264.432 9.4 266.672 9.4C268.752 9.4 270.579 9.82667 272.152 10.68C273.752 11.5067 274.966 12.7333 275.792 14.36L271.952 16.6C271.312 15.5867 270.526 14.84 269.592 14.36C268.686 13.88 267.699 13.64 266.632 13.64C265.406 13.64 264.299 13.9067 263.312 14.44C262.326 14.9733 261.552 15.7467 260.992 16.76C260.432 17.7467 260.152 18.9333 260.152 20.32C260.152 21.7067 260.432 22.9067 260.992 23.92C261.552 24.9067 262.326 25.6667 263.312 26.2C264.299 26.7333 265.406 27 266.632 27C267.699 27 268.686 26.76 269.592 26.28C270.526 25.8 271.312 25.0533 271.952 24.04L275.792 26.28C274.966 27.88 273.752 29.12 272.152 30C270.579 30.8533 268.752 31.28 266.672 31.28ZM291.839 9.4C293.546 9.4 295.066 9.73333 296.399 10.4C297.759 11.0667 298.826 12.0933 299.599 13.48C300.372 14.84 300.759 16.6 300.759 18.76V31H295.759V19.4C295.759 17.5067 295.306 16.0933 294.399 15.16C293.519 14.2267 292.279 13.76 290.679 13.76C289.506 13.76 288.466 14 287.559 14.48C286.652 14.96 285.946 15.68 285.439 16.64C284.959 17.5733 284.719 18.76 284.719 20.2V31H279.719V1.32H284.719V15.4L283.639 13.64C284.386 12.28 285.466 11.24 286.879 10.52C288.319 9.77333 289.972 9.4 291.839 9.4ZM319.022 9.4C320.729 9.4 322.249 9.73333 323.582 10.4C324.942 11.0667 326.009 12.0933 326.782 13.48C327.555 14.84 327.942 16.6 327.942 18.76V31H322.942V19.4C322.942 17.5067 322.489 16.0933 321.582 15.16C320.702 14.2267 319.462 13.76 317.862 13.76C316.689 13.76 315.649 14 314.742 14.48C313.835 14.96 313.129 15.68 312.622 16.64C312.142 17.5733 311.902 18.76 311.902 20.2V31H306.902V9.64H311.662V15.4L310.822 13.64C311.569 12.28 312.649 11.24 314.062 10.52C315.502 9.77333 317.155 9.4 319.022 9.4ZM343.724 31.28C341.537 31.28 339.59 30.8133 337.884 29.88C336.177 28.92 334.83 27.6133 333.844 25.96C332.857 24.3067 332.364 22.4267 332.364 20.32C332.364 18.1867 332.857 16.3067 333.844 14.68C334.83 13.0267 336.177 11.7333 337.884 10.8C339.59 9.86667 341.537 9.4 343.724 9.4C345.937 9.4 347.897 9.86667 349.604 10.8C351.337 11.7333 352.684 13.0133 353.644 14.64C354.63 16.2667 355.124 18.16 355.124 20.32C355.124 22.4267 354.63 24.3067 353.644 25.96C352.684 27.6133 351.337 28.92 349.604 29.88C347.897 30.8133 345.937 31.28 343.724 31.28ZM343.724 27C344.95 27 346.044 26.7333 347.004 26.2C347.964 25.6667 348.71 24.8933 349.244 23.88C349.804 22.8667 350.084 21.68 350.084 20.32C350.084 18.9333 349.804 17.7467 349.244 16.76C348.71 15.7467 347.964 14.9733 347.004 14.44C346.044 13.9067 344.964 13.64 343.764 13.64C342.537 13.64 341.444 13.9067 340.484 14.44C339.55 14.9733 338.804 15.7467 338.244 16.76C337.684 17.7467 337.404 18.9333 337.404 20.32C337.404 21.68 337.684 22.8667 338.244 23.88C338.804 24.8933 339.55 25.6667 340.484 26.2C341.444 26.7333 342.524 27 343.724 27ZM359.705 31V1.32H364.705V31H359.705ZM380.668 31.28C378.481 31.28 376.534 30.8133 374.828 29.88C373.121 28.92 371.774 27.6133 370.788 25.96C369.801 24.3067 369.308 22.4267 369.308 20.32C369.308 18.1867 369.801 16.3067 370.788 14.68C371.774 13.0267 373.121 11.7333 374.828 10.8C376.534 9.86667 378.481 9.4 380.668 9.4C382.881 9.4 384.841 9.86667 386.548 10.8C388.281 11.7333 389.628 13.0133 390.588 14.64C391.574 16.2667 392.068 18.16 392.068 20.32C392.068 22.4267 391.574 24.3067 390.588 25.96C389.628 27.6133 388.281 28.92 386.548 29.88C384.841 30.8133 382.881 31.28 380.668 31.28ZM380.668 27C381.894 27 382.988 26.7333 383.948 26.2C384.908 25.6667 385.654 24.8933 386.188 23.88C386.748 22.8667 387.028 21.68 387.028 20.32C387.028 18.9333 386.748 17.7467 386.188 16.76C385.654 15.7467 384.908 14.9733 383.948 14.44C382.988 13.9067 381.908 13.64 380.708 13.64C379.481 13.64 378.388 13.9067 377.428 14.44C376.494 14.9733 375.748 15.7467 375.188 16.76C374.628 17.7467 374.348 18.9333 374.348 20.32C374.348 21.68 374.628 22.8667 375.188 23.88C375.748 24.8933 376.494 25.6667 377.428 26.2C378.388 26.7333 379.468 27 380.668 27ZM406.329 39.04C404.355 39.04 402.422 38.7733 400.529 38.24C398.662 37.7333 397.129 36.9867 395.929 36L398.169 32.24C399.102 33.0133 400.275 33.6267 401.689 34.08C403.129 34.56 404.582 34.8 406.049 34.8C408.395 34.8 410.115 34.2533 411.209 33.16C412.302 32.0933 412.849 30.48 412.849 28.32V24.52L413.249 19.68L413.089 14.84V9.64H417.849V27.76C417.849 31.6267 416.862 34.4667 414.889 36.28C412.915 38.12 410.062 39.04 406.329 39.04ZM405.689 30.04C403.662 30.04 401.822 29.6133 400.169 28.76C398.542 27.88 397.249 26.6667 396.289 25.12C395.355 23.5733 394.889 21.76 394.889 19.68C394.889 17.6267 395.355 15.8267 396.289 14.28C397.249 12.7333 398.542 11.5333 400.169 10.68C401.822 9.82667 403.662 9.4 405.689 9.4C407.502 9.4 409.129 9.76 410.569 10.48C412.009 11.2 413.155 12.32 414.009 13.84C414.889 15.36 415.329 17.3067 415.329 19.68C415.329 22.0533 414.889 24.0133 414.009 25.56C413.155 27.08 412.009 28.2133 410.569 28.96C409.129 29.68 407.502 30.04 405.689 30.04ZM406.449 25.8C407.702 25.8 408.822 25.5467 409.809 25.04C410.795 24.5067 411.555 23.7867 412.089 22.88C412.649 21.9467 412.929 20.88 412.929 19.68C412.929 18.48 412.649 17.4267 412.089 16.52C411.555 15.5867 410.795 14.88 409.809 14.4C408.822 13.8933 407.702 13.64 406.449 13.64C405.195 13.64 404.062 13.8933 403.049 14.4C402.062 14.88 401.289 15.5867 400.729 16.52C400.195 17.4267 399.929 18.48 399.929 19.68C399.929 20.88 400.195 21.9467 400.729 22.88C401.289 23.7867 402.062 24.5067 403.049 25.04C404.062 25.5467 405.195 25.8 406.449 25.8ZM425.982 39.04C424.942 39.04 423.902 38.8667 422.862 38.52C421.822 38.1733 420.956 37.6933 420.262 37.08L422.262 33.4C422.769 33.8533 423.342 34.2133 423.982 34.48C424.622 34.7467 425.276 34.88 425.942 34.88C426.849 34.88 427.582 34.6533 428.142 34.2C428.702 33.7467 429.222 32.9867 429.702 31.92L430.942 29.12L431.342 28.52L439.422 9.64H444.222L434.222 32.72C433.556 34.32 432.809 35.5867 431.982 36.52C431.182 37.4533 430.276 38.1067 429.262 38.48C428.276 38.8533 427.182 39.04 425.982 39.04ZM430.382 31.76L420.742 9.64H425.942L433.782 28.08L430.382 31.76ZM482.297 31.4C480.163 31.4 478.177 31.0533 476.337 30.36C474.523 29.64 472.937 28.64 471.577 27.36C470.243 26.0533 469.203 24.52 468.457 22.76C467.71 21 467.337 19.08 467.337 17C467.337 14.92 467.71 13 468.457 11.24C469.203 9.48 470.257 7.96 471.617 6.68C472.977 5.37333 474.563 4.37333 476.377 3.68C478.19 2.96 480.177 2.6 482.337 2.6C484.63 2.6 486.723 3 488.617 3.8C490.51 4.57333 492.11 5.73333 493.417 7.28L490.057 10.44C489.043 9.34667 487.91 8.53333 486.657 8C485.403 7.44 484.043 7.16 482.577 7.16C481.11 7.16 479.763 7.4 478.537 7.88C477.337 8.36 476.283 9.04 475.377 9.92C474.497 10.8 473.803 11.84 473.297 13.04C472.817 14.24 472.577 15.56 472.577 17C472.577 18.44 472.817 19.76 473.297 20.96C473.803 22.16 474.497 23.2 475.377 24.08C476.283 24.96 477.337 25.64 478.537 26.12C479.763 26.6 481.11 26.84 482.577 26.84C484.043 26.84 485.403 26.5733 486.657 26.04C487.91 25.48 489.043 24.64 490.057 23.52L493.417 26.72C492.11 28.24 490.51 29.4 488.617 30.2C486.723 31 484.617 31.4 482.297 31.4ZM506.499 31.28C504.312 31.28 502.365 30.8133 500.659 29.88C498.952 28.92 497.605 27.6133 496.619 25.96C495.632 24.3067 495.139 22.4267 495.139 20.32C495.139 18.1867 495.632 16.3067 496.619 14.68C497.605 13.0267 498.952 11.7333 500.659 10.8C502.365 9.86667 504.312 9.4 506.499 9.4C508.712 9.4 510.672 9.86667 512.379 10.8C514.112 11.7333 515.459 13.0133 516.419 14.64C517.405 16.2667 517.899 18.16 517.899 20.32C517.899 22.4267 517.405 24.3067 516.419 25.96C515.459 27.6133 514.112 28.92 512.379 29.88C510.672 30.8133 508.712 31.28 506.499 31.28ZM506.499 27C507.725 27 508.819 26.7333 509.779 26.2C510.739 25.6667 511.485 24.8933 512.019 23.88C512.579 22.8667 512.859 21.68 512.859 20.32C512.859 18.9333 512.579 17.7467 512.019 16.76C511.485 15.7467 510.739 14.9733 509.779 14.44C508.819 13.9067 507.739 13.64 506.539 13.64C505.312 13.64 504.219 13.9067 503.259 14.44C502.325 14.9733 501.579 15.7467 501.019 16.76C500.459 17.7467 500.179 18.9333 500.179 20.32C500.179 21.68 500.459 22.8667 501.019 23.88C501.579 24.8933 502.325 25.6667 503.259 26.2C504.219 26.7333 505.299 27 506.499 27ZM531.52 31.28C529.707 31.28 528.107 30.9467 526.72 30.28C525.333 29.5867 524.253 28.5467 523.48 27.16C522.707 25.7467 522.32 23.9733 522.32 21.84V9.64H527.32V21.16C527.32 23.08 527.747 24.52 528.6 25.48C529.48 26.4133 530.72 26.88 532.32 26.88C533.493 26.88 534.507 26.64 535.36 26.16C536.24 25.68 536.92 24.96 537.4 24C537.907 23.04 538.16 21.8533 538.16 20.44V9.64H543.16V31H538.4V25.24L539.24 27C538.52 28.3867 537.467 29.4533 536.08 30.2C534.693 30.92 533.173 31.28 531.52 31.28ZM561.627 9.4C563.333 9.4 564.853 9.73333 566.187 10.4C567.547 11.0667 568.613 12.0933 569.387 13.48C570.16 14.84 570.547 16.6 570.547 18.76V31H565.547V19.4C565.547 17.5067 565.093 16.0933 564.187 15.16C563.307 14.2267 562.067 13.76 560.467 13.76C559.293 13.76 558.253 14 557.347 14.48C556.44 14.96 555.733 15.68 555.227 16.64C554.747 17.5733 554.507 18.76 554.507 20.2V31H549.507V9.64H554.267V15.4L553.427 13.64C554.173 12.28 555.253 11.24 556.667 10.52C558.107 9.77333 559.76 9.4 561.627 9.4ZM586.528 31.28C584.288 31.28 582.288 30.8133 580.528 29.88C578.795 28.92 577.435 27.6133 576.448 25.96C575.462 24.3067 574.968 22.4267 574.968 20.32C574.968 18.1867 575.462 16.3067 576.448 14.68C577.435 13.0267 578.795 11.7333 580.528 10.8C582.288 9.86667 584.288 9.4 586.528 9.4C588.608 9.4 590.435 9.82667 592.008 10.68C593.608 11.5067 594.822 12.7333 595.648 14.36L591.808 16.6C591.168 15.5867 590.382 14.84 589.448 14.36C588.542 13.88 587.555 13.64 586.488 13.64C585.262 13.64 584.155 13.9067 583.168 14.44C582.182 14.9733 581.408 15.7467 580.848 16.76C580.288 17.7467 580.008 18.9333 580.008 20.32C580.008 21.7067 580.288 22.9067 580.848 23.92C581.408 24.9067 582.182 25.6667 583.168 26.2C584.155 26.7333 585.262 27 586.488 27C587.555 27 588.542 26.76 589.448 26.28C590.382 25.8 591.168 25.0533 591.808 24.04L595.648 26.28C594.822 27.88 593.608 29.12 592.008 30C590.435 30.8533 588.608 31.28 586.528 31.28ZM599.575 31V9.64H604.575V31H599.575ZM602.095 6.12C601.162 6.12 600.389 5.82666 599.775 5.24C599.189 4.65333 598.895 3.94667 598.895 3.12C598.895 2.26667 599.189 1.56 599.775 0.999998C600.389 0.413332 601.162 0.119999 602.095 0.119999C603.029 0.119999 603.789 0.399999 604.375 0.959998C604.989 1.49333 605.295 2.17333 605.295 3C605.295 3.88 605.002 4.62666 604.415 5.24C603.829 5.82666 603.055 6.12 602.095 6.12ZM610.938 31V1.32H615.938V31H610.938Z" fill="#F8F8F8"/>
</svg>
