<svg width="452" height="186" viewBox="0 0 452 186" fill="none" xmlns="http://www.w3.org/2000/svg">
<path d="M102.97 64.104H75.7222L71.3542 77H52.7382L79.1542 3.992H99.7462L126.162 77H107.338L102.97 64.104ZM98.3942 50.376L89.3462 23.648L80.4022 50.376H98.3942ZM151.986 27.184C153.65 24.48 156.042 22.296 159.162 20.632C162.282 18.968 165.853 18.136 169.874 18.136C174.658 18.136 178.991 19.3493 182.874 21.776C186.757 24.2027 189.807 27.6693 192.026 32.176C194.314 36.6827 195.458 41.9173 195.458 47.88C195.458 53.8427 194.314 59.112 192.026 63.688C189.807 68.1947 186.757 71.696 182.874 74.192C178.991 76.6187 174.658 77.832 169.874 77.832C165.783 77.832 162.213 77.0347 159.162 75.44C156.111 73.776 153.719 71.592 151.986 68.888V77H134.202V0.039999H151.986V27.184ZM177.362 47.88C177.362 43.4427 176.114 39.976 173.618 37.48C171.191 34.9147 168.175 33.632 164.57 33.632C161.034 33.632 158.018 34.9147 155.522 37.48C153.095 40.0453 151.882 43.5467 151.882 47.984C151.882 52.4213 153.095 55.9227 155.522 58.488C158.018 61.0533 161.034 62.336 164.57 62.336C168.106 62.336 171.122 61.0533 173.618 58.488C176.114 55.8533 177.362 52.3173 177.362 47.88ZM231.204 77.832C225.519 77.832 220.388 76.6187 215.812 74.192C211.305 71.7653 207.735 68.2987 205.1 63.792C202.535 59.2853 201.252 54.016 201.252 47.984C201.252 42.0213 202.569 36.7867 205.204 32.28C207.839 27.704 211.444 24.2027 216.02 21.776C220.596 19.3493 225.727 18.136 231.412 18.136C237.097 18.136 242.228 19.3493 246.804 21.776C251.38 24.2027 254.985 27.704 257.62 32.28C260.255 36.7867 261.572 42.0213 261.572 47.984C261.572 53.9467 260.22 59.216 257.516 63.792C254.881 68.2987 251.241 71.7653 246.596 74.192C242.02 76.6187 236.889 77.832 231.204 77.832ZM231.204 62.44C234.601 62.44 237.479 61.192 239.836 58.696C242.263 56.2 243.476 52.6293 243.476 47.984C243.476 43.3387 242.297 39.768 239.94 37.272C237.652 34.776 234.809 33.528 231.412 33.528C227.945 33.528 225.068 34.776 222.78 37.272C220.492 39.6987 219.348 43.2693 219.348 47.984C219.348 52.6293 220.457 56.2 222.676 58.696C224.964 61.192 227.807 62.44 231.204 62.44ZM328.311 18.968V77H310.527V69.096C308.724 71.6613 306.263 73.7413 303.143 75.336C300.092 76.8613 296.695 77.624 292.951 77.624C288.513 77.624 284.596 76.6533 281.199 74.712C277.801 72.7013 275.167 69.824 273.295 66.08C271.423 62.336 270.487 57.9333 270.487 52.872V18.968H288.167V50.48C288.167 54.3627 289.172 57.3787 291.183 59.528C293.193 61.6773 295.897 62.752 299.295 62.752C302.761 62.752 305.5 61.6773 307.511 59.528C309.521 57.3787 310.527 54.3627 310.527 50.48V18.968H328.311ZM373.429 61.92V77H364.381C357.933 77 352.906 75.44 349.301 72.32C345.695 69.1307 343.893 63.9653 343.893 56.824V33.736H336.821V18.968H343.893V4.824H361.677V18.968H373.325V33.736H361.677V57.032C361.677 58.7653 362.093 60.0133 362.925 60.776C363.757 61.5387 365.143 61.92 367.085 61.92H373.429ZM57.0266 111.992V126.24H37.6826V185H19.8986V126.24H0.554594V111.992H57.0266ZM120.656 155.048C120.656 156.712 120.552 158.445 120.344 160.248H80.0959C80.3732 163.853 81.5172 166.627 83.5279 168.568C85.6079 170.44 88.1386 171.376 91.1199 171.376C95.5572 171.376 98.6426 169.504 100.376 165.76H119.304C118.333 169.573 116.565 173.005 114 176.056C111.504 179.107 108.349 181.499 104.536 183.232C100.723 184.965 96.4586 185.832 91.7439 185.832C86.0586 185.832 80.9972 184.619 76.5599 182.192C72.1226 179.765 68.6559 176.299 66.1599 171.792C63.6639 167.285 62.4159 162.016 62.4159 155.984C62.4159 149.952 63.6292 144.683 66.0559 140.176C68.5519 135.669 72.0186 132.203 76.4559 129.776C80.8932 127.349 85.9892 126.136 91.7439 126.136C97.3599 126.136 102.352 127.315 106.72 129.672C111.088 132.029 114.485 135.392 116.912 139.76C119.408 144.128 120.656 149.224 120.656 155.048ZM102.456 150.368C102.456 147.317 101.416 144.891 99.3359 143.088C97.2559 141.285 94.6559 140.384 91.5359 140.384C88.5546 140.384 86.0239 141.251 83.9439 142.984C81.9332 144.717 80.6852 147.179 80.1999 150.368H102.456ZM126.502 155.984C126.502 149.952 127.715 144.683 130.142 140.176C132.638 135.669 136.07 132.203 140.438 129.776C144.875 127.349 149.937 126.136 155.622 126.136C162.902 126.136 168.969 128.043 173.822 131.856C178.745 135.669 181.969 141.043 183.494 147.976H164.566C162.971 143.539 159.886 141.32 155.31 141.32C152.051 141.32 149.451 142.603 147.51 145.168C145.569 147.664 144.598 151.269 144.598 155.984C144.598 160.699 145.569 164.339 147.51 166.904C149.451 169.4 152.051 170.648 155.31 170.648C159.886 170.648 162.971 168.429 164.566 163.992H183.494C181.969 170.787 178.745 176.125 173.822 180.008C168.899 183.891 162.833 185.832 155.622 185.832C149.937 185.832 144.875 184.619 140.438 182.192C136.07 179.765 132.638 176.299 130.142 171.792C127.715 167.285 126.502 162.016 126.502 155.984ZM228.679 126.344C235.335 126.344 240.673 128.563 244.695 133C248.716 137.368 250.727 143.4 250.727 151.096V185H233.047V153.488C233.047 149.605 232.041 146.589 230.031 144.44C228.02 142.291 225.316 141.216 221.919 141.216C218.521 141.216 215.817 142.291 213.807 144.44C211.796 146.589 210.791 149.605 210.791 153.488V185H193.007V108.04H210.791V134.768C212.593 132.203 215.055 130.157 218.175 128.632C221.295 127.107 224.796 126.344 228.679 126.344ZM298.445 126.344C305.239 126.344 310.647 128.563 314.669 133C318.759 137.368 320.805 143.4 320.805 151.096V185H303.125V153.488C303.125 149.605 302.119 146.589 300.109 144.44C298.098 142.291 295.394 141.216 291.997 141.216C288.599 141.216 285.895 142.291 283.885 144.44C281.874 146.589 280.869 149.605 280.869 153.488V185H263.085V126.968H280.869V134.664C282.671 132.099 285.098 130.088 288.149 128.632C291.199 127.107 294.631 126.344 298.445 126.344ZM387.867 155.048C387.867 156.712 387.763 158.445 387.555 160.248H347.307C347.584 163.853 348.728 166.627 350.739 168.568C352.819 170.44 355.35 171.376 358.331 171.376C362.768 171.376 365.854 169.504 367.587 165.76H386.515C385.544 169.573 383.776 173.005 381.211 176.056C378.715 179.107 375.56 181.499 371.747 183.232C367.934 184.965 363.67 185.832 358.955 185.832C353.27 185.832 348.208 184.619 343.771 182.192C339.334 179.765 335.867 176.299 333.371 171.792C330.875 167.285 329.627 162.016 329.627 155.984C329.627 149.952 330.84 144.683 333.267 140.176C335.763 135.669 339.23 132.203 343.667 129.776C348.104 127.349 353.2 126.136 358.955 126.136C364.571 126.136 369.563 127.315 373.931 129.672C378.299 132.029 381.696 135.392 384.123 139.76C386.619 144.128 387.867 149.224 387.867 155.048ZM369.667 150.368C369.667 147.317 368.627 144.891 366.547 143.088C364.467 141.285 361.867 140.384 358.747 140.384C355.766 140.384 353.235 141.251 351.155 142.984C349.144 144.717 347.896 147.179 347.411 150.368H369.667ZM431.569 185L420.441 168.88L411.081 185H391.841L410.977 155.36L391.321 126.968H411.289L422.417 142.984L431.777 126.968H451.017L431.569 156.192L451.537 185H431.569Z" fill="white"/>
</svg>
