<svg width="395" height="61" viewBox="0 0 395 61" fill="none" xmlns="http://www.w3.org/2000/svg">
<path d="M0.544069 60L25.5041 4H38.3041L63.3441 60H49.7441L29.2641 10.56H34.3841L13.8241 60H0.544069ZM13.0241 48L16.4641 38.16H45.2641L48.7841 48H13.0241ZM96.1141 60.64C92.3274 60.64 89.0741 59.84 86.3541 58.24C83.6341 56.64 81.5541 54.2133 80.1141 50.96C78.6741 47.6533 77.9541 43.4933 77.9541 38.48C77.9541 33.4133 78.7007 29.2533 80.1941 26C81.7407 22.7467 83.8741 20.32 86.5941 18.72C89.3141 17.12 92.4874 16.32 96.1141 16.32C100.167 16.32 103.794 17.2267 106.994 19.04C110.247 20.8533 112.807 23.4133 114.674 26.72C116.594 30.0267 117.554 33.9467 117.554 38.48C117.554 42.96 116.594 46.8533 114.674 50.16C112.807 53.4667 110.247 56.0533 106.994 57.92C103.794 59.7333 100.167 60.64 96.1141 60.64ZM70.6741 60V0.639997H83.1541V25.68L82.3541 38.4L82.5941 51.2V60H70.6741ZM93.9541 50.4C96.0341 50.4 97.8741 49.92 99.4741 48.96C101.127 48 102.434 46.64 103.394 44.88C104.407 43.0667 104.914 40.9333 104.914 38.48C104.914 35.9733 104.407 33.84 103.394 32.08C102.434 30.32 101.127 28.96 99.4741 28C97.8741 27.04 96.0341 26.56 93.9541 26.56C91.8741 26.56 90.0074 27.04 88.3541 28C86.7007 28.96 85.3941 30.32 84.4341 32.08C83.4741 33.84 82.9941 35.9733 82.9941 38.48C82.9941 40.9333 83.4741 43.0667 84.4341 44.88C85.3941 46.64 86.7007 48 88.3541 48.96C90.0074 49.92 91.8741 50.4 93.9541 50.4ZM148.788 60.64C144.202 60.64 140.122 59.68 136.548 57.76C133.028 55.84 130.228 53.2267 128.148 49.92C126.122 46.56 125.108 42.7467 125.108 38.48C125.108 34.16 126.122 30.3467 128.148 27.04C130.228 23.68 133.028 21.0667 136.548 19.2C140.122 17.28 144.202 16.32 148.788 16.32C153.322 16.32 157.375 17.28 160.948 19.2C164.522 21.0667 167.322 23.6533 169.348 26.96C171.375 30.2667 172.388 34.1067 172.388 38.48C172.388 42.7467 171.375 46.56 169.348 49.92C167.322 53.2267 164.522 55.84 160.948 57.76C157.375 59.68 153.322 60.64 148.788 60.64ZM148.788 50.4C150.868 50.4 152.735 49.92 154.388 48.96C156.042 48 157.348 46.64 158.308 44.88C159.268 43.0667 159.748 40.9333 159.748 38.48C159.748 35.9733 159.268 33.84 158.308 32.08C157.348 30.32 156.042 28.96 154.388 28C152.735 27.04 150.868 26.56 148.788 26.56C146.708 26.56 144.842 27.04 143.188 28C141.535 28.96 140.202 30.32 139.188 32.08C138.228 33.84 137.748 35.9733 137.748 38.48C137.748 40.9333 138.228 43.0667 139.188 44.88C140.202 46.64 141.535 48 143.188 48.96C144.842 49.92 146.708 50.4 148.788 50.4ZM201.29 60.64C197.717 60.64 194.517 59.9467 191.69 58.56C188.917 57.1733 186.757 55.0667 185.21 52.24C183.664 49.36 182.89 45.7067 182.89 41.28V16.96H195.37V39.44C195.37 43.0133 196.117 45.6533 197.61 47.36C199.157 49.0133 201.317 49.84 204.09 49.84C206.01 49.84 207.717 49.44 209.21 48.64C210.704 47.7867 211.877 46.5067 212.73 44.8C213.584 43.04 214.01 40.8533 214.01 38.24V16.96H226.49V60H214.65V48.16L216.81 51.6C215.37 54.5867 213.237 56.8533 210.41 58.4C207.637 59.8933 204.597 60.64 201.29 60.64ZM258.052 60.64C252.986 60.64 249.039 59.36 246.212 56.8C243.386 54.1867 241.972 50.32 241.972 45.2V7.44H254.452V45.04C254.452 46.8533 254.932 48.2667 255.892 49.28C256.852 50.24 258.159 50.72 259.812 50.72C261.786 50.72 263.466 50.1867 264.852 49.12L268.212 57.92C266.932 58.8267 265.386 59.52 263.572 60C261.812 60.4267 259.972 60.64 258.052 60.64ZM235.332 27.52V17.92H265.172V27.52H235.332ZM320.834 60.64C317.261 60.64 314.061 59.9467 311.234 58.56C308.461 57.1733 306.301 55.0667 304.754 52.24C303.207 49.36 302.434 45.7067 302.434 41.28V16.96H314.914V39.44C314.914 43.0133 315.661 45.6533 317.154 47.36C318.701 49.0133 320.861 49.84 323.634 49.84C325.554 49.84 327.261 49.44 328.754 48.64C330.247 47.7867 331.421 46.5067 332.274 44.8C333.127 43.04 333.554 40.8533 333.554 38.24V16.96H346.034V60H334.194V48.16L336.354 51.6C334.914 54.5867 332.781 56.8533 329.954 58.4C327.181 59.8933 324.141 60.64 320.834 60.64ZM374.476 60.64C370.796 60.64 367.249 60.2133 363.836 59.36C360.476 58.4533 357.809 57.3333 355.836 56L359.996 47.04C361.969 48.2667 364.289 49.28 366.956 50.08C369.676 50.8267 372.343 51.2 374.956 51.2C377.836 51.2 379.863 50.8533 381.036 50.16C382.263 49.4667 382.876 48.5067 382.876 47.28C382.876 46.2667 382.396 45.52 381.436 45.04C380.529 44.5067 379.303 44.1067 377.756 43.84C376.209 43.5733 374.503 43.3067 372.636 43.04C370.823 42.7733 368.983 42.4267 367.116 42C365.249 41.52 363.543 40.8267 361.996 39.92C360.449 39.0133 359.196 37.7867 358.236 36.24C357.329 34.6933 356.876 32.6933 356.876 30.24C356.876 27.52 357.649 25.12 359.196 23.04C360.796 20.96 363.089 19.3333 366.076 18.16C369.063 16.9333 372.636 16.32 376.796 16.32C379.729 16.32 382.716 16.64 385.756 17.28C388.796 17.92 391.329 18.8533 393.356 20.08L389.196 28.96C387.116 27.7333 385.009 26.9067 382.876 26.48C380.796 26 378.769 25.76 376.796 25.76C374.023 25.76 371.996 26.1333 370.716 26.88C369.436 27.6267 368.796 28.5867 368.796 29.76C368.796 30.8267 369.249 31.6267 370.156 32.16C371.116 32.6933 372.369 33.12 373.916 33.44C375.463 33.76 377.143 34.0533 378.956 34.32C380.823 34.5333 382.689 34.88 384.556 35.36C386.423 35.84 388.103 36.5333 389.596 37.44C391.143 38.2933 392.396 39.4933 393.356 41.04C394.316 42.5333 394.796 44.5067 394.796 46.96C394.796 49.6267 393.996 52 392.396 54.08C390.796 56.1067 388.476 57.7067 385.436 58.88C382.449 60.0533 378.796 60.64 374.476 60.64Z" fill="#8C50A6"/>
</svg>
