<svg width="631" height="213" viewBox="0 0 631 213" fill="none" xmlns="http://www.w3.org/2000/svg">
<path d="M16.32 3.06V6.45H10.74V24H6.54V6.45H0.96V3.06H16.32ZM28.7445 7.14C30.0045 7.14 31.1245 7.42 32.1045 7.98C33.0845 8.52 33.8445 9.33 34.3845 10.41C34.9445 11.47 35.2245 12.75 35.2245 14.25V24H31.0245V14.82C31.0245 13.5 30.6945 12.49 30.0345 11.79C29.3745 11.07 28.4745 10.71 27.3345 10.71C26.1745 10.71 25.2545 11.07 24.5745 11.79C23.9145 12.49 23.5845 13.5 23.5845 14.82V24H19.3845V1.8H23.5845V9.45C24.1245 8.73 24.8445 8.17 25.7445 7.77C26.6445 7.35 27.6445 7.14 28.7445 7.14ZM54.6684 15.33C54.6684 15.93 54.6284 16.47 54.5484 16.95H42.3984C42.4984 18.15 42.9184 19.09 43.6584 19.77C44.3984 20.45 45.3084 20.79 46.3884 20.79C47.9484 20.79 49.0584 20.12 49.7184 18.78H54.2484C53.7684 20.38 52.8484 21.7 51.4884 22.74C50.1284 23.76 48.4584 24.27 46.4784 24.27C44.8784 24.27 43.4384 23.92 42.1584 23.22C40.8984 22.5 39.9084 21.49 39.1884 20.19C38.4884 18.89 38.1384 17.39 38.1384 15.69C38.1384 13.97 38.4884 12.46 39.1884 11.16C39.8884 9.86 40.8684 8.86 42.1284 8.16C43.3884 7.46 44.8384 7.11 46.4784 7.11C48.0584 7.11 49.4684 7.45 50.7084 8.13C51.9684 8.81 52.9384 9.78 53.6184 11.04C54.3184 12.28 54.6684 13.71 54.6684 15.33ZM50.3184 14.13C50.2984 13.05 49.9084 12.19 49.1484 11.55C48.3884 10.89 47.4584 10.56 46.3584 10.56C45.3184 10.56 44.4384 10.88 43.7184 11.52C43.0184 12.14 42.5884 13.01 42.4284 14.13H50.3184ZM78.5762 24.21C77.1162 24.21 75.7962 23.96 74.6162 23.46C73.4562 22.96 72.5362 22.24 71.8562 21.3C71.1762 20.36 70.8262 19.25 70.8062 17.97H75.3062C75.3662 18.83 75.6662 19.51 76.2062 20.01C76.7662 20.51 77.5262 20.76 78.4862 20.76C79.4662 20.76 80.2362 20.53 80.7962 20.07C81.3562 19.59 81.6362 18.97 81.6362 18.21C81.6362 17.59 81.4462 17.08 81.0662 16.68C80.6862 16.28 80.2062 15.97 79.6262 15.75C79.0662 15.51 78.2862 15.25 77.2862 14.97C75.9262 14.57 74.8162 14.18 73.9562 13.8C73.1162 13.4 72.3862 12.81 71.7662 12.03C71.1662 11.23 70.8662 10.17 70.8662 8.85C70.8662 7.61 71.1762 6.53 71.7962 5.61C72.4162 4.69 73.2862 3.99 74.4062 3.51C75.5262 3.01 76.8062 2.76 78.2462 2.76C80.4062 2.76 82.1562 3.29 83.4962 4.35C84.8562 5.39 85.6062 6.85 85.7462 8.73H81.1262C81.0862 8.01 80.7762 7.42 80.1962 6.96C79.6362 6.48 78.8862 6.24 77.9462 6.24C77.1262 6.24 76.4662 6.45 75.9662 6.87C75.4862 7.29 75.2462 7.9 75.2462 8.7C75.2462 9.26 75.4262 9.73 75.7862 10.11C76.1662 10.47 76.6262 10.77 77.1662 11.01C77.7262 11.23 78.5062 11.49 79.5062 11.79C80.8662 12.19 81.9762 12.59 82.8362 12.99C83.6962 13.39 84.4362 13.99 85.0562 14.79C85.6762 15.59 85.9862 16.64 85.9862 17.94C85.9862 19.06 85.6962 20.1 85.1162 21.06C84.5362 22.02 83.6862 22.79 82.5662 23.37C81.4462 23.93 80.1162 24.21 78.5762 24.21ZM88.5474 15.69C88.5474 13.97 88.8974 12.47 89.5974 11.19C90.2974 9.89 91.2674 8.89 92.5074 8.19C93.7474 7.47 95.1674 7.11 96.7674 7.11C98.8274 7.11 100.527 7.63 101.867 8.67C103.227 9.69 104.137 11.13 104.597 12.99H100.067C99.8274 12.27 99.4174 11.71 98.8374 11.31C98.2774 10.89 97.5774 10.68 96.7374 10.68C95.5374 10.68 94.5874 11.12 93.8874 12C93.1874 12.86 92.8374 14.09 92.8374 15.69C92.8374 17.27 93.1874 18.5 93.8874 19.38C94.5874 20.24 95.5374 20.67 96.7374 20.67C98.4374 20.67 99.5474 19.91 100.067 18.39H104.597C104.137 20.19 103.227 21.62 101.867 22.68C100.507 23.74 98.8074 24.27 96.7674 24.27C95.1674 24.27 93.7474 23.92 92.5074 23.22C91.2674 22.5 90.2974 21.5 89.5974 20.22C88.8974 18.92 88.5474 17.41 88.5474 15.69ZM109.804 5.4C109.064 5.4 108.444 5.17 107.944 4.71C107.464 4.23 107.224 3.64 107.224 2.94C107.224 2.24 107.464 1.66 107.944 1.2C108.444 0.719999 109.064 0.479999 109.804 0.479999C110.544 0.479999 111.154 0.719999 111.634 1.2C112.134 1.66 112.384 2.24 112.384 2.94C112.384 3.64 112.134 4.23 111.634 4.71C111.154 5.17 110.544 5.4 109.804 5.4ZM111.874 7.38V24H107.674V7.38H111.874ZM131.474 15.33C131.474 15.93 131.434 16.47 131.354 16.95H119.204C119.304 18.15 119.724 19.09 120.464 19.77C121.204 20.45 122.114 20.79 123.194 20.79C124.754 20.79 125.864 20.12 126.524 18.78H131.054C130.574 20.38 129.654 21.7 128.294 22.74C126.934 23.76 125.264 24.27 123.284 24.27C121.684 24.27 120.244 23.92 118.964 23.22C117.704 22.5 116.714 21.49 115.994 20.19C115.294 18.89 114.944 17.39 114.944 15.69C114.944 13.97 115.294 12.46 115.994 11.16C116.694 9.86 117.674 8.86 118.934 8.16C120.194 7.46 121.644 7.11 123.284 7.11C124.864 7.11 126.274 7.45 127.514 8.13C128.774 8.81 129.744 9.78 130.424 11.04C131.124 12.28 131.474 13.71 131.474 15.33ZM127.124 14.13C127.104 13.05 126.714 12.19 125.954 11.55C125.194 10.89 124.264 10.56 123.164 10.56C122.124 10.56 121.244 10.88 120.524 11.52C119.824 12.14 119.394 13.01 119.234 14.13H127.124ZM143.75 7.14C145.73 7.14 147.33 7.77 148.55 9.03C149.77 10.27 150.38 12.01 150.38 14.25V24H146.18V14.82C146.18 13.5 145.85 12.49 145.19 11.79C144.53 11.07 143.63 10.71 142.49 10.71C141.33 10.71 140.41 11.07 139.73 11.79C139.07 12.49 138.74 13.5 138.74 14.82V24H134.54V7.38H138.74V9.45C139.3 8.73 140.01 8.17 140.87 7.77C141.75 7.35 142.71 7.14 143.75 7.14ZM153.294 15.69C153.294 13.97 153.644 12.47 154.344 11.19C155.044 9.89 156.014 8.89 157.254 8.19C158.494 7.47 159.914 7.11 161.514 7.11C163.574 7.11 165.274 7.63 166.614 8.67C167.974 9.69 168.884 11.13 169.344 12.99H164.814C164.574 12.27 164.164 11.71 163.584 11.31C163.024 10.89 162.324 10.68 161.484 10.68C160.284 10.68 159.334 11.12 158.634 12C157.934 12.86 157.584 14.09 157.584 15.69C157.584 17.27 157.934 18.5 158.634 19.38C159.334 20.24 160.284 20.67 161.484 20.67C163.184 20.67 164.294 19.91 164.814 18.39H169.344C168.884 20.19 167.974 21.62 166.614 22.68C165.254 23.74 163.554 24.27 161.514 24.27C159.914 24.27 158.494 23.92 157.254 23.22C156.014 22.5 155.044 21.5 154.344 20.22C153.644 18.92 153.294 17.41 153.294 15.69ZM187.87 15.33C187.87 15.93 187.83 16.47 187.75 16.95H175.6C175.7 18.15 176.12 19.09 176.86 19.77C177.6 20.45 178.51 20.79 179.59 20.79C181.15 20.79 182.26 20.12 182.92 18.78H187.45C186.97 20.38 186.05 21.7 184.69 22.74C183.33 23.76 181.66 24.27 179.68 24.27C178.08 24.27 176.64 23.92 175.36 23.22C174.1 22.5 173.11 21.49 172.39 20.19C171.69 18.89 171.34 17.39 171.34 15.69C171.34 13.97 171.69 12.46 172.39 11.16C173.09 9.86 174.07 8.86 175.33 8.16C176.59 7.46 178.04 7.11 179.68 7.11C181.26 7.11 182.67 7.45 183.91 8.13C185.17 8.81 186.14 9.78 186.82 11.04C187.52 12.28 187.87 13.71 187.87 15.33ZM183.52 14.13C183.5 13.05 183.11 12.19 182.35 11.55C181.59 10.89 180.66 10.56 179.56 10.56C178.52 10.56 177.64 10.88 176.92 11.52C176.22 12.14 175.79 13.01 175.63 14.13H183.52ZM203.468 15.63C203.468 13.95 203.798 12.46 204.458 11.16C205.138 9.86 206.048 8.86 207.188 8.16C208.348 7.46 209.638 7.11 211.058 7.11C212.298 7.11 213.378 7.36 214.298 7.86C215.238 8.36 215.988 8.99 216.548 9.75V7.38H220.778V24H216.548V21.57C216.008 22.35 215.258 23 214.298 23.52C213.358 24.02 212.268 24.27 211.028 24.27C209.628 24.27 208.348 23.91 207.188 23.19C206.048 22.47 205.138 21.46 204.458 20.16C203.798 18.84 203.468 17.33 203.468 15.63ZM216.548 15.69C216.548 14.67 216.348 13.8 215.948 13.08C215.548 12.34 215.008 11.78 214.328 11.4C213.648 11 212.918 10.8 212.138 10.8C211.358 10.8 210.638 10.99 209.978 11.37C209.318 11.75 208.778 12.31 208.358 13.05C207.958 13.77 207.758 14.63 207.758 15.63C207.758 16.63 207.958 17.51 208.358 18.27C208.778 19.01 209.318 19.58 209.978 19.98C210.658 20.38 211.378 20.58 212.138 20.58C212.918 20.58 213.648 20.39 214.328 20.01C215.008 19.61 215.548 19.05 215.948 18.33C216.348 17.59 216.548 16.71 216.548 15.69ZM234.09 7.14C236.07 7.14 237.67 7.77 238.89 9.03C240.11 10.27 240.72 12.01 240.72 14.25V24H236.52V14.82C236.52 13.5 236.19 12.49 235.53 11.79C234.87 11.07 233.97 10.71 232.83 10.71C231.67 10.71 230.75 11.07 230.07 11.79C229.41 12.49 229.08 13.5 229.08 14.82V24H224.88V7.38H229.08V9.45C229.64 8.73 230.35 8.17 231.21 7.77C232.09 7.35 233.05 7.14 234.09 7.14ZM243.634 15.63C243.634 13.95 243.964 12.46 244.624 11.16C245.304 9.86 246.224 8.86 247.384 8.16C248.544 7.46 249.834 7.11 251.254 7.11C252.334 7.11 253.364 7.35 254.344 7.83C255.324 8.29 256.104 8.91 256.684 9.69V1.8H260.944V24H256.684V21.54C256.164 22.36 255.434 23.02 254.494 23.52C253.554 24.02 252.464 24.27 251.224 24.27C249.824 24.27 248.544 23.91 247.384 23.19C246.224 22.47 245.304 21.46 244.624 20.16C243.964 18.84 243.634 17.33 243.634 15.63ZM256.714 15.69C256.714 14.67 256.514 13.8 256.114 13.08C255.714 12.34 255.174 11.78 254.494 11.4C253.814 11 253.084 10.8 252.304 10.8C251.524 10.8 250.804 10.99 250.144 11.37C249.484 11.75 248.944 12.31 248.524 13.05C248.124 13.77 247.924 14.63 247.924 15.63C247.924 16.63 248.124 17.51 248.524 18.27C248.944 19.01 249.484 19.58 250.144 19.98C250.824 20.38 251.544 20.58 252.304 20.58C253.084 20.58 253.814 20.39 254.494 20.01C255.174 19.61 255.714 19.05 256.114 18.33C256.514 17.59 256.714 16.71 256.714 15.69ZM292.908 3.06V6.45H287.328V24H283.128V6.45H277.548V3.06H292.908ZM311.423 15.33C311.423 15.93 311.383 16.47 311.303 16.95H299.153C299.253 18.15 299.673 19.09 300.413 19.77C301.153 20.45 302.063 20.79 303.143 20.79C304.703 20.79 305.813 20.12 306.473 18.78H311.003C310.523 20.38 309.603 21.7 308.243 22.74C306.883 23.76 305.213 24.27 303.233 24.27C301.633 24.27 300.193 23.92 298.913 23.22C297.653 22.5 296.663 21.49 295.943 20.19C295.243 18.89 294.893 17.39 294.893 15.69C294.893 13.97 295.243 12.46 295.943 11.16C296.643 9.86 297.623 8.86 298.883 8.16C300.143 7.46 301.593 7.11 303.233 7.11C304.813 7.11 306.223 7.45 307.463 8.13C308.723 8.81 309.693 9.78 310.373 11.04C311.073 12.28 311.423 13.71 311.423 15.33ZM307.073 14.13C307.053 13.05 306.663 12.19 305.903 11.55C305.143 10.89 304.213 10.56 303.113 10.56C302.073 10.56 301.193 10.88 300.473 11.52C299.773 12.14 299.343 13.01 299.183 14.13H307.073ZM313.408 15.69C313.408 13.97 313.758 12.47 314.458 11.19C315.158 9.89 316.128 8.89 317.368 8.19C318.608 7.47 320.028 7.11 321.628 7.11C323.688 7.11 325.388 7.63 326.728 8.67C328.088 9.69 328.998 11.13 329.458 12.99H324.928C324.688 12.27 324.278 11.71 323.698 11.31C323.138 10.89 322.438 10.68 321.598 10.68C320.398 10.68 319.448 11.12 318.748 12C318.048 12.86 317.698 14.09 317.698 15.69C317.698 17.27 318.048 18.5 318.748 19.38C319.448 20.24 320.398 20.67 321.598 20.67C323.298 20.67 324.408 19.91 324.928 18.39H329.458C328.998 20.19 328.088 21.62 326.728 22.68C325.368 23.74 323.668 24.27 321.628 24.27C320.028 24.27 318.608 23.92 317.368 23.22C316.128 22.5 315.158 21.5 314.458 20.22C313.758 18.92 313.408 17.41 313.408 15.69ZM341.895 7.14C343.155 7.14 344.275 7.42 345.255 7.98C346.235 8.52 346.995 9.33 347.535 10.41C348.095 11.47 348.375 12.75 348.375 14.25V24H344.175V14.82C344.175 13.5 343.845 12.49 343.185 11.79C342.525 11.07 341.625 10.71 340.485 10.71C339.325 10.71 338.405 11.07 337.725 11.79C337.065 12.49 336.735 13.5 336.735 14.82V24H332.535V1.8H336.735V9.45C337.275 8.73 337.995 8.17 338.895 7.77C339.795 7.35 340.795 7.14 341.895 7.14ZM361.579 7.14C363.559 7.14 365.159 7.77 366.379 9.03C367.599 10.27 368.209 12.01 368.209 14.25V24H364.009V14.82C364.009 13.5 363.679 12.49 363.019 11.79C362.359 11.07 361.459 10.71 360.319 10.71C359.159 10.71 358.239 11.07 357.559 11.79C356.899 12.49 356.569 13.5 356.569 14.82V24H352.369V7.38H356.569V9.45C357.129 8.73 357.839 8.17 358.699 7.77C359.579 7.35 360.539 7.14 361.579 7.14ZM379.583 24.27C377.983 24.27 376.543 23.92 375.263 23.22C373.983 22.5 372.973 21.49 372.233 20.19C371.513 18.89 371.153 17.39 371.153 15.69C371.153 13.99 371.523 12.49 372.263 11.19C373.023 9.89 374.053 8.89 375.353 8.19C376.653 7.47 378.103 7.11 379.703 7.11C381.303 7.11 382.753 7.47 384.053 8.19C385.353 8.89 386.373 9.89 387.113 11.19C387.873 12.49 388.253 13.99 388.253 15.69C388.253 17.39 387.863 18.89 387.083 20.19C386.323 21.49 385.283 22.5 383.963 23.22C382.663 23.92 381.203 24.27 379.583 24.27ZM379.583 20.61C380.343 20.61 381.053 20.43 381.713 20.07C382.393 19.69 382.933 19.13 383.333 18.39C383.733 17.65 383.933 16.75 383.933 15.69C383.933 14.11 383.513 12.9 382.673 12.06C381.853 11.2 380.843 10.77 379.643 10.77C378.443 10.77 377.433 11.2 376.613 12.06C375.813 12.9 375.413 14.11 375.413 15.69C375.413 17.27 375.803 18.49 376.583 19.35C377.383 20.19 378.383 20.61 379.583 20.61ZM395.534 1.8V24H391.334V1.8H395.534ZM407.064 24.27C405.464 24.27 404.024 23.92 402.744 23.22C401.464 22.5 400.454 21.49 399.714 20.19C398.994 18.89 398.634 17.39 398.634 15.69C398.634 13.99 399.004 12.49 399.744 11.19C400.504 9.89 401.534 8.89 402.834 8.19C404.134 7.47 405.584 7.11 407.184 7.11C408.784 7.11 410.234 7.47 411.534 8.19C412.834 8.89 413.854 9.89 414.594 11.19C415.354 12.49 415.734 13.99 415.734 15.69C415.734 17.39 415.344 18.89 414.564 20.19C413.804 21.49 412.764 22.5 411.444 23.22C410.144 23.92 408.684 24.27 407.064 24.27ZM407.064 20.61C407.824 20.61 408.534 20.43 409.194 20.07C409.874 19.69 410.414 19.13 410.814 18.39C411.214 17.65 411.414 16.75 411.414 15.69C411.414 14.11 410.994 12.9 410.154 12.06C409.334 11.2 408.324 10.77 407.124 10.77C405.924 10.77 404.914 11.2 404.094 12.06C403.294 12.9 402.894 14.11 402.894 15.69C402.894 17.27 403.284 18.49 404.064 19.35C404.864 20.19 405.864 20.61 407.064 20.61ZM425.325 7.11C426.565 7.11 427.655 7.36 428.595 7.86C429.535 8.34 430.275 8.97 430.815 9.75V7.38H435.045V24.12C435.045 25.66 434.735 27.03 434.115 28.23C433.495 29.45 432.565 30.41 431.325 31.11C430.085 31.83 428.585 32.19 426.825 32.19C424.465 32.19 422.525 31.64 421.005 30.54C419.505 29.44 418.655 27.94 418.455 26.04H422.625C422.845 26.8 423.315 27.4 424.035 27.84C424.775 28.3 425.665 28.53 426.705 28.53C427.925 28.53 428.915 28.16 429.675 27.42C430.435 26.7 430.815 25.6 430.815 24.12V21.54C430.275 22.32 429.525 22.97 428.565 23.49C427.625 24.01 426.545 24.27 425.325 24.27C423.925 24.27 422.645 23.91 421.485 23.19C420.325 22.47 419.405 21.46 418.725 20.16C418.065 18.84 417.735 17.33 417.735 15.63C417.735 13.95 418.065 12.46 418.725 11.16C419.405 9.86 420.315 8.86 421.455 8.16C422.615 7.46 423.905 7.11 425.325 7.11ZM430.815 15.69C430.815 14.67 430.615 13.8 430.215 13.08C429.815 12.34 429.275 11.78 428.595 11.4C427.915 11 427.185 10.8 426.405 10.8C425.625 10.8 424.905 10.99 424.245 11.37C423.585 11.75 423.045 12.31 422.625 13.05C422.225 13.77 422.025 14.63 422.025 15.63C422.025 16.63 422.225 17.51 422.625 18.27C423.045 19.01 423.585 19.58 424.245 19.98C424.925 20.38 425.645 20.58 426.405 20.58C427.185 20.58 427.915 20.39 428.595 20.01C429.275 19.61 429.815 19.05 430.215 18.33C430.615 17.59 430.815 16.71 430.815 15.69ZM455.047 7.38L444.757 31.86H440.287L443.887 23.58L437.227 7.38H441.937L446.227 18.99L450.577 7.38H455.047ZM469.903 13.5C469.903 11.44 470.363 9.6 471.283 7.98C472.223 6.34 473.493 5.07 475.093 4.17C476.713 3.25 478.523 2.79 480.523 2.79C482.863 2.79 484.913 3.39 486.673 4.59C488.433 5.79 489.663 7.45 490.363 9.57H485.533C485.053 8.57 484.373 7.82 483.493 7.32C482.633 6.82 481.633 6.57 480.493 6.57C479.273 6.57 478.183 6.86 477.223 7.44C476.283 8 475.543 8.8 475.003 9.84C474.483 10.88 474.223 12.1 474.223 13.5C474.223 14.88 474.483 16.1 475.003 17.16C475.543 18.2 476.283 19.01 477.223 19.59C478.183 20.15 479.273 20.43 480.493 20.43C481.633 20.43 482.633 20.18 483.493 19.68C484.373 19.16 485.053 18.4 485.533 17.4H490.363C489.663 19.54 488.433 21.21 486.673 22.41C484.933 23.59 482.883 24.18 480.523 24.18C478.523 24.18 476.713 23.73 475.093 22.83C473.493 21.91 472.223 20.64 471.283 19.02C470.363 17.4 469.903 15.56 469.903 13.5ZM501.33 24.27C499.73 24.27 498.29 23.92 497.01 23.22C495.73 22.5 494.72 21.49 493.98 20.19C493.26 18.89 492.9 17.39 492.9 15.69C492.9 13.99 493.27 12.49 494.01 11.19C494.77 9.89 495.8 8.89 497.1 8.19C498.4 7.47 499.85 7.11 501.45 7.11C503.05 7.11 504.5 7.47 505.8 8.19C507.1 8.89 508.12 9.89 508.86 11.19C509.62 12.49 510 13.99 510 15.69C510 17.39 509.61 18.89 508.83 20.19C508.07 21.49 507.03 22.5 505.71 23.22C504.41 23.92 502.95 24.27 501.33 24.27ZM501.33 20.61C502.09 20.61 502.8 20.43 503.46 20.07C504.14 19.69 504.68 19.13 505.08 18.39C505.48 17.65 505.68 16.75 505.68 15.69C505.68 14.11 505.26 12.9 504.42 12.06C503.6 11.2 502.59 10.77 501.39 10.77C500.19 10.77 499.18 11.2 498.36 12.06C497.56 12.9 497.16 14.11 497.16 15.69C497.16 17.27 497.55 18.49 498.33 19.35C499.13 20.19 500.13 20.61 501.33 20.61ZM528.771 7.38V24H524.541V21.9C524.001 22.62 523.291 23.19 522.411 23.61C521.551 24.01 520.611 24.21 519.591 24.21C518.291 24.21 517.141 23.94 516.141 23.4C515.141 22.84 514.351 22.03 513.771 20.97C513.211 19.89 512.931 18.61 512.931 17.13V7.38H517.131V16.53C517.131 17.85 517.461 18.87 518.121 19.59C518.781 20.29 519.681 20.64 520.821 20.64C521.981 20.64 522.891 20.29 523.551 19.59C524.211 18.87 524.541 17.85 524.541 16.53V7.38H528.771ZM542.125 7.14C544.105 7.14 545.705 7.77 546.925 9.03C548.145 10.27 548.755 12.01 548.755 14.25V24H544.555V14.82C544.555 13.5 544.225 12.49 543.565 11.79C542.905 11.07 542.005 10.71 540.865 10.71C539.705 10.71 538.785 11.07 538.105 11.79C537.445 12.49 537.115 13.5 537.115 14.82V24H532.915V7.38H537.115V9.45C537.675 8.73 538.385 8.17 539.245 7.77C540.125 7.35 541.085 7.14 542.125 7.14ZM551.669 15.69C551.669 13.97 552.019 12.47 552.719 11.19C553.419 9.89 554.389 8.89 555.629 8.19C556.869 7.47 558.289 7.11 559.889 7.11C561.949 7.11 563.649 7.63 564.989 8.67C566.349 9.69 567.259 11.13 567.719 12.99H563.189C562.949 12.27 562.539 11.71 561.959 11.31C561.399 10.89 560.699 10.68 559.859 10.68C558.659 10.68 557.709 11.12 557.009 12C556.309 12.86 555.959 14.09 555.959 15.69C555.959 17.27 556.309 18.5 557.009 19.38C557.709 20.24 558.659 20.67 559.859 20.67C561.559 20.67 562.669 19.91 563.189 18.39H567.719C567.259 20.19 566.349 21.62 564.989 22.68C563.629 23.74 561.929 24.27 559.889 24.27C558.289 24.27 556.869 23.92 555.629 23.22C554.389 22.5 553.419 21.5 552.719 20.22C552.019 18.92 551.669 17.41 551.669 15.69ZM572.926 5.4C572.186 5.4 571.566 5.17 571.066 4.71C570.586 4.23 570.346 3.64 570.346 2.94C570.346 2.24 570.586 1.66 571.066 1.2C571.566 0.719999 572.186 0.479999 572.926 0.479999C573.666 0.479999 574.276 0.719999 574.756 1.2C575.256 1.66 575.506 2.24 575.506 2.94C575.506 3.64 575.256 4.23 574.756 4.71C574.276 5.17 573.666 5.4 572.926 5.4ZM574.996 7.38V24H570.796V7.38H574.996ZM583.345 1.8V24H579.145V1.8H583.345ZM600.027 15.63C600.027 13.95 600.357 12.46 601.017 11.16C601.697 9.86 602.607 8.86 603.747 8.16C604.907 7.46 606.197 7.11 607.617 7.11C608.857 7.11 609.937 7.36 610.857 7.86C611.797 8.36 612.547 8.99 613.107 9.75V7.38H617.337V24H613.107V21.57C612.567 22.35 611.817 23 610.857 23.52C609.917 24.02 608.827 24.27 607.587 24.27C606.187 24.27 604.907 23.91 603.747 23.19C602.607 22.47 601.697 21.46 601.017 20.16C600.357 18.84 600.027 17.33 600.027 15.63ZM613.107 15.69C613.107 14.67 612.907 13.8 612.507 13.08C612.107 12.34 611.567 11.78 610.887 11.4C610.207 11 609.477 10.8 608.697 10.8C607.917 10.8 607.197 10.99 606.537 11.37C605.877 11.75 605.337 12.31 604.917 13.05C604.517 13.77 604.317 14.63 604.317 15.63C604.317 16.63 604.517 17.51 604.917 18.27C605.337 19.01 605.877 19.58 606.537 19.98C607.217 20.38 607.937 20.58 608.697 20.58C609.477 20.58 610.207 20.39 610.887 20.01C611.567 19.61 612.107 19.05 612.507 18.33C612.907 17.59 613.107 16.71 613.107 15.69ZM626.329 10.83V18.87C626.329 19.43 626.459 19.84 626.719 20.1C626.999 20.34 627.459 20.46 628.099 20.46H630.049V24H627.409C623.869 24 622.099 22.28 622.099 18.84V10.83H620.119V7.38H622.099V3.27H626.329V7.38H630.049V10.83H626.329ZM6.27 48.06V69H2.07V48.06H6.27ZM14.6196 48.06V69H10.4196V48.06H14.6196ZM33.0192 48.06V51.45H27.4392V69H23.2392V51.45H17.6592V48.06H33.0192ZM55.5522 58.26C56.7322 58.48 57.7022 59.07 58.4622 60.03C59.2222 60.99 59.6022 62.09 59.6022 63.33C59.6022 64.45 59.3222 65.44 58.7622 66.3C58.2222 67.14 57.4322 67.8 56.3922 68.28C55.3522 68.76 54.1222 69 52.7022 69H43.6722V48.06H52.3122C53.7322 48.06 54.9522 48.29 55.9722 48.75C57.0122 49.21 57.7922 49.85 58.3122 50.67C58.8522 51.49 59.1222 52.42 59.1222 53.46C59.1222 54.68 58.7922 55.7 58.1322 56.52C57.4922 57.34 56.6322 57.92 55.5522 58.26ZM47.8722 56.7H51.7122C52.7122 56.7 53.4822 56.48 54.0222 56.04C54.5622 55.58 54.8322 54.93 54.8322 54.09C54.8322 53.25 54.5622 52.6 54.0222 52.14C53.4822 51.68 52.7122 51.45 51.7122 51.45H47.8722V56.7ZM52.1022 65.58C53.1222 65.58 53.9122 65.34 54.4722 64.86C55.0522 64.38 55.3422 63.7 55.3422 62.82C55.3422 61.92 55.0422 61.22 54.4422 60.72C53.8422 60.2 53.0322 59.94 52.0122 59.94H47.8722V65.58H52.1022ZM80.3196 48.06V69H76.1196V60.09H67.1496V69H62.9496V48.06H67.1496V56.67H76.1196V48.06H80.3196ZM88.5935 48.06V61.02C88.5935 62.44 88.9635 63.53 89.7035 64.29C90.4435 65.03 91.4835 65.4 92.8235 65.4C94.1835 65.4 95.2335 65.03 95.9735 64.29C96.7135 63.53 97.0835 62.44 97.0835 61.02V48.06H101.313V60.99C101.313 62.77 100.923 64.28 100.143 65.52C99.3835 66.74 98.3535 67.66 97.0535 68.28C95.7735 68.9 94.3435 69.21 92.7635 69.21C91.2035 69.21 89.7835 68.9 88.5035 68.28C87.2435 67.66 86.2435 66.74 85.5035 65.52C84.7635 64.28 84.3935 62.77 84.3935 60.99V48.06H88.5935ZM115.09 50.4C114.35 50.4 113.73 50.17 113.23 49.71C112.75 49.23 112.51 48.64 112.51 47.94C112.51 47.24 112.75 46.66 113.23 46.2C113.73 45.72 114.35 45.48 115.09 45.48C115.83 45.48 116.44 45.72 116.92 46.2C117.42 46.66 117.67 47.24 117.67 47.94C117.67 48.64 117.42 49.23 116.92 49.71C116.44 50.17 115.83 50.4 115.09 50.4ZM117.16 52.38V69H112.96V52.38H117.16ZM127.67 69.27C126.31 69.27 125.09 69.03 124.01 68.55C122.93 68.05 122.07 67.38 121.43 66.54C120.81 65.7 120.47 64.77 120.41 63.75H124.64C124.72 64.39 125.03 64.92 125.57 65.34C126.13 65.76 126.82 65.97 127.64 65.97C128.44 65.97 129.06 65.81 129.5 65.49C129.96 65.17 130.19 64.76 130.19 64.26C130.19 63.72 129.91 63.32 129.35 63.06C128.81 62.78 127.94 62.48 126.74 62.16C125.5 61.86 124.48 61.55 123.68 61.23C122.9 60.91 122.22 60.42 121.64 59.76C121.08 59.1 120.8 58.21 120.8 57.09C120.8 56.17 121.06 55.33 121.58 54.57C122.12 53.81 122.88 53.21 123.86 52.77C124.86 52.33 126.03 52.11 127.37 52.11C129.35 52.11 130.93 52.61 132.11 53.61C133.29 54.59 133.94 55.92 134.06 57.6H130.04C129.98 56.94 129.7 56.42 129.2 56.04C128.72 55.64 128.07 55.44 127.25 55.44C126.49 55.44 125.9 55.58 125.48 55.86C125.08 56.14 124.88 56.53 124.88 57.03C124.88 57.59 125.16 58.02 125.72 58.32C126.28 58.6 127.15 58.89 128.33 59.19C129.53 59.49 130.52 59.8 131.3 60.12C132.08 60.44 132.75 60.94 133.31 61.62C133.89 62.28 134.19 63.16 134.21 64.26C134.21 65.22 133.94 66.08 133.4 66.84C132.88 67.6 132.12 68.2 131.12 68.64C130.14 69.06 128.99 69.27 127.67 69.27ZM144.166 60.63C144.166 58.95 144.496 57.46 145.156 56.16C145.836 54.86 146.746 53.86 147.886 53.16C149.046 52.46 150.336 52.11 151.756 52.11C152.996 52.11 154.076 52.36 154.996 52.86C155.936 53.36 156.686 53.99 157.246 54.75V52.38H161.476V69H157.246V66.57C156.706 67.35 155.956 68 154.996 68.52C154.056 69.02 152.966 69.27 151.726 69.27C150.326 69.27 149.046 68.91 147.886 68.19C146.746 67.47 145.836 66.46 145.156 65.16C144.496 63.84 144.166 62.33 144.166 60.63ZM157.246 60.69C157.246 59.67 157.046 58.8 156.646 58.08C156.246 57.34 155.706 56.78 155.026 56.4C154.346 56 153.616 55.8 152.836 55.8C152.056 55.8 151.336 55.99 150.676 56.37C150.016 56.75 149.476 57.31 149.056 58.05C148.656 58.77 148.456 59.63 148.456 60.63C148.456 61.63 148.656 62.51 149.056 63.27C149.476 64.01 150.016 64.58 150.676 64.98C151.356 65.38 152.076 65.58 152.836 65.58C153.616 65.58 154.346 65.39 155.026 65.01C155.706 64.61 156.246 64.05 156.646 63.33C157.046 62.59 157.246 61.71 157.246 60.69ZM179.526 69.27C178.166 69.27 176.946 69.03 175.866 68.55C174.786 68.05 173.926 67.38 173.286 66.54C172.666 65.7 172.326 64.77 172.266 63.75H176.496C176.576 64.39 176.886 64.92 177.426 65.34C177.986 65.76 178.676 65.97 179.496 65.97C180.296 65.97 180.916 65.81 181.356 65.49C181.816 65.17 182.046 64.76 182.046 64.26C182.046 63.72 181.766 63.32 181.206 63.06C180.666 62.78 179.796 62.48 178.596 62.16C177.356 61.86 176.336 61.55 175.536 61.23C174.756 60.91 174.076 60.42 173.496 59.76C172.936 59.1 172.656 58.21 172.656 57.09C172.656 56.17 172.916 55.33 173.436 54.57C173.976 53.81 174.736 53.21 175.716 52.77C176.716 52.33 177.886 52.11 179.226 52.11C181.206 52.11 182.786 52.61 183.966 53.61C185.146 54.59 185.796 55.92 185.916 57.6H181.896C181.836 56.94 181.556 56.42 181.056 56.04C180.576 55.64 179.926 55.44 179.106 55.44C178.346 55.44 177.756 55.58 177.336 55.86C176.936 56.14 176.736 56.53 176.736 57.03C176.736 57.59 177.016 58.02 177.576 58.32C178.136 58.6 179.006 58.89 180.186 59.19C181.386 59.49 182.376 59.8 183.156 60.12C183.936 60.44 184.606 60.94 185.166 61.62C185.746 62.28 186.046 63.16 186.066 64.26C186.066 65.22 185.796 66.08 185.256 66.84C184.736 67.6 183.976 68.2 182.976 68.64C181.996 69.06 180.846 69.27 179.526 69.27ZM194.404 55.83V63.87C194.404 64.43 194.534 64.84 194.794 65.1C195.074 65.34 195.534 65.46 196.174 65.46H198.124V69H195.484C191.944 69 190.174 67.28 190.174 63.84V55.83H188.194V52.38H190.174V48.27H194.404V52.38H198.124V55.83H194.404ZM216.835 52.38V69H212.605V66.9C212.065 67.62 211.355 68.19 210.475 68.61C209.615 69.01 208.675 69.21 207.655 69.21C206.355 69.21 205.205 68.94 204.205 68.4C203.205 67.84 202.415 67.03 201.835 65.97C201.275 64.89 200.995 63.61 200.995 62.13V52.38H205.195V61.53C205.195 62.85 205.525 63.87 206.185 64.59C206.845 65.29 207.745 65.64 208.885 65.64C210.045 65.64 210.955 65.29 211.615 64.59C212.275 63.87 212.605 62.85 212.605 61.53V52.38H216.835ZM219.899 60.63C219.899 58.95 220.229 57.46 220.889 56.16C221.569 54.86 222.489 53.86 223.649 53.16C224.809 52.46 226.099 52.11 227.519 52.11C228.599 52.11 229.629 52.35 230.609 52.83C231.589 53.29 232.369 53.91 232.949 54.69V46.8H237.209V69H232.949V66.54C232.429 67.36 231.699 68.02 230.759 68.52C229.819 69.02 228.729 69.27 227.489 69.27C226.089 69.27 224.809 68.91 223.649 68.19C222.489 67.47 221.569 66.46 220.889 65.16C220.229 63.84 219.899 62.33 219.899 60.63ZM232.979 60.69C232.979 59.67 232.779 58.8 232.379 58.08C231.979 57.34 231.439 56.78 230.759 56.4C230.079 56 229.349 55.8 228.569 55.8C227.789 55.8 227.069 55.99 226.409 56.37C225.749 56.75 225.209 57.31 224.789 58.05C224.389 58.77 224.189 59.63 224.189 60.63C224.189 61.63 224.389 62.51 224.789 63.27C225.209 64.01 225.749 64.58 226.409 64.98C227.089 65.38 227.809 65.58 228.569 65.58C229.349 65.58 230.079 65.39 230.759 65.01C231.439 64.61 231.979 64.05 232.379 63.33C232.779 62.59 232.979 61.71 232.979 60.69ZM256.761 60.33C256.761 60.93 256.721 61.47 256.641 61.95H244.491C244.591 63.15 245.011 64.09 245.751 64.77C246.491 65.45 247.401 65.79 248.481 65.79C250.041 65.79 251.151 65.12 251.811 63.78H256.341C255.861 65.38 254.941 66.7 253.581 67.74C252.221 68.76 250.551 69.27 248.571 69.27C246.971 69.27 245.531 68.92 244.251 68.22C242.991 67.5 242.001 66.49 241.281 65.19C240.581 63.89 240.231 62.39 240.231 60.69C240.231 58.97 240.581 57.46 241.281 56.16C241.981 54.86 242.961 53.86 244.221 53.16C245.481 52.46 246.931 52.11 248.571 52.11C250.151 52.11 251.561 52.45 252.801 53.13C254.061 53.81 255.031 54.78 255.711 56.04C256.411 57.28 256.761 58.71 256.761 60.33ZM252.411 59.13C252.391 58.05 252.001 57.19 251.241 56.55C250.481 55.89 249.551 55.56 248.451 55.56C247.411 55.56 246.531 55.88 245.811 56.52C245.111 57.14 244.681 58.01 244.521 59.13H252.411ZM269.037 52.14C271.017 52.14 272.617 52.77 273.837 54.03C275.057 55.27 275.667 57.01 275.667 59.25V69H271.467V59.82C271.467 58.5 271.137 57.49 270.477 56.79C269.817 56.07 268.917 55.71 267.777 55.71C266.617 55.71 265.697 56.07 265.017 56.79C264.357 57.49 264.027 58.5 264.027 59.82V69H259.827V52.38H264.027V54.45C264.587 53.73 265.297 53.17 266.157 52.77C267.037 52.35 267.997 52.14 269.037 52.14ZM284.55 55.83V63.87C284.55 64.43 284.68 64.84 284.94 65.1C285.22 65.34 285.68 65.46 286.32 65.46H288.27V69H285.63C282.09 69 280.32 67.28 280.32 63.84V55.83H278.34V52.38H280.32V48.27H284.55V52.38H288.27V55.83H284.55ZM304.071 56.52V60.06H291.351V56.52H304.071ZM312.982 54.96C313.522 54.08 314.222 53.39 315.082 52.89C315.962 52.39 316.962 52.14 318.082 52.14V56.55H316.972C315.652 56.55 314.652 56.86 313.972 57.48C313.312 58.1 312.982 59.18 312.982 60.72V69H308.782V52.38H312.982V54.96ZM336.6 52.38V69H332.37V66.9C331.83 67.62 331.12 68.19 330.24 68.61C329.38 69.01 328.44 69.21 327.42 69.21C326.12 69.21 324.97 68.94 323.97 68.4C322.97 67.84 322.18 67.03 321.6 65.97C321.04 64.89 320.76 63.61 320.76 62.13V52.38H324.96V61.53C324.96 62.85 325.29 63.87 325.95 64.59C326.61 65.29 327.51 65.64 328.65 65.64C329.81 65.64 330.72 65.29 331.38 64.59C332.04 63.87 332.37 62.85 332.37 61.53V52.38H336.6ZM349.954 52.14C351.934 52.14 353.534 52.77 354.754 54.03C355.974 55.27 356.584 57.01 356.584 59.25V69H352.384V59.82C352.384 58.5 352.054 57.49 351.394 56.79C350.734 56.07 349.834 55.71 348.694 55.71C347.534 55.71 346.614 56.07 345.934 56.79C345.274 57.49 344.944 58.5 344.944 59.82V69H340.744V52.38H344.944V54.45C345.504 53.73 346.214 53.17 347.074 52.77C347.954 52.35 348.914 52.14 349.954 52.14ZM375.547 69.27C373.947 69.27 372.507 68.92 371.227 68.22C369.947 67.5 368.937 66.49 368.197 65.19C367.477 63.89 367.117 62.39 367.117 60.69C367.117 58.99 367.487 57.49 368.227 56.19C368.987 54.89 370.017 53.89 371.317 53.19C372.617 52.47 374.067 52.11 375.667 52.11C377.267 52.11 378.717 52.47 380.017 53.19C381.317 53.89 382.337 54.89 383.077 56.19C383.837 57.49 384.217 58.99 384.217 60.69C384.217 62.39 383.827 63.89 383.047 65.19C382.287 66.49 381.247 67.5 379.927 68.22C378.627 68.92 377.167 69.27 375.547 69.27ZM375.547 65.61C376.307 65.61 377.017 65.43 377.677 65.07C378.357 64.69 378.897 64.13 379.297 63.39C379.697 62.65 379.897 61.75 379.897 60.69C379.897 59.11 379.477 57.9 378.637 57.06C377.817 56.2 376.807 55.77 375.607 55.77C374.407 55.77 373.397 56.2 372.577 57.06C371.777 57.9 371.377 59.11 371.377 60.69C371.377 62.27 371.767 63.49 372.547 64.35C373.347 65.19 374.347 65.61 375.547 65.61ZM391.498 54.96C392.038 54.08 392.738 53.39 393.598 52.89C394.478 52.39 395.478 52.14 396.598 52.14V56.55H395.488C394.168 56.55 393.168 56.86 392.488 57.48C391.828 58.1 391.498 59.18 391.498 60.72V69H387.298V52.38H391.498V54.96ZM405.937 52.11C407.177 52.11 408.267 52.36 409.207 52.86C410.147 53.34 410.887 53.97 411.427 54.75V52.38H415.657V69.12C415.657 70.66 415.347 72.03 414.727 73.23C414.107 74.45 413.177 75.41 411.937 76.11C410.697 76.83 409.197 77.19 407.437 77.19C405.077 77.19 403.137 76.64 401.617 75.54C400.117 74.44 399.267 72.94 399.067 71.04H403.237C403.457 71.8 403.927 72.4 404.647 72.84C405.387 73.3 406.277 73.53 407.317 73.53C408.537 73.53 409.527 73.16 410.287 72.42C411.047 71.7 411.427 70.6 411.427 69.12V66.54C410.887 67.32 410.137 67.97 409.177 68.49C408.237 69.01 407.157 69.27 405.937 69.27C404.537 69.27 403.257 68.91 402.097 68.19C400.937 67.47 400.017 66.46 399.337 65.16C398.677 63.84 398.347 62.33 398.347 60.63C398.347 58.95 398.677 57.46 399.337 56.16C400.017 54.86 400.927 53.86 402.067 53.16C403.227 52.46 404.517 52.11 405.937 52.11ZM411.427 60.69C411.427 59.67 411.227 58.8 410.827 58.08C410.427 57.34 409.887 56.78 409.207 56.4C408.527 56 407.797 55.8 407.017 55.8C406.237 55.8 405.517 55.99 404.857 56.37C404.197 56.75 403.657 57.31 403.237 58.05C402.837 58.77 402.637 59.63 402.637 60.63C402.637 61.63 402.837 62.51 403.237 63.27C403.657 64.01 404.197 64.58 404.857 64.98C405.537 65.38 406.257 65.58 407.017 65.58C407.797 65.58 408.527 65.39 409.207 65.01C409.887 64.61 410.427 64.05 410.827 63.33C411.227 62.59 411.427 61.71 411.427 60.69ZM418.679 60.63C418.679 58.95 419.009 57.46 419.669 56.16C420.349 54.86 421.259 53.86 422.399 53.16C423.559 52.46 424.849 52.11 426.269 52.11C427.509 52.11 428.589 52.36 429.509 52.86C430.449 53.36 431.199 53.99 431.759 54.75V52.38H435.989V69H431.759V66.57C431.219 67.35 430.469 68 429.509 68.52C428.569 69.02 427.479 69.27 426.239 69.27C424.839 69.27 423.559 68.91 422.399 68.19C421.259 67.47 420.349 66.46 419.669 65.16C419.009 63.84 418.679 62.33 418.679 60.63ZM431.759 60.69C431.759 59.67 431.559 58.8 431.159 58.08C430.759 57.34 430.219 56.78 429.539 56.4C428.859 56 428.129 55.8 427.349 55.8C426.569 55.8 425.849 55.99 425.189 56.37C424.529 56.75 423.989 57.31 423.569 58.05C423.169 58.77 422.969 59.63 422.969 60.63C422.969 61.63 423.169 62.51 423.569 63.27C423.989 64.01 424.529 64.58 425.189 64.98C425.869 65.38 426.589 65.58 427.349 65.58C428.129 65.58 428.859 65.39 429.539 65.01C430.219 64.61 430.759 64.05 431.159 63.33C431.559 62.59 431.759 61.71 431.759 60.69ZM449.301 52.14C451.281 52.14 452.881 52.77 454.101 54.03C455.321 55.27 455.931 57.01 455.931 59.25V69H451.731V59.82C451.731 58.5 451.401 57.49 450.741 56.79C450.081 56.07 449.181 55.71 448.041 55.71C446.881 55.71 445.961 56.07 445.281 56.79C444.621 57.49 444.291 58.5 444.291 59.82V69H440.091V52.38H444.291V54.45C444.851 53.73 445.561 53.17 446.421 52.77C447.301 52.35 448.261 52.14 449.301 52.14ZM462.055 50.4C461.315 50.4 460.695 50.17 460.195 49.71C459.715 49.23 459.475 48.64 459.475 47.94C459.475 47.24 459.715 46.66 460.195 46.2C460.695 45.72 461.315 45.48 462.055 45.48C462.795 45.48 463.405 45.72 463.885 46.2C464.385 46.66 464.635 47.24 464.635 47.94C464.635 48.64 464.385 49.23 463.885 49.71C463.405 50.17 462.795 50.4 462.055 50.4ZM464.125 52.38V69H459.925V52.38H464.125ZM472.114 65.55H479.524V69H467.344V65.61L474.604 55.83H467.374V52.38H479.434V55.77L472.114 65.55ZM481.696 60.63C481.696 58.95 482.026 57.46 482.686 56.16C483.366 54.86 484.276 53.86 485.416 53.16C486.576 52.46 487.866 52.11 489.286 52.11C490.526 52.11 491.606 52.36 492.526 52.86C493.466 53.36 494.216 53.99 494.776 54.75V52.38H499.006V69H494.776V66.57C494.236 67.35 493.486 68 492.526 68.52C491.586 69.02 490.496 69.27 489.256 69.27C487.856 69.27 486.576 68.91 485.416 68.19C484.276 67.47 483.366 66.46 482.686 65.16C482.026 63.84 481.696 62.33 481.696 60.63ZM494.776 60.69C494.776 59.67 494.576 58.8 494.176 58.08C493.776 57.34 493.236 56.78 492.556 56.4C491.876 56 491.146 55.8 490.366 55.8C489.586 55.8 488.866 55.99 488.206 56.37C487.546 56.75 487.006 57.31 486.586 58.05C486.186 58.77 485.986 59.63 485.986 60.63C485.986 61.63 486.186 62.51 486.586 63.27C487.006 64.01 487.546 64.58 488.206 64.98C488.886 65.38 489.606 65.58 490.366 65.58C491.146 65.58 491.876 65.39 492.556 65.01C493.236 64.61 493.776 64.05 494.176 63.33C494.576 62.59 494.776 61.71 494.776 60.69ZM507.998 55.83V63.87C507.998 64.43 508.128 64.84 508.388 65.1C508.668 65.34 509.128 65.46 509.768 65.46H511.718V69H509.078C505.538 69 503.768 67.28 503.768 63.84V55.83H501.788V52.38H503.768V48.27H507.998V52.38H511.718V55.83H507.998ZM516.869 50.4C516.129 50.4 515.509 50.17 515.009 49.71C514.529 49.23 514.289 48.64 514.289 47.94C514.289 47.24 514.529 46.66 515.009 46.2C515.509 45.72 516.129 45.48 516.869 45.48C517.609 45.48 518.219 45.72 518.699 46.2C519.199 46.66 519.449 47.24 519.449 47.94C519.449 48.64 519.199 49.23 518.699 49.71C518.219 50.17 517.609 50.4 516.869 50.4ZM518.939 52.38V69H514.739V52.38H518.939ZM530.469 69.27C528.869 69.27 527.429 68.92 526.149 68.22C524.869 67.5 523.859 66.49 523.119 65.19C522.399 63.89 522.039 62.39 522.039 60.69C522.039 58.99 522.409 57.49 523.149 56.19C523.909 54.89 524.939 53.89 526.239 53.19C527.539 52.47 528.989 52.11 530.589 52.11C532.189 52.11 533.639 52.47 534.939 53.19C536.239 53.89 537.259 54.89 537.999 56.19C538.759 57.49 539.139 58.99 539.139 60.69C539.139 62.39 538.749 63.89 537.969 65.19C537.209 66.49 536.169 67.5 534.849 68.22C533.549 68.92 532.089 69.27 530.469 69.27ZM530.469 65.61C531.229 65.61 531.939 65.43 532.599 65.07C533.279 64.69 533.819 64.13 534.219 63.39C534.619 62.65 534.819 61.75 534.819 60.69C534.819 59.11 534.399 57.9 533.559 57.06C532.739 56.2 531.729 55.77 530.529 55.77C529.329 55.77 528.319 56.2 527.499 57.06C526.699 57.9 526.299 59.11 526.299 60.69C526.299 62.27 526.689 63.49 527.469 64.35C528.269 65.19 529.269 65.61 530.469 65.61ZM551.43 52.14C553.41 52.14 555.01 52.77 556.23 54.03C557.45 55.27 558.06 57.01 558.06 59.25V69H553.86V59.82C553.86 58.5 553.53 57.49 552.87 56.79C552.21 56.07 551.31 55.71 550.17 55.71C549.01 55.71 548.09 56.07 547.41 56.79C546.75 57.49 546.42 58.5 546.42 59.82V69H542.22V52.38H546.42V54.45C546.98 53.73 547.69 53.17 548.55 52.77C549.43 52.35 550.39 52.14 551.43 52.14ZM574.532 55.83V63.87C574.532 64.43 574.662 64.84 574.922 65.1C575.202 65.34 575.662 65.46 576.302 65.46H578.252V69H575.612C572.072 69 570.302 67.28 570.302 63.84V55.83H568.322V52.38H570.302V48.27H574.532V52.38H578.252V55.83H574.532ZM590.633 52.14C591.893 52.14 593.013 52.42 593.993 52.98C594.973 53.52 595.733 54.33 596.273 55.41C596.833 56.47 597.113 57.75 597.113 59.25V69H592.913V59.82C592.913 58.5 592.583 57.49 591.923 56.79C591.263 56.07 590.363 55.71 589.223 55.71C588.063 55.71 587.143 56.07 586.463 56.79C585.803 57.49 585.473 58.5 585.473 59.82V69H581.273V46.8H585.473V54.45C586.013 53.73 586.733 53.17 587.633 52.77C588.533 52.35 589.533 52.14 590.633 52.14ZM600.027 60.63C600.027 58.95 600.357 57.46 601.017 56.16C601.697 54.86 602.607 53.86 603.747 53.16C604.907 52.46 606.197 52.11 607.617 52.11C608.857 52.11 609.937 52.36 610.857 52.86C611.797 53.36 612.547 53.99 613.107 54.75V52.38H617.337V69H613.107V66.57C612.567 67.35 611.817 68 610.857 68.52C609.917 69.02 608.827 69.27 607.587 69.27C606.187 69.27 604.907 68.91 603.747 68.19C602.607 67.47 601.697 66.46 601.017 65.16C600.357 63.84 600.027 62.33 600.027 60.63ZM613.107 60.69C613.107 59.67 612.907 58.8 612.507 58.08C612.107 57.34 611.567 56.78 610.887 56.4C610.207 56 609.477 55.8 608.697 55.8C607.917 55.8 607.197 55.99 606.537 56.37C605.877 56.75 605.337 57.31 604.917 58.05C604.517 58.77 604.317 59.63 604.317 60.63C604.317 61.63 604.517 62.51 604.917 63.27C605.337 64.01 605.877 64.58 606.537 64.98C607.217 65.38 607.937 65.58 608.697 65.58C609.477 65.58 610.207 65.39 610.887 65.01C611.567 64.61 612.107 64.05 612.507 63.33C612.907 62.59 613.107 61.71 613.107 60.69ZM626.329 55.83V63.87C626.329 64.43 626.459 64.84 626.719 65.1C626.999 65.34 627.459 65.46 628.099 65.46H630.049V69H627.409C623.869 69 622.099 67.28 622.099 63.84V55.83H620.119V52.38H622.099V48.27H626.329V52.38H630.049V55.83H626.329ZM0.99 105.63C0.99 103.95 1.32 102.46 1.98 101.16C2.66 99.86 3.57 98.86 4.71 98.16C5.87 97.46 7.16 97.11 8.58 97.11C9.82 97.11 10.9 97.36 11.82 97.86C12.76 98.36 13.51 98.99 14.07 99.75V97.38H18.3V114H14.07V111.57C13.53 112.35 12.78 113 11.82 113.52C10.88 114.02 9.79 114.27 8.55 114.27C7.15 114.27 5.87 113.91 4.71 113.19C3.57 112.47 2.66 111.46 1.98 110.16C1.32 108.84 0.99 107.33 0.99 105.63ZM14.07 105.69C14.07 104.67 13.87 103.8 13.47 103.08C13.07 102.34 12.53 101.78 11.85 101.4C11.17 101 10.44 100.8 9.66 100.8C8.88 100.8 8.16 100.99 7.5 101.37C6.84 101.75 6.3 102.31 5.88 103.05C5.48 103.77 5.28 104.63 5.28 105.63C5.28 106.63 5.48 107.51 5.88 108.27C6.3 109.01 6.84 109.58 7.5 109.98C8.18 110.38 8.9 110.58 9.66 110.58C10.44 110.58 11.17 110.39 11.85 110.01C12.53 109.61 13.07 109.05 13.47 108.33C13.87 107.59 14.07 106.71 14.07 105.69ZM24.532 95.4C23.792 95.4 23.172 95.17 22.672 94.71C22.192 94.23 21.952 93.64 21.952 92.94C21.952 92.24 22.192 91.66 22.672 91.2C23.172 90.72 23.792 90.48 24.532 90.48C25.272 90.48 25.882 90.72 26.362 91.2C26.862 91.66 27.112 92.24 27.112 92.94C27.112 93.64 26.862 94.23 26.362 94.71C25.882 95.17 25.272 95.4 24.532 95.4ZM26.602 97.38V114H22.402V97.38H26.602ZM51.3916 97.14C53.4316 97.14 55.0716 97.77 56.3116 99.03C57.5716 100.27 58.2016 102.01 58.2016 104.25V114H54.0016V104.82C54.0016 103.52 53.6716 102.53 53.0116 101.85C52.3516 101.15 51.4516 100.8 50.3116 100.8C49.1716 100.8 48.2616 101.15 47.5816 101.85C46.9216 102.53 46.5916 103.52 46.5916 104.82V114H42.3916V104.82C42.3916 103.52 42.0616 102.53 41.4016 101.85C40.7416 101.15 39.8416 100.8 38.7016 100.8C37.5416 100.8 36.6216 101.15 35.9416 101.85C35.2816 102.53 34.9516 103.52 34.9516 104.82V114H30.7516V97.38H34.9516V99.39C35.4916 98.69 36.1816 98.14 37.0216 97.74C37.8816 97.34 38.8216 97.14 39.8416 97.14C41.1416 97.14 42.3016 97.42 43.3216 97.98C44.3416 98.52 45.1316 99.3 45.6916 100.32C46.2316 99.36 47.0116 98.59 48.0316 98.01C49.0716 97.43 50.1916 97.14 51.3916 97.14ZM68.5472 114.27C67.1872 114.27 65.9672 114.03 64.8872 113.55C63.8072 113.05 62.9472 112.38 62.3072 111.54C61.6872 110.7 61.3472 109.77 61.2872 108.75H65.5172C65.5972 109.39 65.9072 109.92 66.4472 110.34C67.0072 110.76 67.6972 110.97 68.5172 110.97C69.3172 110.97 69.9372 110.81 70.3772 110.49C70.8372 110.17 71.0672 109.76 71.0672 109.26C71.0672 108.72 70.7872 108.32 70.2272 108.06C69.6872 107.78 68.8172 107.48 67.6172 107.16C66.3772 106.86 65.3572 106.55 64.5572 106.23C63.7772 105.91 63.0972 105.42 62.5172 104.76C61.9572 104.1 61.6772 103.21 61.6772 102.09C61.6772 101.17 61.9372 100.33 62.4572 99.57C62.9972 98.81 63.7572 98.21 64.7372 97.77C65.7372 97.33 66.9072 97.11 68.2472 97.11C70.2272 97.11 71.8072 97.61 72.9872 98.61C74.1672 99.59 74.8172 100.92 74.9372 102.6H70.9172C70.8572 101.94 70.5772 101.42 70.0772 101.04C69.5972 100.64 68.9472 100.44 68.1272 100.44C67.3672 100.44 66.7772 100.58 66.3572 100.86C65.9572 101.14 65.7572 101.53 65.7572 102.03C65.7572 102.59 66.0372 103.02 66.5972 103.32C67.1572 103.6 68.0272 103.89 69.2072 104.19C70.4072 104.49 71.3972 104.8 72.1772 105.12C72.9572 105.44 73.6272 105.94 74.1872 106.62C74.7672 107.28 75.0672 108.16 75.0872 109.26C75.0872 110.22 74.8172 111.08 74.2772 111.84C73.7572 112.6 72.9972 113.2 71.9972 113.64C71.0172 114.06 69.8672 114.27 68.5472 114.27ZM94.0955 100.83V108.87C94.0955 109.43 94.2255 109.84 94.4855 110.1C94.7655 110.34 95.2255 110.46 95.8655 110.46H97.8155V114H95.1755C91.6355 114 89.8655 112.28 89.8655 108.84V100.83H87.8855V97.38H89.8655V93.27H94.0955V97.38H97.8155V100.83H94.0955ZM108.216 114.27C106.616 114.27 105.176 113.92 103.896 113.22C102.616 112.5 101.606 111.49 100.866 110.19C100.146 108.89 99.7864 107.39 99.7864 105.69C99.7864 103.99 100.156 102.49 100.896 101.19C101.656 99.89 102.686 98.89 103.986 98.19C105.286 97.47 106.736 97.11 108.336 97.11C109.936 97.11 111.386 97.47 112.686 98.19C113.986 98.89 115.006 99.89 115.746 101.19C116.506 102.49 116.886 103.99 116.886 105.69C116.886 107.39 116.496 108.89 115.716 110.19C114.956 111.49 113.916 112.5 112.596 113.22C111.296 113.92 109.836 114.27 108.216 114.27ZM108.216 110.61C108.976 110.61 109.686 110.43 110.346 110.07C111.026 109.69 111.566 109.13 111.966 108.39C112.366 107.65 112.566 106.75 112.566 105.69C112.566 104.11 112.146 102.9 111.306 102.06C110.486 101.2 109.476 100.77 108.276 100.77C107.076 100.77 106.066 101.2 105.246 102.06C104.446 102.9 104.046 104.11 104.046 105.69C104.046 107.27 104.436 108.49 105.216 109.35C106.016 110.19 107.016 110.61 108.216 110.61ZM134.838 99.78C135.378 99.02 136.118 98.39 137.058 97.89C138.018 97.37 139.108 97.11 140.328 97.11C141.748 97.11 143.028 97.46 144.168 98.16C145.328 98.86 146.238 99.86 146.898 101.16C147.578 102.44 147.918 103.93 147.918 105.63C147.918 107.33 147.578 108.84 146.898 110.16C146.238 111.46 145.328 112.47 144.168 113.19C143.028 113.91 141.748 114.27 140.328 114.27C139.108 114.27 138.028 114.02 137.088 113.52C136.168 113.02 135.418 112.39 134.838 111.63V121.92H130.638V97.38H134.838V99.78ZM143.628 105.63C143.628 104.63 143.418 103.77 142.998 103.05C142.598 102.31 142.058 101.75 141.378 101.37C140.718 100.99 139.998 100.8 139.218 100.8C138.458 100.8 137.738 101 137.058 101.4C136.398 101.78 135.858 102.34 135.438 103.08C135.038 103.82 134.838 104.69 134.838 105.69C134.838 106.69 135.038 107.56 135.438 108.3C135.858 109.04 136.398 109.61 137.058 110.01C137.738 110.39 138.458 110.58 139.218 110.58C139.998 110.58 140.718 110.38 141.378 109.98C142.058 109.58 142.598 109.01 142.998 108.27C143.418 107.53 143.628 106.65 143.628 105.63ZM155.17 99.96C155.71 99.08 156.41 98.39 157.27 97.89C158.15 97.39 159.15 97.14 160.27 97.14V101.55H159.16C157.84 101.55 156.84 101.86 156.16 102.48C155.5 103.1 155.17 104.18 155.17 105.72V114H150.97V97.38H155.17V99.96ZM170.479 114.27C168.879 114.27 167.439 113.92 166.159 113.22C164.879 112.5 163.869 111.49 163.129 110.19C162.409 108.89 162.049 107.39 162.049 105.69C162.049 103.99 162.419 102.49 163.159 101.19C163.919 99.89 164.949 98.89 166.249 98.19C167.549 97.47 168.999 97.11 170.599 97.11C172.199 97.11 173.649 97.47 174.949 98.19C176.249 98.89 177.269 99.89 178.009 101.19C178.769 102.49 179.149 103.99 179.149 105.69C179.149 107.39 178.759 108.89 177.979 110.19C177.219 111.49 176.179 112.5 174.859 113.22C173.559 113.92 172.099 114.27 170.479 114.27ZM170.479 110.61C171.239 110.61 171.949 110.43 172.609 110.07C173.289 109.69 173.829 109.13 174.229 108.39C174.629 107.65 174.829 106.75 174.829 105.69C174.829 104.11 174.409 102.9 173.569 102.06C172.749 101.2 171.739 100.77 170.539 100.77C169.339 100.77 168.329 101.2 167.509 102.06C166.709 102.9 166.309 104.11 166.309 105.69C166.309 107.27 166.699 108.49 167.479 109.35C168.279 110.19 169.279 110.61 170.479 110.61ZM202.87 97.14C204.91 97.14 206.55 97.77 207.79 99.03C209.05 100.27 209.68 102.01 209.68 104.25V114H205.48V104.82C205.48 103.52 205.15 102.53 204.49 101.85C203.83 101.15 202.93 100.8 201.79 100.8C200.65 100.8 199.74 101.15 199.06 101.85C198.4 102.53 198.07 103.52 198.07 104.82V114H193.87V104.82C193.87 103.52 193.54 102.53 192.88 101.85C192.22 101.15 191.32 100.8 190.18 100.8C189.02 100.8 188.1 101.15 187.42 101.85C186.76 102.53 186.43 103.52 186.43 104.82V114H182.23V97.38H186.43V99.39C186.97 98.69 187.66 98.14 188.5 97.74C189.36 97.34 190.3 97.14 191.32 97.14C192.62 97.14 193.78 97.42 194.8 97.98C195.82 98.52 196.61 99.3 197.17 100.32C197.71 99.36 198.49 98.59 199.51 98.01C200.55 97.43 201.67 97.14 202.87 97.14ZM221.045 114.27C219.445 114.27 218.005 113.92 216.725 113.22C215.445 112.5 214.435 111.49 213.695 110.19C212.975 108.89 212.615 107.39 212.615 105.69C212.615 103.99 212.985 102.49 213.725 101.19C214.485 99.89 215.515 98.89 216.815 98.19C218.115 97.47 219.565 97.11 221.165 97.11C222.765 97.11 224.215 97.47 225.515 98.19C226.815 98.89 227.835 99.89 228.575 101.19C229.335 102.49 229.715 103.99 229.715 105.69C229.715 107.39 229.325 108.89 228.545 110.19C227.785 111.49 226.745 112.5 225.425 113.22C224.125 113.92 222.665 114.27 221.045 114.27ZM221.045 110.61C221.805 110.61 222.515 110.43 223.175 110.07C223.855 109.69 224.395 109.13 224.795 108.39C225.195 107.65 225.395 106.75 225.395 105.69C225.395 104.11 224.975 102.9 224.135 102.06C223.315 101.2 222.305 100.77 221.105 100.77C219.905 100.77 218.895 101.2 218.075 102.06C217.275 102.9 216.875 104.11 216.875 105.69C216.875 107.27 217.265 108.49 218.045 109.35C218.845 110.19 219.845 110.61 221.045 110.61ZM237.686 100.83V108.87C237.686 109.43 237.816 109.84 238.076 110.1C238.356 110.34 238.816 110.46 239.456 110.46H241.406V114H238.766C235.226 114 233.456 112.28 233.456 108.84V100.83H231.476V97.38H233.456V93.27H237.686V97.38H241.406V100.83H237.686ZM259.877 105.33C259.877 105.93 259.837 106.47 259.757 106.95H247.607C247.707 108.15 248.127 109.09 248.867 109.77C249.607 110.45 250.517 110.79 251.597 110.79C253.157 110.79 254.267 110.12 254.927 108.78H259.457C258.977 110.38 258.057 111.7 256.697 112.74C255.337 113.76 253.667 114.27 251.687 114.27C250.087 114.27 248.647 113.92 247.367 113.22C246.107 112.5 245.117 111.49 244.397 110.19C243.697 108.89 243.347 107.39 243.347 105.69C243.347 103.97 243.697 102.46 244.397 101.16C245.097 99.86 246.077 98.86 247.337 98.16C248.597 97.46 250.047 97.11 251.687 97.11C253.267 97.11 254.677 97.45 255.917 98.13C257.177 98.81 258.147 99.78 258.827 101.04C259.527 102.28 259.877 103.71 259.877 105.33ZM255.527 104.13C255.507 103.05 255.117 102.19 254.357 101.55C253.597 100.89 252.667 100.56 251.567 100.56C250.527 100.56 249.647 100.88 248.927 101.52C248.227 102.14 247.797 103.01 247.637 104.13H255.527ZM278.503 100.83V108.87C278.503 109.43 278.633 109.84 278.893 110.1C279.173 110.34 279.633 110.46 280.273 110.46H282.223V114H279.583C276.043 114 274.273 112.28 274.273 108.84V100.83H272.293V97.38H274.273V93.27H278.503V97.38H282.223V100.83H278.503ZM294.604 97.14C295.864 97.14 296.984 97.42 297.964 97.98C298.944 98.52 299.704 99.33 300.244 100.41C300.804 101.47 301.084 102.75 301.084 104.25V114H296.884V104.82C296.884 103.5 296.554 102.49 295.894 101.79C295.234 101.07 294.334 100.71 293.194 100.71C292.034 100.71 291.114 101.07 290.434 101.79C289.774 102.49 289.444 103.5 289.444 104.82V114H285.244V91.8H289.444V99.45C289.984 98.73 290.704 98.17 291.604 97.77C292.504 97.35 293.504 97.14 294.604 97.14ZM320.528 105.33C320.528 105.93 320.488 106.47 320.408 106.95H308.258C308.358 108.15 308.778 109.09 309.518 109.77C310.258 110.45 311.168 110.79 312.248 110.79C313.808 110.79 314.918 110.12 315.578 108.78H320.108C319.628 110.38 318.708 111.7 317.348 112.74C315.988 113.76 314.318 114.27 312.338 114.27C310.738 114.27 309.298 113.92 308.018 113.22C306.758 112.5 305.768 111.49 305.048 110.19C304.348 108.89 303.998 107.39 303.998 105.69C303.998 103.97 304.348 102.46 305.048 101.16C305.748 99.86 306.728 98.86 307.988 98.16C309.248 97.46 310.698 97.11 312.338 97.11C313.918 97.11 315.328 97.45 316.568 98.13C317.828 98.81 318.798 99.78 319.478 101.04C320.178 102.28 320.528 103.71 320.528 105.33ZM316.178 104.13C316.158 103.05 315.768 102.19 315.008 101.55C314.248 100.89 313.318 100.56 312.218 100.56C311.178 100.56 310.298 100.88 309.578 101.52C308.878 102.14 308.448 103.01 308.288 104.13H316.178ZM349.955 97.38V114H345.725V111.9C345.185 112.62 344.475 113.19 343.595 113.61C342.735 114.01 341.795 114.21 340.775 114.21C339.475 114.21 338.325 113.94 337.325 113.4C336.325 112.84 335.535 112.03 334.955 110.97C334.395 109.89 334.115 108.61 334.115 107.13V97.38H338.315V106.53C338.315 107.85 338.645 108.87 339.305 109.59C339.965 110.29 340.865 110.64 342.005 110.64C343.165 110.64 344.075 110.29 344.735 109.59C345.395 108.87 345.725 107.85 345.725 106.53V97.38H349.955ZM363.309 97.14C365.289 97.14 366.889 97.77 368.109 99.03C369.329 100.27 369.939 102.01 369.939 104.25V114H365.739V104.82C365.739 103.5 365.409 102.49 364.749 101.79C364.089 101.07 363.189 100.71 362.049 100.71C360.889 100.71 359.969 101.07 359.289 101.79C358.629 102.49 358.299 103.5 358.299 104.82V114H354.099V97.38H358.299V99.45C358.859 98.73 359.569 98.17 360.429 97.77C361.309 97.35 362.269 97.14 363.309 97.14ZM372.852 105.63C372.852 103.95 373.182 102.46 373.842 101.16C374.522 99.86 375.442 98.86 376.602 98.16C377.762 97.46 379.052 97.11 380.472 97.11C381.552 97.11 382.582 97.35 383.562 97.83C384.542 98.29 385.322 98.91 385.902 99.69V91.8H390.162V114H385.902V111.54C385.382 112.36 384.652 113.02 383.712 113.52C382.772 114.02 381.682 114.27 380.442 114.27C379.042 114.27 377.762 113.91 376.602 113.19C375.442 112.47 374.522 111.46 373.842 110.16C373.182 108.84 372.852 107.33 372.852 105.63ZM385.932 105.69C385.932 104.67 385.732 103.8 385.332 103.08C384.932 102.34 384.392 101.78 383.712 101.4C383.032 101 382.302 100.8 381.522 100.8C380.742 100.8 380.022 100.99 379.362 101.37C378.702 101.75 378.162 102.31 377.742 103.05C377.342 103.77 377.142 104.63 377.142 105.63C377.142 106.63 377.342 107.51 377.742 108.27C378.162 109.01 378.702 109.58 379.362 109.98C380.042 110.38 380.762 110.58 381.522 110.58C382.302 110.58 383.032 110.39 383.712 110.01C384.392 109.61 384.932 109.05 385.332 108.33C385.732 107.59 385.932 106.71 385.932 105.69ZM409.715 105.33C409.715 105.93 409.675 106.47 409.595 106.95H397.445C397.545 108.15 397.965 109.09 398.705 109.77C399.445 110.45 400.355 110.79 401.435 110.79C402.995 110.79 404.105 110.12 404.765 108.78H409.295C408.815 110.38 407.895 111.7 406.535 112.74C405.175 113.76 403.505 114.27 401.525 114.27C399.925 114.27 398.485 113.92 397.205 113.22C395.945 112.5 394.955 111.49 394.235 110.19C393.535 108.89 393.185 107.39 393.185 105.69C393.185 103.97 393.535 102.46 394.235 101.16C394.935 99.86 395.915 98.86 397.175 98.16C398.435 97.46 399.885 97.11 401.525 97.11C403.105 97.11 404.515 97.45 405.755 98.13C407.015 98.81 407.985 99.78 408.665 101.04C409.365 102.28 409.715 103.71 409.715 105.33ZM405.365 104.13C405.345 103.05 404.955 102.19 404.195 101.55C403.435 100.89 402.505 100.56 401.405 100.56C400.365 100.56 399.485 100.88 398.765 101.52C398.065 102.14 397.635 103.01 397.475 104.13H405.365ZM416.98 99.96C417.52 99.08 418.22 98.39 419.08 97.89C419.96 97.39 420.96 97.14 422.08 97.14V101.55H420.97C419.65 101.55 418.65 101.86 417.97 102.48C417.31 103.1 416.98 104.18 416.98 105.72V114H412.78V97.38H416.98V99.96ZM431.269 114.27C429.909 114.27 428.689 114.03 427.609 113.55C426.529 113.05 425.669 112.38 425.029 111.54C424.409 110.7 424.069 109.77 424.009 108.75H428.239C428.319 109.39 428.629 109.92 429.169 110.34C429.729 110.76 430.419 110.97 431.239 110.97C432.039 110.97 432.659 110.81 433.099 110.49C433.559 110.17 433.789 109.76 433.789 109.26C433.789 108.72 433.509 108.32 432.949 108.06C432.409 107.78 431.539 107.48 430.339 107.16C429.099 106.86 428.079 106.55 427.279 106.23C426.499 105.91 425.819 105.42 425.239 104.76C424.679 104.1 424.399 103.21 424.399 102.09C424.399 101.17 424.659 100.33 425.179 99.57C425.719 98.81 426.479 98.21 427.459 97.77C428.459 97.33 429.629 97.11 430.969 97.11C432.949 97.11 434.529 97.61 435.709 98.61C436.889 99.59 437.539 100.92 437.659 102.6H433.639C433.579 101.94 433.299 101.42 432.799 101.04C432.319 100.64 431.669 100.44 430.849 100.44C430.089 100.44 429.499 100.58 429.079 100.86C428.679 101.14 428.479 101.53 428.479 102.03C428.479 102.59 428.759 103.02 429.319 103.32C429.879 103.6 430.749 103.89 431.929 104.19C433.129 104.49 434.119 104.8 434.899 105.12C435.679 105.44 436.349 105.94 436.909 106.62C437.489 107.28 437.789 108.16 437.809 109.26C437.809 110.22 437.539 111.08 436.999 111.84C436.479 112.6 435.719 113.2 434.719 113.64C433.739 114.06 432.589 114.27 431.269 114.27ZM446.147 100.83V108.87C446.147 109.43 446.277 109.84 446.537 110.1C446.817 110.34 447.277 110.46 447.917 110.46H449.867V114H447.227C443.687 114 441.917 112.28 441.917 108.84V100.83H439.937V97.38H441.917V93.27H446.147V97.38H449.867V100.83H446.147ZM451.808 105.63C451.808 103.95 452.138 102.46 452.798 101.16C453.478 99.86 454.388 98.86 455.528 98.16C456.688 97.46 457.978 97.11 459.398 97.11C460.638 97.11 461.718 97.36 462.638 97.86C463.578 98.36 464.328 98.99 464.888 99.75V97.38H469.118V114H464.888V111.57C464.348 112.35 463.598 113 462.638 113.52C461.698 114.02 460.608 114.27 459.368 114.27C457.968 114.27 456.688 113.91 455.528 113.19C454.388 112.47 453.478 111.46 452.798 110.16C452.138 108.84 451.808 107.33 451.808 105.63ZM464.888 105.69C464.888 104.67 464.688 103.8 464.288 103.08C463.888 102.34 463.348 101.78 462.668 101.4C461.988 101 461.258 100.8 460.478 100.8C459.698 100.8 458.978 100.99 458.318 101.37C457.658 101.75 457.118 102.31 456.698 103.05C456.298 103.77 456.098 104.63 456.098 105.63C456.098 106.63 456.298 107.51 456.698 108.27C457.118 109.01 457.658 109.58 458.318 109.98C458.998 110.38 459.718 110.58 460.478 110.58C461.258 110.58 461.988 110.39 462.668 110.01C463.348 109.61 463.888 109.05 464.288 108.33C464.688 107.59 464.888 106.71 464.888 105.69ZM482.43 97.14C484.41 97.14 486.01 97.77 487.23 99.03C488.45 100.27 489.06 102.01 489.06 104.25V114H484.86V104.82C484.86 103.5 484.53 102.49 483.87 101.79C483.21 101.07 482.31 100.71 481.17 100.71C480.01 100.71 479.09 101.07 478.41 101.79C477.75 102.49 477.42 103.5 477.42 104.82V114H473.22V97.38H477.42V99.45C477.98 98.73 478.69 98.17 479.55 97.77C480.43 97.35 481.39 97.14 482.43 97.14ZM491.974 105.63C491.974 103.95 492.304 102.46 492.964 101.16C493.644 99.86 494.564 98.86 495.724 98.16C496.884 97.46 498.174 97.11 499.594 97.11C500.674 97.11 501.704 97.35 502.684 97.83C503.664 98.29 504.444 98.91 505.024 99.69V91.8H509.284V114H505.024V111.54C504.504 112.36 503.774 113.02 502.834 113.52C501.894 114.02 500.804 114.27 499.564 114.27C498.164 114.27 496.884 113.91 495.724 113.19C494.564 112.47 493.644 111.46 492.964 110.16C492.304 108.84 491.974 107.33 491.974 105.63ZM505.054 105.69C505.054 104.67 504.854 103.8 504.454 103.08C504.054 102.34 503.514 101.78 502.834 101.4C502.154 101 501.424 100.8 500.644 100.8C499.864 100.8 499.144 100.99 498.484 101.37C497.824 101.75 497.284 102.31 496.864 103.05C496.464 103.77 496.264 104.63 496.264 105.63C496.264 106.63 496.464 107.51 496.864 108.27C497.284 109.01 497.824 109.58 498.484 109.98C499.164 110.38 499.884 110.58 500.644 110.58C501.424 110.58 502.154 110.39 502.834 110.01C503.514 109.61 504.054 109.05 504.454 108.33C504.854 107.59 505.054 106.71 505.054 105.69ZM515.516 95.4C514.776 95.4 514.156 95.17 513.656 94.71C513.176 94.23 512.936 93.64 512.936 92.94C512.936 92.24 513.176 91.66 513.656 91.2C514.156 90.72 514.776 90.48 515.516 90.48C516.256 90.48 516.866 90.72 517.346 91.2C517.846 91.66 518.096 92.24 518.096 92.94C518.096 93.64 517.846 94.23 517.346 94.71C516.866 95.17 516.256 95.4 515.516 95.4ZM517.586 97.38V114H513.386V97.38H517.586ZM530.945 97.14C532.925 97.14 534.525 97.77 535.745 99.03C536.965 100.27 537.575 102.01 537.575 104.25V114H533.375V104.82C533.375 103.5 533.045 102.49 532.385 101.79C531.725 101.07 530.825 100.71 529.685 100.71C528.525 100.71 527.605 101.07 526.925 101.79C526.265 102.49 525.935 103.5 525.935 104.82V114H521.735V97.38H525.935V99.45C526.495 98.73 527.205 98.17 528.065 97.77C528.945 97.35 529.905 97.14 530.945 97.14ZM548.079 97.11C549.319 97.11 550.409 97.36 551.349 97.86C552.289 98.34 553.029 98.97 553.569 99.75V97.38H557.799V114.12C557.799 115.66 557.489 117.03 556.869 118.23C556.249 119.45 555.319 120.41 554.079 121.11C552.839 121.83 551.339 122.19 549.579 122.19C547.219 122.19 545.279 121.64 543.759 120.54C542.259 119.44 541.409 117.94 541.209 116.04H545.379C545.599 116.8 546.069 117.4 546.789 117.84C547.529 118.3 548.419 118.53 549.459 118.53C550.679 118.53 551.669 118.16 552.429 117.42C553.189 116.7 553.569 115.6 553.569 114.12V111.54C553.029 112.32 552.279 112.97 551.319 113.49C550.379 114.01 549.299 114.27 548.079 114.27C546.679 114.27 545.399 113.91 544.239 113.19C543.079 112.47 542.159 111.46 541.479 110.16C540.819 108.84 540.489 107.33 540.489 105.63C540.489 103.95 540.819 102.46 541.479 101.16C542.159 99.86 543.069 98.86 544.209 98.16C545.369 97.46 546.659 97.11 548.079 97.11ZM553.569 105.69C553.569 104.67 553.369 103.8 552.969 103.08C552.569 102.34 552.029 101.78 551.349 101.4C550.669 101 549.939 100.8 549.159 100.8C548.379 100.8 547.659 100.99 546.999 101.37C546.339 101.75 545.799 102.31 545.379 103.05C544.979 103.77 544.779 104.63 544.779 105.63C544.779 106.63 544.979 107.51 545.379 108.27C545.799 109.01 546.339 109.58 546.999 109.98C547.679 110.38 548.399 110.58 549.159 110.58C549.939 110.58 550.669 110.39 551.349 110.01C552.029 109.61 552.569 109.05 552.969 108.33C553.369 107.59 553.569 106.71 553.569 105.69ZM571.492 105.63C571.492 103.95 571.822 102.46 572.482 101.16C573.162 99.86 574.072 98.86 575.212 98.16C576.372 97.46 577.662 97.11 579.082 97.11C580.322 97.11 581.402 97.36 582.322 97.86C583.262 98.36 584.012 98.99 584.572 99.75V97.38H588.802V114H584.572V111.57C584.032 112.35 583.282 113 582.322 113.52C581.382 114.02 580.292 114.27 579.052 114.27C577.652 114.27 576.372 113.91 575.212 113.19C574.072 112.47 573.162 111.46 572.482 110.16C571.822 108.84 571.492 107.33 571.492 105.63ZM584.572 105.69C584.572 104.67 584.372 103.8 583.972 103.08C583.572 102.34 583.032 101.78 582.352 101.4C581.672 101 580.942 100.8 580.162 100.8C579.382 100.8 578.662 100.99 578.002 101.37C577.342 101.75 576.802 102.31 576.382 103.05C575.982 103.77 575.782 104.63 575.782 105.63C575.782 106.63 575.982 107.51 576.382 108.27C576.802 109.01 577.342 109.58 578.002 109.98C578.682 110.38 579.402 110.58 580.162 110.58C580.942 110.58 581.672 110.39 582.352 110.01C583.032 109.61 583.572 109.05 583.972 108.33C584.372 107.59 584.572 106.71 584.572 105.69ZM602.114 97.14C604.094 97.14 605.694 97.77 606.914 99.03C608.134 100.27 608.744 102.01 608.744 104.25V114H604.544V104.82C604.544 103.5 604.214 102.49 603.554 101.79C602.894 101.07 601.994 100.71 600.854 100.71C599.694 100.71 598.774 101.07 598.094 101.79C597.434 102.49 597.104 103.5 597.104 104.82V114H592.904V97.38H597.104V99.45C597.664 98.73 598.374 98.17 599.234 97.77C600.114 97.35 601.074 97.14 602.114 97.14ZM611.658 105.63C611.658 103.95 611.988 102.46 612.648 101.16C613.328 99.86 614.248 98.86 615.408 98.16C616.568 97.46 617.858 97.11 619.278 97.11C620.358 97.11 621.388 97.35 622.368 97.83C623.348 98.29 624.128 98.91 624.708 99.69V91.8H628.968V114H624.708V111.54C624.188 112.36 623.458 113.02 622.518 113.52C621.578 114.02 620.488 114.27 619.248 114.27C617.848 114.27 616.568 113.91 615.408 113.19C614.248 112.47 613.328 111.46 612.648 110.16C611.988 108.84 611.658 107.33 611.658 105.63ZM624.738 105.69C624.738 104.67 624.538 103.8 624.138 103.08C623.738 102.34 623.198 101.78 622.518 101.4C621.838 101 621.108 100.8 620.328 100.8C619.548 100.8 618.828 100.99 618.168 101.37C617.508 101.75 616.968 102.31 616.548 103.05C616.148 103.77 615.948 104.63 615.948 105.63C615.948 106.63 616.148 107.51 616.548 108.27C616.968 109.01 617.508 109.58 618.168 109.98C618.848 110.38 619.568 110.58 620.328 110.58C621.108 110.58 621.838 110.39 622.518 110.01C623.198 109.61 623.738 109.05 624.138 108.33C624.538 107.59 624.738 106.71 624.738 105.69ZM0.99 150.63C0.99 148.95 1.32 147.46 1.98 146.16C2.66 144.86 3.57 143.86 4.71 143.16C5.87 142.46 7.16 142.11 8.58 142.11C9.82 142.11 10.9 142.36 11.82 142.86C12.76 143.36 13.51 143.99 14.07 144.75V142.38H18.3V159H14.07V156.57C13.53 157.35 12.78 158 11.82 158.52C10.88 159.02 9.79 159.27 8.55 159.27C7.15 159.27 5.87 158.91 4.71 158.19C3.57 157.47 2.66 156.46 1.98 155.16C1.32 153.84 0.99 152.33 0.99 150.63ZM14.07 150.69C14.07 149.67 13.87 148.8 13.47 148.08C13.07 147.34 12.53 146.78 11.85 146.4C11.17 146 10.44 145.8 9.66 145.8C8.88 145.8 8.16 145.99 7.5 146.37C6.84 146.75 6.3 147.31 5.88 148.05C5.48 148.77 5.28 149.63 5.28 150.63C5.28 151.63 5.48 152.51 5.88 153.27C6.3 154.01 6.84 154.58 7.5 154.98C8.18 155.38 8.9 155.58 9.66 155.58C10.44 155.58 11.17 155.39 11.85 155.01C12.53 154.61 13.07 154.05 13.47 153.33C13.87 152.59 14.07 151.71 14.07 150.69ZM26.602 144.78C27.142 144.02 27.882 143.39 28.822 142.89C29.782 142.37 30.872 142.11 32.092 142.11C33.512 142.11 34.792 142.46 35.932 143.16C37.092 143.86 38.002 144.86 38.662 146.16C39.342 147.44 39.682 148.93 39.682 150.63C39.682 152.33 39.342 153.84 38.662 155.16C38.002 156.46 37.092 157.47 35.932 158.19C34.792 158.91 33.512 159.27 32.092 159.27C30.872 159.27 29.792 159.02 28.852 158.52C27.932 158.02 27.182 157.39 26.602 156.63V166.92H22.402V142.38H26.602V144.78ZM35.392 150.63C35.392 149.63 35.182 148.77 34.762 148.05C34.362 147.31 33.822 146.75 33.142 146.37C32.482 145.99 31.762 145.8 30.982 145.8C30.222 145.8 29.502 146 28.822 146.4C28.162 146.78 27.622 147.34 27.202 148.08C26.802 148.82 26.602 149.69 26.602 150.69C26.602 151.69 26.802 152.56 27.202 153.3C27.622 154.04 28.162 154.61 28.822 155.01C29.502 155.39 30.222 155.58 30.982 155.58C31.762 155.58 32.482 155.38 33.142 154.98C33.822 154.58 34.362 154.01 34.762 153.27C35.182 152.53 35.392 151.65 35.392 150.63ZM46.9341 144.78C47.4741 144.02 48.2141 143.39 49.1541 142.89C50.1141 142.37 51.2041 142.11 52.4241 142.11C53.8441 142.11 55.1241 142.46 56.2641 143.16C57.4241 143.86 58.3341 144.86 58.9941 146.16C59.6741 147.44 60.0141 148.93 60.0141 150.63C60.0141 152.33 59.6741 153.84 58.9941 155.16C58.3341 156.46 57.4241 157.47 56.2641 158.19C55.1241 158.91 53.8441 159.27 52.4241 159.27C51.2041 159.27 50.1241 159.02 49.1841 158.52C48.2641 158.02 47.5141 157.39 46.9341 156.63V166.92H42.7341V142.38H46.9341V144.78ZM55.7241 150.63C55.7241 149.63 55.5141 148.77 55.0941 148.05C54.6941 147.31 54.1541 146.75 53.4741 146.37C52.8141 145.99 52.0941 145.8 51.3141 145.8C50.5541 145.8 49.8341 146 49.1541 146.4C48.4941 146.78 47.9541 147.34 47.5341 148.08C47.1341 148.82 46.9341 149.69 46.9341 150.69C46.9341 151.69 47.1341 152.56 47.5341 153.3C47.9541 154.04 48.4941 154.61 49.1541 155.01C49.8341 155.39 50.5541 155.58 51.3141 155.58C52.0941 155.58 52.8141 155.38 53.4741 154.98C54.1541 154.58 54.6941 154.01 55.0941 153.27C55.5141 152.53 55.7241 151.65 55.7241 150.63ZM67.2661 136.8V159H63.0661V136.8H67.2661ZM73.5457 140.4C72.8057 140.4 72.1857 140.17 71.6857 139.71C71.2057 139.23 70.9657 138.64 70.9657 137.94C70.9657 137.24 71.2057 136.66 71.6857 136.2C72.1857 135.72 72.8057 135.48 73.5457 135.48C74.2857 135.48 74.8957 135.72 75.3757 136.2C75.8757 136.66 76.1257 137.24 76.1257 137.94C76.1257 138.64 75.8757 139.23 75.3757 139.71C74.8957 140.17 74.2857 140.4 73.5457 140.4ZM75.6157 142.38V159H71.4157V142.38H75.6157ZM78.6853 150.69C78.6853 148.97 79.0353 147.47 79.7353 146.19C80.4353 144.89 81.4053 143.89 82.6453 143.19C83.8853 142.47 85.3053 142.11 86.9053 142.11C88.9653 142.11 90.6653 142.63 92.0053 143.67C93.3653 144.69 94.2753 146.13 94.7353 147.99H90.2053C89.9653 147.27 89.5553 146.71 88.9753 146.31C88.4153 145.89 87.7153 145.68 86.8753 145.68C85.6753 145.68 84.7253 146.12 84.0253 147C83.3253 147.86 82.9753 149.09 82.9753 150.69C82.9753 152.27 83.3253 153.5 84.0253 154.38C84.7253 155.24 85.6753 155.67 86.8753 155.67C88.5753 155.67 89.6853 154.91 90.2053 153.39H94.7353C94.2753 155.19 93.3653 156.62 92.0053 157.68C90.6453 158.74 88.9453 159.27 86.9053 159.27C85.3053 159.27 83.8853 158.92 82.6453 158.22C81.4053 157.5 80.4353 156.5 79.7353 155.22C79.0353 153.92 78.6853 152.41 78.6853 150.69ZM96.7322 150.63C96.7322 148.95 97.0622 147.46 97.7222 146.16C98.4022 144.86 99.3122 143.86 100.452 143.16C101.612 142.46 102.902 142.11 104.322 142.11C105.562 142.11 106.642 142.36 107.562 142.86C108.502 143.36 109.252 143.99 109.812 144.75V142.38H114.042V159H109.812V156.57C109.272 157.35 108.522 158 107.562 158.52C106.622 159.02 105.532 159.27 104.292 159.27C102.892 159.27 101.612 158.91 100.452 158.19C99.3122 157.47 98.4022 156.46 97.7222 155.16C97.0622 153.84 96.7322 152.33 96.7322 150.63ZM109.812 150.69C109.812 149.67 109.612 148.8 109.212 148.08C108.812 147.34 108.272 146.78 107.592 146.4C106.912 146 106.182 145.8 105.402 145.8C104.622 145.8 103.902 145.99 103.242 146.37C102.582 146.75 102.042 147.31 101.622 148.05C101.222 148.77 101.022 149.63 101.022 150.63C101.022 151.63 101.222 152.51 101.622 153.27C102.042 154.01 102.582 154.58 103.242 154.98C103.922 155.38 104.642 155.58 105.402 155.58C106.182 155.58 106.912 155.39 107.592 155.01C108.272 154.61 108.812 154.05 109.212 153.33C109.612 152.59 109.812 151.71 109.812 150.69ZM123.034 145.83V153.87C123.034 154.43 123.164 154.84 123.424 155.1C123.704 155.34 124.164 155.46 124.804 155.46H126.754V159H124.114C120.574 159 118.804 157.28 118.804 153.84V145.83H116.824V142.38H118.804V138.27H123.034V142.38H126.754V145.83H123.034ZM131.905 140.4C131.165 140.4 130.545 140.17 130.045 139.71C129.565 139.23 129.325 138.64 129.325 137.94C129.325 137.24 129.565 136.66 130.045 136.2C130.545 135.72 131.165 135.48 131.905 135.48C132.645 135.48 133.255 135.72 133.735 136.2C134.235 136.66 134.485 137.24 134.485 137.94C134.485 138.64 134.235 139.23 133.735 139.71C133.255 140.17 132.645 140.4 131.905 140.4ZM133.975 142.38V159H129.775V142.38H133.975ZM145.505 159.27C143.905 159.27 142.465 158.92 141.185 158.22C139.905 157.5 138.895 156.49 138.155 155.19C137.435 153.89 137.075 152.39 137.075 150.69C137.075 148.99 137.445 147.49 138.185 146.19C138.945 144.89 139.975 143.89 141.275 143.19C142.575 142.47 144.025 142.11 145.625 142.11C147.225 142.11 148.675 142.47 149.975 143.19C151.275 143.89 152.295 144.89 153.035 146.19C153.795 147.49 154.175 148.99 154.175 150.69C154.175 152.39 153.785 153.89 153.005 155.19C152.245 156.49 151.205 157.5 149.885 158.22C148.585 158.92 147.125 159.27 145.505 159.27ZM145.505 155.61C146.265 155.61 146.975 155.43 147.635 155.07C148.315 154.69 148.855 154.13 149.255 153.39C149.655 152.65 149.855 151.75 149.855 150.69C149.855 149.11 149.435 147.9 148.595 147.06C147.775 146.2 146.765 145.77 145.565 145.77C144.365 145.77 143.355 146.2 142.535 147.06C141.735 147.9 141.335 149.11 141.335 150.69C141.335 152.27 141.725 153.49 142.505 154.35C143.305 155.19 144.305 155.61 145.505 155.61ZM166.466 142.14C168.446 142.14 170.046 142.77 171.266 144.03C172.486 145.27 173.096 147.01 173.096 149.25V159H168.896V149.82C168.896 148.5 168.566 147.49 167.906 146.79C167.246 146.07 166.346 145.71 165.206 145.71C164.046 145.71 163.126 146.07 162.446 146.79C161.786 147.49 161.456 148.5 161.456 149.82V159H157.256V142.38H161.456V144.45C162.016 143.73 162.726 143.17 163.586 142.77C164.466 142.35 165.426 142.14 166.466 142.14ZM203.316 159.27C201.716 159.27 200.276 158.92 198.996 158.22C197.716 157.5 196.706 156.49 195.966 155.19C195.246 153.89 194.886 152.39 194.886 150.69C194.886 148.99 195.256 147.49 195.996 146.19C196.756 144.89 197.786 143.89 199.086 143.19C200.386 142.47 201.836 142.11 203.436 142.11C205.036 142.11 206.486 142.47 207.786 143.19C209.086 143.89 210.106 144.89 210.846 146.19C211.606 147.49 211.986 148.99 211.986 150.69C211.986 152.39 211.596 153.89 210.816 155.19C210.056 156.49 209.016 157.5 207.696 158.22C206.396 158.92 204.936 159.27 203.316 159.27ZM203.316 155.61C204.076 155.61 204.786 155.43 205.446 155.07C206.126 154.69 206.666 154.13 207.066 153.39C207.466 152.65 207.666 151.75 207.666 150.69C207.666 149.11 207.246 147.9 206.406 147.06C205.586 146.2 204.576 145.77 203.376 145.77C202.176 145.77 201.166 146.2 200.346 147.06C199.546 147.9 199.146 149.11 199.146 150.69C199.146 152.27 199.536 153.49 200.316 154.35C201.116 155.19 202.116 155.61 203.316 155.61ZM222.687 145.83H219.777V159H215.517V145.83H213.627V142.38H215.517V141.54C215.517 139.5 216.097 138 217.257 137.04C218.417 136.08 220.167 135.63 222.507 135.69V139.23C221.487 139.21 220.777 139.38 220.377 139.74C219.977 140.1 219.777 140.75 219.777 141.69V142.38H222.687V145.83ZM250.615 159.27C249.255 159.27 248.035 159.03 246.955 158.55C245.875 158.05 245.015 157.38 244.375 156.54C243.755 155.7 243.415 154.77 243.355 153.75H247.585C247.665 154.39 247.975 154.92 248.515 155.34C249.075 155.76 249.765 155.97 250.585 155.97C251.385 155.97 252.005 155.81 252.445 155.49C252.905 155.17 253.135 154.76 253.135 154.26C253.135 153.72 252.855 153.32 252.295 153.06C251.755 152.78 250.885 152.48 249.685 152.16C248.445 151.86 247.425 151.55 246.625 151.23C245.845 150.91 245.165 150.42 244.585 149.76C244.025 149.1 243.745 148.21 243.745 147.09C243.745 146.17 244.005 145.33 244.525 144.57C245.065 143.81 245.825 143.21 246.805 142.77C247.805 142.33 248.975 142.11 250.315 142.11C252.295 142.11 253.875 142.61 255.055 143.61C256.235 144.59 256.885 145.92 257.005 147.6H252.985C252.925 146.94 252.645 146.42 252.145 146.04C251.665 145.64 251.015 145.44 250.195 145.44C249.435 145.44 248.845 145.58 248.425 145.86C248.025 146.14 247.825 146.53 247.825 147.03C247.825 147.59 248.105 148.02 248.665 148.32C249.225 148.6 250.095 148.89 251.275 149.19C252.475 149.49 253.465 149.8 254.245 150.12C255.025 150.44 255.695 150.94 256.255 151.62C256.835 152.28 257.135 153.16 257.155 154.26C257.155 155.22 256.885 156.08 256.345 156.84C255.825 157.6 255.065 158.2 254.065 158.64C253.085 159.06 251.935 159.27 250.615 159.27ZM259.522 150.69C259.522 148.97 259.872 147.47 260.572 146.19C261.272 144.89 262.242 143.89 263.482 143.19C264.722 142.47 266.142 142.11 267.742 142.11C269.802 142.11 271.502 142.63 272.842 143.67C274.202 144.69 275.112 146.13 275.572 147.99H271.042C270.802 147.27 270.392 146.71 269.812 146.31C269.252 145.89 268.552 145.68 267.712 145.68C266.512 145.68 265.562 146.12 264.862 147C264.162 147.86 263.812 149.09 263.812 150.69C263.812 152.27 264.162 153.5 264.862 154.38C265.562 155.24 266.512 155.67 267.712 155.67C269.412 155.67 270.522 154.91 271.042 153.39H275.572C275.112 155.19 274.202 156.62 272.842 157.68C271.482 158.74 269.782 159.27 267.742 159.27C266.142 159.27 264.722 158.92 263.482 158.22C262.242 157.5 261.272 156.5 260.572 155.22C259.872 153.92 259.522 152.41 259.522 150.69ZM280.779 140.4C280.039 140.4 279.419 140.17 278.919 139.71C278.439 139.23 278.199 138.64 278.199 137.94C278.199 137.24 278.439 136.66 278.919 136.2C279.419 135.72 280.039 135.48 280.779 135.48C281.519 135.48 282.129 135.72 282.609 136.2C283.109 136.66 283.359 137.24 283.359 137.94C283.359 138.64 283.109 139.23 282.609 139.71C282.129 140.17 281.519 140.4 280.779 140.4ZM282.849 142.38V159H278.649V142.38H282.849ZM302.449 150.33C302.449 150.93 302.409 151.47 302.329 151.95H290.179C290.279 153.15 290.699 154.09 291.439 154.77C292.179 155.45 293.089 155.79 294.169 155.79C295.729 155.79 296.839 155.12 297.499 153.78H302.029C301.549 155.38 300.629 156.7 299.269 157.74C297.909 158.76 296.239 159.27 294.259 159.27C292.659 159.27 291.219 158.92 289.939 158.22C288.679 157.5 287.689 156.49 286.969 155.19C286.269 153.89 285.919 152.39 285.919 150.69C285.919 148.97 286.269 147.46 286.969 146.16C287.669 144.86 288.649 143.86 289.909 143.16C291.169 142.46 292.619 142.11 294.259 142.11C295.839 142.11 297.249 142.45 298.489 143.13C299.749 143.81 300.719 144.78 301.399 146.04C302.099 147.28 302.449 148.71 302.449 150.33ZM298.099 149.13C298.079 148.05 297.689 147.19 296.929 146.55C296.169 145.89 295.239 145.56 294.139 145.56C293.099 145.56 292.219 145.88 291.499 146.52C290.799 147.14 290.369 148.01 290.209 149.13H298.099ZM314.724 142.14C316.704 142.14 318.304 142.77 319.524 144.03C320.744 145.27 321.354 147.01 321.354 149.25V159H317.154V149.82C317.154 148.5 316.824 147.49 316.164 146.79C315.504 146.07 314.604 145.71 313.464 145.71C312.304 145.71 311.384 146.07 310.704 146.79C310.044 147.49 309.714 148.5 309.714 149.82V159H305.514V142.38H309.714V144.45C310.274 143.73 310.984 143.17 311.844 142.77C312.724 142.35 313.684 142.14 314.724 142.14ZM324.268 150.69C324.268 148.97 324.618 147.47 325.318 146.19C326.018 144.89 326.988 143.89 328.228 143.19C329.468 142.47 330.888 142.11 332.488 142.11C334.548 142.11 336.248 142.63 337.588 143.67C338.948 144.69 339.858 146.13 340.318 147.99H335.788C335.548 147.27 335.138 146.71 334.558 146.31C333.998 145.89 333.298 145.68 332.458 145.68C331.258 145.68 330.308 146.12 329.608 147C328.908 147.86 328.558 149.09 328.558 150.69C328.558 152.27 328.908 153.5 329.608 154.38C330.308 155.24 331.258 155.67 332.458 155.67C334.158 155.67 335.268 154.91 335.788 153.39H340.318C339.858 155.19 338.948 156.62 337.588 157.68C336.228 158.74 334.528 159.27 332.488 159.27C330.888 159.27 329.468 158.92 328.228 158.22C326.988 157.5 326.018 156.5 325.318 155.22C324.618 153.92 324.268 152.41 324.268 150.69ZM358.845 150.33C358.845 150.93 358.805 151.47 358.725 151.95H346.575C346.675 153.15 347.095 154.09 347.835 154.77C348.575 155.45 349.485 155.79 350.565 155.79C352.125 155.79 353.235 155.12 353.895 153.78H358.425C357.945 155.38 357.025 156.7 355.665 157.74C354.305 158.76 352.635 159.27 350.655 159.27C349.055 159.27 347.615 158.92 346.335 158.22C345.075 157.5 344.085 156.49 343.365 155.19C342.665 153.89 342.315 152.39 342.315 150.69C342.315 148.97 342.665 147.46 343.365 146.16C344.065 144.86 345.045 143.86 346.305 143.16C347.565 142.46 349.015 142.11 350.655 142.11C352.235 142.11 353.645 142.45 354.885 143.13C356.145 143.81 357.115 144.78 357.795 146.04C358.495 147.28 358.845 148.71 358.845 150.33ZM354.495 149.13C354.475 148.05 354.085 147.19 353.325 146.55C352.565 145.89 351.635 145.56 350.535 145.56C349.495 145.56 348.615 145.88 347.895 146.52C347.195 147.14 346.765 148.01 346.605 149.13H354.495ZM379.677 150.63C379.677 148.95 380.007 147.46 380.667 146.16C381.347 144.86 382.257 143.86 383.397 143.16C384.557 142.46 385.847 142.11 387.267 142.11C388.507 142.11 389.587 142.36 390.507 142.86C391.447 143.36 392.197 143.99 392.757 144.75V142.38H396.987V159H392.757V156.57C392.217 157.35 391.467 158 390.507 158.52C389.567 159.02 388.477 159.27 387.237 159.27C385.837 159.27 384.557 158.91 383.397 158.19C382.257 157.47 381.347 156.46 380.667 155.16C380.007 153.84 379.677 152.33 379.677 150.63ZM392.757 150.69C392.757 149.67 392.557 148.8 392.157 148.08C391.757 147.34 391.217 146.78 390.537 146.4C389.857 146 389.127 145.8 388.347 145.8C387.567 145.8 386.847 145.99 386.187 146.37C385.527 146.75 384.987 147.31 384.567 148.05C384.167 148.77 383.967 149.63 383.967 150.63C383.967 151.63 384.167 152.51 384.567 153.27C384.987 154.01 385.527 154.58 386.187 154.98C386.867 155.38 387.587 155.58 388.347 155.58C389.127 155.58 389.857 155.39 390.537 155.01C391.217 154.61 391.757 154.05 392.157 153.33C392.557 152.59 392.757 151.71 392.757 150.69ZM410.299 142.14C412.279 142.14 413.879 142.77 415.099 144.03C416.319 145.27 416.929 147.01 416.929 149.25V159H412.729V149.82C412.729 148.5 412.399 147.49 411.739 146.79C411.079 146.07 410.179 145.71 409.039 145.71C407.879 145.71 406.959 146.07 406.279 146.79C405.619 147.49 405.289 148.5 405.289 149.82V159H401.089V142.38H405.289V144.45C405.849 143.73 406.559 143.17 407.419 142.77C408.299 142.35 409.259 142.14 410.299 142.14ZM419.843 150.63C419.843 148.95 420.173 147.46 420.833 146.16C421.513 144.86 422.433 143.86 423.593 143.16C424.753 142.46 426.043 142.11 427.463 142.11C428.543 142.11 429.573 142.35 430.553 142.83C431.533 143.29 432.313 143.91 432.893 144.69V136.8H437.153V159H432.893V156.54C432.373 157.36 431.643 158.02 430.703 158.52C429.763 159.02 428.673 159.27 427.433 159.27C426.033 159.27 424.753 158.91 423.593 158.19C422.433 157.47 421.513 156.46 420.833 155.16C420.173 153.84 419.843 152.33 419.843 150.63ZM432.923 150.69C432.923 149.67 432.723 148.8 432.323 148.08C431.923 147.34 431.383 146.78 430.703 146.4C430.023 146 429.293 145.8 428.513 145.8C427.733 145.8 427.013 145.99 426.353 146.37C425.693 146.75 425.153 147.31 424.733 148.05C424.333 148.77 424.133 149.63 424.133 150.63C424.133 151.63 424.333 152.51 424.733 153.27C425.153 154.01 425.693 154.58 426.353 154.98C427.033 155.38 427.753 155.58 428.513 155.58C429.293 155.58 430.023 155.39 430.703 155.01C431.383 154.61 431.923 154.05 432.323 153.33C432.723 152.59 432.923 151.71 432.923 150.69ZM464.991 145.83V153.87C464.991 154.43 465.121 154.84 465.381 155.1C465.661 155.34 466.121 155.46 466.761 155.46H468.711V159H466.071C462.531 159 460.761 157.28 460.761 153.84V145.83H458.781V142.38H460.761V138.27H464.991V142.38H468.711V145.83H464.991ZM487.182 150.33C487.182 150.93 487.142 151.47 487.062 151.95H474.912C475.012 153.15 475.432 154.09 476.172 154.77C476.912 155.45 477.822 155.79 478.902 155.79C480.462 155.79 481.572 155.12 482.232 153.78H486.762C486.282 155.38 485.362 156.7 484.002 157.74C482.642 158.76 480.972 159.27 478.992 159.27C477.392 159.27 475.952 158.92 474.672 158.22C473.412 157.5 472.422 156.49 471.702 155.19C471.002 153.89 470.652 152.39 470.652 150.69C470.652 148.97 471.002 147.46 471.702 146.16C472.402 144.86 473.382 143.86 474.642 143.16C475.902 142.46 477.352 142.11 478.992 142.11C480.572 142.11 481.982 142.45 483.222 143.13C484.482 143.81 485.452 144.78 486.132 146.04C486.832 147.28 487.182 148.71 487.182 150.33ZM482.832 149.13C482.812 148.05 482.422 147.19 481.662 146.55C480.902 145.89 479.972 145.56 478.872 145.56C477.832 145.56 476.952 145.88 476.232 146.52C475.532 147.14 475.102 148.01 474.942 149.13H482.832ZM489.168 150.69C489.168 148.97 489.518 147.47 490.218 146.19C490.918 144.89 491.888 143.89 493.128 143.19C494.368 142.47 495.788 142.11 497.388 142.11C499.448 142.11 501.148 142.63 502.488 143.67C503.848 144.69 504.758 146.13 505.218 147.99H500.688C500.448 147.27 500.038 146.71 499.458 146.31C498.898 145.89 498.198 145.68 497.358 145.68C496.158 145.68 495.208 146.12 494.508 147C493.808 147.86 493.458 149.09 493.458 150.69C493.458 152.27 493.808 153.5 494.508 154.38C495.208 155.24 496.158 155.67 497.358 155.67C499.058 155.67 500.168 154.91 500.688 153.39H505.218C504.758 155.19 503.848 156.62 502.488 157.68C501.128 158.74 499.428 159.27 497.388 159.27C495.788 159.27 494.368 158.92 493.128 158.22C491.888 157.5 490.918 156.5 490.218 155.22C489.518 153.92 489.168 152.41 489.168 150.69ZM517.655 142.14C518.915 142.14 520.035 142.42 521.015 142.98C521.995 143.52 522.755 144.33 523.295 145.41C523.855 146.47 524.135 147.75 524.135 149.25V159H519.935V149.82C519.935 148.5 519.605 147.49 518.945 146.79C518.285 146.07 517.385 145.71 516.245 145.71C515.085 145.71 514.165 146.07 513.485 146.79C512.825 147.49 512.495 148.5 512.495 149.82V159H508.295V136.8H512.495V144.45C513.035 143.73 513.755 143.17 514.655 142.77C515.555 142.35 516.555 142.14 517.655 142.14ZM537.339 142.14C539.319 142.14 540.919 142.77 542.139 144.03C543.359 145.27 543.969 147.01 543.969 149.25V159H539.769V149.82C539.769 148.5 539.439 147.49 538.779 146.79C538.119 146.07 537.219 145.71 536.079 145.71C534.919 145.71 533.999 146.07 533.319 146.79C532.659 147.49 532.329 148.5 532.329 149.82V159H528.129V142.38H532.329V144.45C532.889 143.73 533.599 143.17 534.459 142.77C535.339 142.35 536.299 142.14 537.339 142.14ZM555.343 159.27C553.743 159.27 552.303 158.92 551.023 158.22C549.743 157.5 548.733 156.49 547.993 155.19C547.273 153.89 546.913 152.39 546.913 150.69C546.913 148.99 547.283 147.49 548.023 146.19C548.783 144.89 549.813 143.89 551.113 143.19C552.413 142.47 553.863 142.11 555.463 142.11C557.063 142.11 558.513 142.47 559.813 143.19C561.113 143.89 562.133 144.89 562.873 146.19C563.633 147.49 564.013 148.99 564.013 150.69C564.013 152.39 563.623 153.89 562.843 155.19C562.083 156.49 561.043 157.5 559.723 158.22C558.423 158.92 556.963 159.27 555.343 159.27ZM555.343 155.61C556.103 155.61 556.813 155.43 557.473 155.07C558.153 154.69 558.693 154.13 559.093 153.39C559.493 152.65 559.693 151.75 559.693 150.69C559.693 149.11 559.273 147.9 558.433 147.06C557.613 146.2 556.603 145.77 555.403 145.77C554.203 145.77 553.193 146.2 552.373 147.06C551.573 147.9 551.173 149.11 551.173 150.69C551.173 152.27 551.563 153.49 552.343 154.35C553.143 155.19 554.143 155.61 555.343 155.61ZM571.293 136.8V159H567.093V136.8H571.293ZM582.823 159.27C581.223 159.27 579.783 158.92 578.503 158.22C577.223 157.5 576.213 156.49 575.473 155.19C574.753 153.89 574.393 152.39 574.393 150.69C574.393 148.99 574.763 147.49 575.503 146.19C576.263 144.89 577.293 143.89 578.593 143.19C579.893 142.47 581.343 142.11 582.943 142.11C584.543 142.11 585.993 142.47 587.293 143.19C588.593 143.89 589.613 144.89 590.353 146.19C591.113 147.49 591.493 148.99 591.493 150.69C591.493 152.39 591.103 153.89 590.323 155.19C589.563 156.49 588.523 157.5 587.203 158.22C585.903 158.92 584.443 159.27 582.823 159.27ZM582.823 155.61C583.583 155.61 584.293 155.43 584.953 155.07C585.633 154.69 586.173 154.13 586.573 153.39C586.973 152.65 587.173 151.75 587.173 150.69C587.173 149.11 586.753 147.9 585.913 147.06C585.093 146.2 584.083 145.77 582.883 145.77C581.683 145.77 580.673 146.2 579.853 147.06C579.053 147.9 578.653 149.11 578.653 150.69C578.653 152.27 579.043 153.49 579.823 154.35C580.623 155.19 581.623 155.61 582.823 155.61ZM601.084 142.11C602.324 142.11 603.414 142.36 604.354 142.86C605.294 143.34 606.034 143.97 606.574 144.75V142.38H610.804V159.12C610.804 160.66 610.494 162.03 609.874 163.23C609.254 164.45 608.324 165.41 607.084 166.11C605.844 166.83 604.344 167.19 602.584 167.19C600.224 167.19 598.284 166.64 596.764 165.54C595.264 164.44 594.414 162.94 594.214 161.04H598.384C598.604 161.8 599.074 162.4 599.794 162.84C600.534 163.3 601.424 163.53 602.464 163.53C603.684 163.53 604.674 163.16 605.434 162.42C606.194 161.7 606.574 160.6 606.574 159.12V156.54C606.034 157.32 605.284 157.97 604.324 158.49C603.384 159.01 602.304 159.27 601.084 159.27C599.684 159.27 598.404 158.91 597.244 158.19C596.084 157.47 595.164 156.46 594.484 155.16C593.824 153.84 593.494 152.33 593.494 150.63C593.494 148.95 593.824 147.46 594.484 146.16C595.164 144.86 596.074 143.86 597.214 143.16C598.374 142.46 599.664 142.11 601.084 142.11ZM606.574 150.69C606.574 149.67 606.374 148.8 605.974 148.08C605.574 147.34 605.034 146.78 604.354 146.4C603.674 146 602.944 145.8 602.164 145.8C601.384 145.8 600.664 145.99 600.004 146.37C599.344 146.75 598.804 147.31 598.384 148.05C597.984 148.77 597.784 149.63 597.784 150.63C597.784 151.63 597.984 152.51 598.384 153.27C598.804 154.01 599.344 154.58 600.004 154.98C600.684 155.38 601.404 155.58 602.164 155.58C602.944 155.58 603.674 155.39 604.354 155.01C605.034 154.61 605.574 154.05 605.974 153.33C606.374 152.59 606.574 151.71 606.574 150.69ZM630.806 142.38L620.516 166.86H616.046L619.646 158.58L612.986 142.38H617.696L621.986 153.99L626.336 142.38H630.806ZM0.99 195.63C0.99 193.95 1.32 192.46 1.98 191.16C2.66 189.86 3.57 188.86 4.71 188.16C5.87 187.46 7.16 187.11 8.58 187.11C9.82 187.11 10.9 187.36 11.82 187.86C12.76 188.36 13.51 188.99 14.07 189.75V187.38H18.3V204H14.07V201.57C13.53 202.35 12.78 203 11.82 203.52C10.88 204.02 9.79 204.27 8.55 204.27C7.15 204.27 5.87 203.91 4.71 203.19C3.57 202.47 2.66 201.46 1.98 200.16C1.32 198.84 0.99 197.33 0.99 195.63ZM14.07 195.69C14.07 194.67 13.87 193.8 13.47 193.08C13.07 192.34 12.53 191.78 11.85 191.4C11.17 191 10.44 190.8 9.66 190.8C8.88 190.8 8.16 190.99 7.5 191.37C6.84 191.75 6.3 192.31 5.88 193.05C5.48 193.77 5.28 194.63 5.28 195.63C5.28 196.63 5.48 197.51 5.88 198.27C6.3 199.01 6.84 199.58 7.5 199.98C8.18 200.38 8.9 200.58 9.66 200.58C10.44 200.58 11.17 200.39 11.85 200.01C12.53 199.61 13.07 199.05 13.47 198.33C13.87 197.59 14.07 196.71 14.07 195.69ZM43.042 187.14C45.082 187.14 46.722 187.77 47.962 189.03C49.222 190.27 49.852 192.01 49.852 194.25V204H45.652V194.82C45.652 193.52 45.322 192.53 44.662 191.85C44.002 191.15 43.102 190.8 41.962 190.8C40.822 190.8 39.912 191.15 39.232 191.85C38.572 192.53 38.242 193.52 38.242 194.82V204H34.042V194.82C34.042 193.52 33.712 192.53 33.052 191.85C32.392 191.15 31.492 190.8 30.352 190.8C29.192 190.8 28.272 191.15 27.592 191.85C26.932 192.53 26.602 193.52 26.602 194.82V204H22.402V187.38H26.602V189.39C27.142 188.69 27.832 188.14 28.672 187.74C29.532 187.34 30.472 187.14 31.492 187.14C32.792 187.14 33.952 187.42 34.972 187.98C35.992 188.52 36.782 189.3 37.342 190.32C37.882 189.36 38.662 188.59 39.682 188.01C40.722 187.43 41.842 187.14 43.042 187.14ZM61.2176 204.27C59.6176 204.27 58.1776 203.92 56.8976 203.22C55.6176 202.5 54.6076 201.49 53.8676 200.19C53.1476 198.89 52.7876 197.39 52.7876 195.69C52.7876 193.99 53.1576 192.49 53.8976 191.19C54.6576 189.89 55.6876 188.89 56.9876 188.19C58.2876 187.47 59.7376 187.11 61.3376 187.11C62.9376 187.11 64.3876 187.47 65.6876 188.19C66.9876 188.89 68.0076 189.89 68.7476 191.19C69.5076 192.49 69.8876 193.99 69.8876 195.69C69.8876 197.39 69.4976 198.89 68.7176 200.19C67.9576 201.49 66.9176 202.5 65.5976 203.22C64.2976 203.92 62.8376 204.27 61.2176 204.27ZM61.2176 200.61C61.9776 200.61 62.6876 200.43 63.3476 200.07C64.0276 199.69 64.5676 199.13 64.9676 198.39C65.3676 197.65 65.5676 196.75 65.5676 195.69C65.5676 194.11 65.1476 192.9 64.3076 192.06C63.4876 191.2 62.4776 190.77 61.2776 190.77C60.0776 190.77 59.0676 191.2 58.2476 192.06C57.4476 192.9 57.0476 194.11 57.0476 195.69C57.0476 197.27 57.4376 198.49 58.2176 199.35C59.0176 200.19 60.0176 200.61 61.2176 200.61ZM82.1784 187.14C84.1584 187.14 85.7584 187.77 86.9784 189.03C88.1984 190.27 88.8084 192.01 88.8084 194.25V204H84.6084V194.82C84.6084 193.5 84.2784 192.49 83.6184 191.79C82.9584 191.07 82.0584 190.71 80.9184 190.71C79.7584 190.71 78.8384 191.07 78.1584 191.79C77.4984 192.49 77.1684 193.5 77.1684 194.82V204H72.9684V187.38H77.1684V189.45C77.7284 188.73 78.4384 188.17 79.2984 187.77C80.1784 187.35 81.1384 187.14 82.1784 187.14ZM99.3124 187.11C100.552 187.11 101.642 187.36 102.582 187.86C103.522 188.34 104.262 188.97 104.802 189.75V187.38H109.032V204.12C109.032 205.66 108.722 207.03 108.102 208.23C107.482 209.45 106.552 210.41 105.312 211.11C104.072 211.83 102.572 212.19 100.812 212.19C98.4524 212.19 96.5124 211.64 94.9924 210.54C93.4924 209.44 92.6424 207.94 92.4424 206.04H96.6124C96.8324 206.8 97.3024 207.4 98.0224 207.84C98.7624 208.3 99.6524 208.53 100.692 208.53C101.912 208.53 102.902 208.16 103.662 207.42C104.422 206.7 104.802 205.6 104.802 204.12V201.54C104.262 202.32 103.512 202.97 102.552 203.49C101.612 204.01 100.532 204.27 99.3124 204.27C97.9124 204.27 96.6324 203.91 95.4724 203.19C94.3124 202.47 93.3924 201.46 92.7124 200.16C92.0524 198.84 91.7224 197.33 91.7224 195.63C91.7224 193.95 92.0524 192.46 92.7124 191.16C93.3924 189.86 94.3024 188.86 95.4424 188.16C96.6024 187.46 97.8924 187.11 99.3124 187.11ZM104.802 195.69C104.802 194.67 104.602 193.8 104.202 193.08C103.802 192.34 103.262 191.78 102.582 191.4C101.902 191 101.172 190.8 100.392 190.8C99.6124 190.8 98.8924 190.99 98.2324 191.37C97.5724 191.75 97.0324 192.31 96.6124 193.05C96.2124 193.77 96.0124 194.63 96.0124 195.63C96.0124 196.63 96.2124 197.51 96.6124 198.27C97.0324 199.01 97.5724 199.58 98.2324 199.98C98.9124 200.38 99.6324 200.58 100.392 200.58C101.172 200.58 101.902 200.39 102.582 200.01C103.262 199.61 103.802 199.05 104.202 198.33C104.602 197.59 104.802 196.71 104.802 195.69ZM125.173 190.83V198.87C125.173 199.43 125.303 199.84 125.563 200.1C125.843 200.34 126.303 200.46 126.943 200.46H128.893V204H126.253C122.713 204 120.943 202.28 120.943 198.84V190.83H118.963V187.38H120.943V183.27H125.173V187.38H128.893V190.83H125.173ZM141.274 187.14C142.534 187.14 143.654 187.42 144.634 187.98C145.614 188.52 146.374 189.33 146.914 190.41C147.474 191.47 147.754 192.75 147.754 194.25V204H143.554V194.82C143.554 193.5 143.224 192.49 142.564 191.79C141.904 191.07 141.004 190.71 139.864 190.71C138.704 190.71 137.784 191.07 137.104 191.79C136.444 192.49 136.114 193.5 136.114 194.82V204H131.914V181.8H136.114V189.45C136.654 188.73 137.374 188.17 138.274 187.77C139.174 187.35 140.174 187.14 141.274 187.14ZM167.198 195.33C167.198 195.93 167.158 196.47 167.078 196.95H154.928C155.028 198.15 155.448 199.09 156.188 199.77C156.928 200.45 157.838 200.79 158.918 200.79C160.478 200.79 161.588 200.12 162.248 198.78H166.778C166.298 200.38 165.378 201.7 164.018 202.74C162.658 203.76 160.988 204.27 159.008 204.27C157.408 204.27 155.968 203.92 154.688 203.22C153.428 202.5 152.438 201.49 151.718 200.19C151.018 198.89 150.668 197.39 150.668 195.69C150.668 193.97 151.018 192.46 151.718 191.16C152.418 189.86 153.398 188.86 154.658 188.16C155.918 187.46 157.368 187.11 159.008 187.11C160.588 187.11 161.998 187.45 163.238 188.13C164.498 188.81 165.468 189.78 166.148 191.04C166.848 192.28 167.198 193.71 167.198 195.33ZM162.848 194.13C162.828 193.05 162.438 192.19 161.678 191.55C160.918 190.89 159.988 190.56 158.888 190.56C157.848 190.56 156.968 190.88 156.248 191.52C155.548 192.14 155.118 193.01 154.958 194.13H162.848ZM181.612 183.06V204H177.412V183.06H181.612ZM189.961 183.06V204H185.761V183.06H189.961ZM208.361 183.06V186.45H202.781V204H198.581V186.45H193.001V183.06H208.361ZM230.454 193.26C231.634 193.48 232.604 194.07 233.364 195.03C234.124 195.99 234.504 197.09 234.504 198.33C234.504 199.45 234.224 200.44 233.664 201.3C233.124 202.14 232.334 202.8 231.294 203.28C230.254 203.76 229.024 204 227.604 204H218.574V183.06H227.214C228.634 183.06 229.854 183.29 230.874 183.75C231.914 184.21 232.694 184.85 233.214 185.67C233.754 186.49 234.024 187.42 234.024 188.46C234.024 189.68 233.694 190.7 233.034 191.52C232.394 192.34 231.534 192.92 230.454 193.26ZM222.774 191.7H226.614C227.614 191.7 228.384 191.48 228.924 191.04C229.464 190.58 229.734 189.93 229.734 189.09C229.734 188.25 229.464 187.6 228.924 187.14C228.384 186.68 227.614 186.45 226.614 186.45H222.774V191.7ZM227.004 200.58C228.024 200.58 228.814 200.34 229.374 199.86C229.954 199.38 230.244 198.7 230.244 197.82C230.244 196.92 229.944 196.22 229.344 195.72C228.744 195.2 227.934 194.94 226.914 194.94H222.774V200.58H227.004ZM255.221 183.06V204H251.021V195.09H242.051V204H237.851V183.06H242.051V191.67H251.021V183.06H255.221ZM263.495 183.06V196.02C263.495 197.44 263.865 198.53 264.605 199.29C265.345 200.03 266.385 200.4 267.725 200.4C269.085 200.4 270.135 200.03 270.875 199.29C271.615 198.53 271.985 197.44 271.985 196.02V183.06H276.215V195.99C276.215 197.77 275.825 199.28 275.045 200.52C274.285 201.74 273.255 202.66 271.955 203.28C270.675 203.9 269.245 204.21 267.665 204.21C266.105 204.21 264.685 203.9 263.405 203.28C262.145 202.66 261.145 201.74 260.405 200.52C259.665 199.28 259.295 197.77 259.295 195.99V183.06H263.495ZM286.342 195.69C286.342 193.97 286.692 192.47 287.392 191.19C288.092 189.89 289.062 188.89 290.302 188.19C291.542 187.47 292.962 187.11 294.562 187.11C296.622 187.11 298.322 187.63 299.662 188.67C301.022 189.69 301.932 191.13 302.392 192.99H297.862C297.622 192.27 297.212 191.71 296.632 191.31C296.072 190.89 295.372 190.68 294.532 190.68C293.332 190.68 292.382 191.12 291.682 192C290.982 192.86 290.632 194.09 290.632 195.69C290.632 197.27 290.982 198.5 291.682 199.38C292.382 200.24 293.332 200.67 294.532 200.67C296.232 200.67 297.342 199.91 297.862 198.39H302.392C301.932 200.19 301.022 201.62 299.662 202.68C298.302 203.74 296.602 204.27 294.562 204.27C292.962 204.27 291.542 203.92 290.302 203.22C289.062 202.5 288.092 201.5 287.392 200.22C286.692 198.92 286.342 197.41 286.342 195.69ZM312.848 204.27C311.248 204.27 309.808 203.92 308.528 203.22C307.248 202.5 306.238 201.49 305.498 200.19C304.778 198.89 304.418 197.39 304.418 195.69C304.418 193.99 304.788 192.49 305.528 191.19C306.288 189.89 307.318 188.89 308.618 188.19C309.918 187.47 311.368 187.11 312.968 187.11C314.568 187.11 316.018 187.47 317.318 188.19C318.618 188.89 319.638 189.89 320.378 191.19C321.138 192.49 321.518 193.99 321.518 195.69C321.518 197.39 321.128 198.89 320.348 200.19C319.588 201.49 318.548 202.5 317.228 203.22C315.928 203.92 314.468 204.27 312.848 204.27ZM312.848 200.61C313.608 200.61 314.318 200.43 314.978 200.07C315.658 199.69 316.198 199.13 316.598 198.39C316.998 197.65 317.198 196.75 317.198 195.69C317.198 194.11 316.778 192.9 315.938 192.06C315.118 191.2 314.108 190.77 312.908 190.77C311.708 190.77 310.698 191.2 309.878 192.06C309.078 192.9 308.678 194.11 308.678 195.69C308.678 197.27 309.068 198.49 309.848 199.35C310.648 200.19 311.648 200.61 312.848 200.61ZM345.239 187.14C347.279 187.14 348.919 187.77 350.159 189.03C351.419 190.27 352.049 192.01 352.049 194.25V204H347.849V194.82C347.849 193.52 347.519 192.53 346.859 191.85C346.199 191.15 345.299 190.8 344.159 190.8C343.019 190.8 342.109 191.15 341.429 191.85C340.769 192.53 340.439 193.52 340.439 194.82V204H336.239V194.82C336.239 193.52 335.909 192.53 335.249 191.85C334.589 191.15 333.689 190.8 332.549 190.8C331.389 190.8 330.469 191.15 329.789 191.85C329.129 192.53 328.799 193.52 328.799 194.82V204H324.599V187.38H328.799V189.39C329.339 188.69 330.029 188.14 330.869 187.74C331.729 187.34 332.669 187.14 333.689 187.14C334.989 187.14 336.149 187.42 337.169 187.98C338.189 188.52 338.979 189.3 339.539 190.32C340.079 189.36 340.859 188.59 341.879 188.01C342.919 187.43 344.039 187.14 345.239 187.14ZM376.675 187.14C378.715 187.14 380.355 187.77 381.595 189.03C382.855 190.27 383.485 192.01 383.485 194.25V204H379.285V194.82C379.285 193.52 378.955 192.53 378.295 191.85C377.635 191.15 376.735 190.8 375.595 190.8C374.455 190.8 373.545 191.15 372.865 191.85C372.205 192.53 371.875 193.52 371.875 194.82V204H367.675V194.82C367.675 193.52 367.345 192.53 366.685 191.85C366.025 191.15 365.125 190.8 363.985 190.8C362.825 190.8 361.905 191.15 361.225 191.85C360.565 192.53 360.235 193.52 360.235 194.82V204H356.035V187.38H360.235V189.39C360.775 188.69 361.465 188.14 362.305 187.74C363.165 187.34 364.105 187.14 365.125 187.14C366.425 187.14 367.585 187.42 368.605 187.98C369.625 188.52 370.415 189.3 370.975 190.32C371.515 189.36 372.295 188.59 373.315 188.01C374.355 187.43 375.475 187.14 376.675 187.14ZM403.16 187.38V204H398.93V201.9C398.39 202.62 397.68 203.19 396.8 203.61C395.94 204.01 395 204.21 393.98 204.21C392.68 204.21 391.53 203.94 390.53 203.4C389.53 202.84 388.74 202.03 388.16 200.97C387.6 199.89 387.32 198.61 387.32 197.13V187.38H391.52V196.53C391.52 197.85 391.85 198.87 392.51 199.59C393.17 200.29 394.07 200.64 395.21 200.64C396.37 200.64 397.28 200.29 397.94 199.59C398.6 198.87 398.93 197.85 398.93 196.53V187.38H403.16ZM416.514 187.14C418.494 187.14 420.094 187.77 421.314 189.03C422.534 190.27 423.144 192.01 423.144 194.25V204H418.944V194.82C418.944 193.5 418.614 192.49 417.954 191.79C417.294 191.07 416.394 190.71 415.254 190.71C414.094 190.71 413.174 191.07 412.494 191.79C411.834 192.49 411.504 193.5 411.504 194.82V204H407.304V187.38H411.504V189.45C412.064 188.73 412.774 188.17 413.634 187.77C414.514 187.35 415.474 187.14 416.514 187.14ZM429.268 185.4C428.528 185.4 427.908 185.17 427.408 184.71C426.928 184.23 426.688 183.64 426.688 182.94C426.688 182.24 426.928 181.66 427.408 181.2C427.908 180.72 428.528 180.48 429.268 180.48C430.008 180.48 430.618 180.72 431.098 181.2C431.598 181.66 431.848 182.24 431.848 182.94C431.848 183.64 431.598 184.23 431.098 184.71C430.618 185.17 430.008 185.4 429.268 185.4ZM431.338 187.38V204H427.138V187.38H431.338ZM440.378 190.83V198.87C440.378 199.43 440.508 199.84 440.768 200.1C441.048 200.34 441.508 200.46 442.148 200.46H444.098V204H441.458C437.918 204 436.148 202.28 436.148 198.84V190.83H434.168V187.38H436.148V183.27H440.378V187.38H444.098V190.83H440.378ZM463.019 187.38L452.729 211.86H448.259L451.859 203.58L445.199 187.38H449.909L454.199 198.99L458.549 187.38H463.019ZM467.143 204.21C466.383 204.21 465.753 203.98 465.253 203.52C464.773 203.04 464.533 202.45 464.533 201.75C464.533 201.05 464.773 200.47 465.253 200.01C465.753 199.53 466.383 199.29 467.143 199.29C467.883 199.29 468.493 199.53 468.973 200.01C469.453 200.47 469.693 201.05 469.693 201.75C469.693 202.45 469.453 203.04 468.973 203.52C468.493 203.98 467.883 204.21 467.143 204.21Z" fill="#F8F8F8"/>
</svg>
