<svg width="631" height="61" viewBox="0 0 631 61" fill="none" xmlns="http://www.w3.org/2000/svg">
<path d="M0.0993814 60V4H10.8194L34.6594 43.52H28.9794L52.4194 4H63.0594L63.2194 60H51.0594L50.9794 22.64H53.2194L34.4994 54.08H28.6594L9.53938 22.64H12.2594V60H0.0993814ZM99.3856 60.64C94.479 60.64 90.159 59.68 86.4256 57.76C82.7456 55.84 79.8923 53.2267 77.8656 49.92C75.839 46.56 74.8256 42.7467 74.8256 38.48C74.8256 34.16 75.8123 30.3467 77.7856 27.04C79.8123 23.68 82.559 21.0667 86.0256 19.2C89.4923 17.28 93.4123 16.32 97.7856 16.32C101.999 16.32 105.786 17.2267 109.146 19.04C112.559 20.8 115.252 23.36 117.226 26.72C119.199 30.0267 120.186 34 120.186 38.64C120.186 39.12 120.159 39.68 120.106 40.32C120.052 40.9067 119.999 41.4667 119.946 42H84.9856V34.72H113.386L108.586 36.88C108.586 34.64 108.132 32.6933 107.226 31.04C106.319 29.3867 105.066 28.1067 103.466 27.2C101.866 26.24 99.999 25.76 97.8656 25.76C95.7323 25.76 93.839 26.24 92.1856 27.2C90.5856 28.1067 89.3323 29.4133 88.4256 31.12C87.519 32.7733 87.0656 34.7467 87.0656 37.04V38.96C87.0656 41.3067 87.5723 43.3867 88.5856 45.2C89.6523 46.96 91.119 48.32 92.9856 49.28C94.9056 50.1867 97.1456 50.64 99.7056 50.64C101.999 50.64 103.999 50.2933 105.706 49.6C107.466 48.9067 109.066 47.8667 110.506 46.48L117.146 53.68C115.172 55.92 112.692 57.6533 109.706 58.88C106.719 60.0533 103.279 60.64 99.3856 60.64ZM152.254 60.64C147.348 60.64 143.028 59.68 139.294 57.76C135.614 55.84 132.761 53.2267 130.734 49.92C128.708 46.56 127.694 42.7467 127.694 38.48C127.694 34.16 128.681 30.3467 130.654 27.04C132.681 23.68 135.428 21.0667 138.894 19.2C142.361 17.28 146.281 16.32 150.654 16.32C154.868 16.32 158.654 17.2267 162.014 19.04C165.428 20.8 168.121 23.36 170.094 26.72C172.068 30.0267 173.054 34 173.054 38.64C173.054 39.12 173.028 39.68 172.974 40.32C172.921 40.9067 172.868 41.4667 172.814 42H137.854V34.72H166.254L161.454 36.88C161.454 34.64 161.001 32.6933 160.094 31.04C159.188 29.3867 157.934 28.1067 156.334 27.2C154.734 26.24 152.868 25.76 150.734 25.76C148.601 25.76 146.708 26.24 145.054 27.2C143.454 28.1067 142.201 29.4133 141.294 31.12C140.388 32.7733 139.934 34.7467 139.934 37.04V38.96C139.934 41.3067 140.441 43.3867 141.454 45.2C142.521 46.96 143.988 48.32 145.854 49.28C147.774 50.1867 150.014 50.64 152.574 50.64C154.868 50.64 156.868 50.2933 158.574 49.6C160.334 48.9067 161.934 47.8667 163.374 46.48L170.014 53.68C168.041 55.92 165.561 57.6533 162.574 58.88C159.588 60.0533 156.148 60.64 152.254 60.64ZM201.363 60.64C196.296 60.64 192.35 59.36 189.523 56.8C186.696 54.1867 185.283 50.32 185.283 45.2V7.44H197.763V45.04C197.763 46.8533 198.243 48.2667 199.203 49.28C200.163 50.24 201.47 50.72 203.123 50.72C205.096 50.72 206.776 50.1867 208.163 49.12L211.523 57.92C210.243 58.8267 208.696 59.52 206.883 60C205.123 60.4267 203.283 60.64 201.363 60.64ZM178.643 27.52V17.92H208.483V27.52H178.643ZM266.465 60.64C261.878 60.64 257.798 59.68 254.225 57.76C250.705 55.84 247.905 53.2267 245.825 49.92C243.798 46.56 242.785 42.7467 242.785 38.48C242.785 34.16 243.798 30.3467 245.825 27.04C247.905 23.68 250.705 21.0667 254.225 19.2C257.798 17.28 261.878 16.32 266.465 16.32C270.998 16.32 275.052 17.28 278.625 19.2C282.198 21.0667 284.998 23.6533 287.025 26.96C289.052 30.2667 290.065 34.1067 290.065 38.48C290.065 42.7467 289.052 46.56 287.025 49.92C284.998 53.2267 282.198 55.84 278.625 57.76C275.052 59.68 270.998 60.64 266.465 60.64ZM266.465 50.4C268.545 50.4 270.412 49.92 272.065 48.96C273.718 48 275.025 46.64 275.985 44.88C276.945 43.0667 277.425 40.9333 277.425 38.48C277.425 35.9733 276.945 33.84 275.985 32.08C275.025 30.32 273.718 28.96 272.065 28C270.412 27.04 268.545 26.56 266.465 26.56C264.385 26.56 262.518 27.04 260.865 28C259.212 28.96 257.878 30.32 256.865 32.08C255.905 33.84 255.425 35.9733 255.425 38.48C255.425 40.9333 255.905 43.0667 256.865 44.88C257.878 46.64 259.212 48 260.865 48.96C262.518 49.92 264.385 50.4 266.465 50.4ZM318.967 60.64C315.394 60.64 312.194 59.9467 309.367 58.56C306.594 57.1733 304.434 55.0667 302.887 52.24C301.34 49.36 300.567 45.7067 300.567 41.28V16.96H313.047V39.44C313.047 43.0133 313.794 45.6533 315.287 47.36C316.834 49.0133 318.994 49.84 321.767 49.84C323.687 49.84 325.394 49.44 326.887 48.64C328.38 47.7867 329.554 46.5067 330.407 44.8C331.26 43.04 331.687 40.8533 331.687 38.24V16.96H344.167V60H332.327V48.16L334.487 51.6C333.047 54.5867 330.914 56.8533 328.087 58.4C325.314 59.8933 322.274 60.64 318.967 60.64ZM358.129 60V16.96H370.049V29.12L368.369 25.6C369.649 22.56 371.702 20.2667 374.529 18.72C377.355 17.12 380.795 16.32 384.849 16.32V27.84C384.315 27.7867 383.835 27.76 383.409 27.76C382.982 27.7067 382.529 27.68 382.049 27.68C378.635 27.68 375.862 28.6667 373.729 30.64C371.649 32.56 370.609 35.5733 370.609 39.68V60H358.129ZM446.198 16.32C449.611 16.32 452.651 17.0133 455.318 18.4C458.038 19.7333 460.171 21.8133 461.718 24.64C463.265 27.4133 464.038 30.9867 464.038 35.36V60H451.558V37.28C451.558 33.8133 450.785 31.2533 449.238 29.6C447.745 27.9467 445.611 27.12 442.838 27.12C440.865 27.12 439.078 27.5467 437.478 28.4C435.931 29.2 434.705 30.4533 433.798 32.16C432.945 33.8667 432.518 36.0533 432.518 38.72V60H420.038V0.639997H432.518V28.88L429.718 25.28C431.265 22.4 433.478 20.1867 436.358 18.64C439.238 17.0933 442.518 16.32 446.198 16.32ZM499.423 60.64C494.516 60.64 490.196 59.68 486.463 57.76C482.783 55.84 479.93 53.2267 477.903 49.92C475.876 46.56 474.863 42.7467 474.863 38.48C474.863 34.16 475.85 30.3467 477.823 27.04C479.85 23.68 482.596 21.0667 486.063 19.2C489.53 17.28 493.45 16.32 497.823 16.32C502.036 16.32 505.823 17.2267 509.183 19.04C512.596 20.8 515.29 23.36 517.263 26.72C519.236 30.0267 520.223 34 520.223 38.64C520.223 39.12 520.196 39.68 520.143 40.32C520.09 40.9067 520.036 41.4667 519.983 42H485.023V34.72H513.423L508.623 36.88C508.623 34.64 508.17 32.6933 507.263 31.04C506.356 29.3867 505.103 28.1067 503.503 27.2C501.903 26.24 500.036 25.76 497.903 25.76C495.77 25.76 493.876 26.24 492.223 27.2C490.623 28.1067 489.37 29.4133 488.463 31.12C487.556 32.7733 487.103 34.7467 487.103 37.04V38.96C487.103 41.3067 487.61 43.3867 488.623 45.2C489.69 46.96 491.156 48.32 493.023 49.28C494.943 50.1867 497.183 50.64 499.743 50.64C502.036 50.64 504.036 50.2933 505.743 49.6C507.503 48.9067 509.103 47.8667 510.543 46.48L517.183 53.68C515.21 55.92 512.73 57.6533 509.743 58.88C506.756 60.0533 503.316 60.64 499.423 60.64ZM530.932 60V0.639997H543.412V60H530.932ZM612.514 16.32C615.928 16.32 618.941 17.0133 621.554 18.4C624.221 19.7333 626.301 21.8133 627.794 24.64C629.341 27.4133 630.114 30.9867 630.114 35.36V60H617.634V37.28C617.634 33.8133 616.914 31.2533 615.474 29.6C614.034 27.9467 612.008 27.12 609.394 27.12C607.581 27.12 605.954 27.5467 604.514 28.4C603.074 29.2 601.954 30.4267 601.154 32.08C600.354 33.7333 599.954 35.84 599.954 38.4V60H587.474V37.28C587.474 33.8133 586.754 31.2533 585.314 29.6C583.928 27.9467 581.928 27.12 579.314 27.12C577.501 27.12 575.874 27.5467 574.434 28.4C572.994 29.2 571.874 30.4267 571.074 32.08C570.274 33.7333 569.874 35.84 569.874 38.4V60H557.394V16.96H569.314V28.72L567.074 25.28C568.568 22.3467 570.674 20.1333 573.394 18.64C576.168 17.0933 579.314 16.32 582.834 16.32C586.781 16.32 590.221 17.3333 593.154 19.36C596.141 21.3333 598.114 24.3733 599.074 28.48L594.674 27.28C596.114 23.92 598.408 21.2533 601.554 19.28C604.754 17.3067 608.408 16.32 612.514 16.32Z" fill="#D12156"/>
</svg>
