<svg width="1743" height="553" viewBox="0 0 1743 553" fill="none" xmlns="http://www.w3.org/2000/svg">
<g filter="url(#filter0_f_242_150)">
<g filter="url(#filter1_f_242_150)">
<ellipse cx="894.261" cy="276.46" rx="425.446" ry="164.954" fill="#201127" fill-opacity="0.3"/>
</g>
<g opacity="0.6" filter="url(#filter2_f_242_150)">
<path d="M352.422 266.671C405.595 200.038 534.422 86.5077 612.589 234.75C644.873 295.975 726.531 421.042 755.481 348.305L800.593 266.671C830.978 209.806 903.9 130.196 952.516 266.671C1001.13 403.146 1046.2 377.26 1062.66 347.258C1110.77 248.181 1190.27 83.937 1229.77 202.829C1269.27 321.722 1311.43 397.494 1338.02 368.19C1407.26 291.869 1397.2 142.616 1432.97 178.758C1450.06 196.026 1486.14 312.197 1520.33 336.269C1547.67 355.526 1558.94 293.533 1556.41 266.671" stroke="#30153C" stroke-width="1.11155"/>
<path d="M356.195 268.845C409.035 206.785 537.055 101.046 614.731 239.115C646.812 296.138 727.959 412.623 756.727 344.877L801.557 268.845C831.751 215.883 904.216 141.736 952.526 268.845C1000.84 395.954 1045.62 371.845 1061.98 343.902C1109.79 251.624 1188.79 98.6516 1228.05 209.385C1267.3 320.118 1309.19 390.69 1335.61 363.397C1404.42 292.314 1394.42 153.303 1429.97 186.965C1446.95 203.049 1482.81 311.247 1516.78 333.667C1543.95 351.602 1555.15 293.864 1552.63 268.845" stroke="#30153C" stroke-width="1.11155"/>
<path d="M352.422 272.053C405.595 213.912 534.422 114.851 612.589 244.2C644.873 297.622 726.531 406.749 755.481 343.282L800.593 272.053C830.978 222.436 903.9 152.972 952.516 272.053C1001.13 391.134 1046.2 368.547 1062.66 342.369C1110.77 255.92 1190.27 112.608 1229.77 216.348C1269.27 320.087 1311.43 386.203 1338.02 360.633C1407.26 294.039 1397.2 163.808 1432.97 195.344C1450.06 210.412 1486.14 311.777 1520.33 332.78C1547.67 349.583 1558.94 295.492 1556.41 272.053" stroke="#30153C" stroke-width="1.11155"/>
<path d="M352.422 267.873C405.595 209.732 534.422 110.671 612.589 240.02C644.873 293.442 726.531 402.569 755.481 339.102L800.593 267.873C830.978 218.255 903.9 148.792 952.516 267.873C1001.13 386.954 1046.2 364.367 1062.66 338.189C1110.77 251.739 1190.27 108.428 1229.77 212.167C1269.27 315.907 1311.43 382.022 1338.02 356.453C1407.26 289.859 1397.2 159.628 1432.97 191.164C1450.06 206.232 1486.14 307.597 1520.33 328.6C1547.67 345.403 1558.94 291.311 1556.41 267.873" stroke="#30153C" stroke-width="1.11155"/>
<path d="M352.422 262.647C405.595 204.507 534.422 105.446 612.589 234.794C644.873 288.217 726.531 397.344 755.481 333.876L800.593 262.647C830.978 213.03 903.9 143.566 952.516 262.647C1001.13 381.728 1046.2 359.142 1062.66 332.963C1110.77 246.514 1190.27 103.203 1229.77 206.942C1269.27 310.681 1311.43 376.797 1338.02 351.227C1407.26 284.633 1397.2 154.403 1432.97 185.938C1450.06 201.006 1486.14 302.371 1520.33 323.375C1547.67 340.178 1558.94 286.086 1556.41 262.647" stroke="#30153C" stroke-width="1.11155"/>
<path d="M356.195 268.51C409.035 216.575 537.055 128.088 614.731 243.63C646.812 291.35 727.959 388.829 756.727 332.136L801.557 268.51C831.751 224.189 904.216 162.139 952.526 268.51C1000.84 374.88 1045.62 354.704 1061.98 331.32C1109.79 254.098 1188.79 126.084 1228.05 218.75C1267.3 311.417 1309.19 370.475 1335.61 347.635C1404.42 288.149 1394.42 171.819 1429.97 199.989C1446.95 213.448 1482.81 303.993 1516.78 322.755C1543.95 337.764 1555.15 289.446 1552.63 268.51" stroke="#30153C" stroke-width="1.11155"/>
<path d="M356.195 266.504C409.035 219.143 537.055 138.447 614.731 243.815C646.812 287.333 727.959 376.229 756.727 324.528L801.557 266.504C831.751 226.086 904.216 169.5 952.526 266.504C1000.84 363.508 1045.62 345.109 1061.98 323.784C1109.79 253.362 1188.79 136.619 1228.05 221.126C1267.3 305.633 1309.19 359.491 1335.61 338.662C1404.42 284.414 1394.42 178.327 1429.97 204.017C1446.95 216.291 1482.81 298.863 1516.78 315.973C1543.95 329.661 1555.15 285.597 1552.63 266.504" stroke="#30153C" stroke-width="1.11155"/>
<path d="M352.422 265.531C405.428 222.09 533.852 148.072 611.774 244.72C643.956 284.637 725.358 366.176 754.218 318.753L799.188 265.531C829.477 228.458 902.172 176.555 950.634 265.531C999.097 354.508 1044.03 337.631 1060.43 318.071C1108.39 253.477 1187.65 146.396 1227.02 223.909C1266.4 301.422 1308.43 350.823 1334.93 331.718C1403.95 281.959 1393.92 184.652 1429.58 208.215C1446.62 219.474 1482.59 295.213 1516.66 310.907C1543.92 323.462 1555.16 283.045 1552.63 265.531" stroke="#30153C" stroke-width="1.11155"/>
<path d="M356.195 266.132C409.035 226.936 537.055 160.153 614.731 247.355C646.812 283.37 727.959 356.938 756.727 314.152L801.557 266.132C831.751 232.682 904.216 185.852 952.526 266.132C1000.84 346.411 1045.62 331.184 1061.98 313.536C1109.79 255.255 1188.79 158.641 1228.05 228.578C1267.3 298.514 1309.19 343.087 1335.61 325.849C1404.42 280.954 1394.42 193.158 1429.97 214.418C1446.95 224.576 1482.81 292.912 1516.78 307.072C1543.95 318.399 1555.15 281.933 1552.63 266.132" stroke="#30153C" stroke-width="1.11155"/>
<path d="M356.195 267.754C409.035 231.498 537.055 169.724 614.731 250.385C646.812 283.699 727.959 351.75 756.727 312.172L801.557 267.754C831.751 236.813 904.216 193.495 952.526 267.754C1000.84 342.012 1045.62 327.927 1061.98 311.603C1109.79 257.693 1188.79 168.325 1228.05 233.016C1267.3 297.708 1309.19 338.937 1335.61 322.992C1404.42 281.464 1394.42 200.253 1429.97 219.918C1446.95 229.315 1482.81 292.525 1516.78 305.623C1543.95 316.101 1555.15 282.37 1552.63 267.754" stroke="#30153C" stroke-width="1.11155"/>
<path d="M356.195 266.782C409.035 234.445 537.055 179.349 614.731 251.291C646.812 281.003 727.959 341.697 756.727 306.398L801.557 266.782C831.751 239.186 904.216 200.551 952.526 266.782C1000.84 333.012 1045.62 320.45 1061.98 305.89C1109.79 257.809 1188.79 178.102 1228.05 235.8C1267.3 293.497 1309.19 330.269 1335.61 316.048C1404.42 279.01 1394.42 206.578 1429.97 224.118C1446.95 232.498 1482.81 288.875 1516.78 300.557C1543.95 309.902 1555.15 279.818 1552.63 266.782" stroke="#30153C" stroke-width="1.11155"/>
<path d="M356.195 266.853C409.035 238.437 537.055 190.019 614.731 253.24C646.812 279.351 727.959 332.688 756.727 301.668L801.557 266.853C831.751 242.602 904.216 208.651 952.526 266.853C1000.84 325.056 1045.62 314.017 1061.98 301.222C1109.79 258.968 1188.79 188.923 1228.05 239.627C1267.3 290.331 1309.19 322.646 1335.61 310.148C1404.42 277.6 1394.42 213.947 1429.97 229.361C1446.95 236.726 1482.81 286.269 1516.78 296.535C1543.95 304.748 1555.15 278.309 1552.63 266.853" stroke="#30153C" stroke-width="1.11155"/>
<path d="M356.195 267.971C409.035 243.473 537.055 201.734 614.731 256.235C646.812 278.744 727.959 324.725 756.727 297.983L801.557 267.971C831.751 247.065 904.216 217.796 952.526 267.971C1000.84 318.145 1045.62 308.629 1061.98 297.598C1109.79 261.173 1188.79 200.789 1228.05 244.5C1267.3 288.21 1309.19 316.068 1335.61 305.294C1404.42 277.235 1394.42 222.362 1429.97 235.65C1446.95 241.998 1482.81 284.708 1516.78 293.558C1543.95 300.638 1555.15 277.847 1552.63 267.971" stroke="#30153C" stroke-width="1.11155"/>
<path d="M352.422 267.527C405.428 247.276 533.852 212.772 611.774 257.826C643.956 276.433 725.358 314.444 754.218 292.337L799.188 267.527C829.477 250.245 902.172 226.049 950.634 267.527C999.097 309.005 1044.03 301.138 1060.43 292.019C1108.39 261.908 1187.65 211.99 1227.02 248.124C1266.4 284.258 1308.43 307.287 1334.93 298.381C1403.95 275.185 1393.92 229.824 1429.58 240.808C1446.62 246.057 1482.59 281.364 1516.66 288.679C1543.92 294.532 1555.16 275.691 1552.63 267.527" stroke="#30153C" stroke-width="1.11155"/>
<path d="M356.195 268.62C409.201 250.982 537.625 220.93 615.547 260.17C647.729 276.377 729.132 309.483 757.991 290.229L802.962 268.62C833.251 253.568 905.945 232.494 954.408 268.62C1002.87 304.746 1047.8 297.894 1064.21 289.952C1112.16 263.726 1191.42 220.249 1230.8 251.721C1270.17 283.192 1312.2 303.25 1338.7 295.493C1407.73 275.29 1397.7 235.782 1433.36 245.349C1450.39 249.92 1486.36 280.671 1520.44 287.043C1547.7 292.141 1558.93 275.731 1556.41 268.62" stroke="#30153C" stroke-width="1.11155"/>
<path d="M356.195 269.221C409.201 255.829 537.625 233.012 615.547 262.805C647.729 275.111 729.132 300.247 757.991 285.628L802.962 269.221C833.251 257.792 905.945 241.792 954.408 269.221C1002.87 296.65 1047.8 291.447 1064.21 285.417C1112.16 265.505 1191.42 232.495 1230.8 256.39C1270.17 280.285 1312.2 295.514 1338.7 289.624C1407.73 274.285 1397.7 244.288 1433.36 251.552C1450.39 255.023 1486.36 278.371 1520.44 283.209C1547.7 287.079 1558.93 274.62 1556.41 269.221" stroke="#30153C" stroke-width="1.11155"/>
<path d="M352.422 269.293C405.761 259.821 534.993 243.682 613.405 264.755C645.789 273.459 727.704 291.238 756.744 280.898L801.998 269.293C832.478 261.21 905.629 249.892 954.397 269.293C1003.16 288.694 1048.38 285.014 1064.89 280.749C1113.15 266.665 1192.9 243.316 1232.52 260.218C1272.15 277.119 1314.44 287.891 1341.11 283.725C1410.57 272.875 1400.47 251.658 1436.36 256.796C1453.5 259.251 1489.7 275.765 1523.99 279.187C1551.42 281.925 1562.72 273.112 1560.18 269.293" stroke="#30153C" stroke-width="1.11155"/>
</g>
<path d="M232.008 265.309C290.131 167.063 430.952 -0.333004 516.396 218.243C551.685 308.517 640.945 492.923 672.59 385.674L721.902 265.309C755.115 181.465 834.827 64.0835 887.968 265.309C941.109 466.535 990.375 428.368 1008.37 384.131C1060.95 238.047 1147.86 -4.12343 1191.04 171.178C1234.22 346.479 1280.3 458.202 1309.36 414.994C1385.05 302.462 1374.05 82.3955 1413.15 135.685C1431.83 161.147 1471.27 332.436 1508.64 367.928C1538.53 396.322 1550.85 304.917 1548.08 265.309" stroke="url(#paint0_linear_242_150)" stroke-width="1.11155"/>
<path d="M236.135 266.973C293.89 174.562 433.818 17.1109 518.721 222.703C553.786 307.614 642.481 481.064 673.926 380.187L722.925 266.973C755.928 188.109 835.134 77.7008 887.939 266.973C940.743 456.244 989.697 420.345 1007.57 378.736C1059.83 241.33 1146.19 13.5457 1189.09 178.433C1231.99 343.32 1277.78 448.406 1306.66 407.765C1381.87 301.918 1370.94 94.9249 1409.79 145.049C1428.36 168.998 1467.55 330.111 1504.68 363.495C1534.38 390.202 1546.62 304.227 1543.87 266.973" stroke="url(#paint1_linear_242_150)" stroke-width="1.11155"/>
<path d="M232.008 270.98C290.131 184.893 430.952 38.2146 516.396 229.739C551.685 308.841 640.945 470.424 672.59 376.449L721.902 270.98C755.115 197.513 834.827 94.6588 887.968 270.98C941.109 447.302 990.375 413.859 1008.37 375.097C1060.95 247.092 1147.86 34.8933 1191.04 188.499C1234.22 342.104 1280.3 440 1309.36 402.14C1385.05 303.535 1374.05 110.704 1413.15 157.399C1431.83 179.71 1471.27 329.799 1508.64 360.899C1538.53 385.779 1550.85 305.686 1548.08 270.98" stroke="url(#paint2_linear_242_150)" stroke-width="1.11155"/>
<path d="M232.008 265.524C290.127 178.951 430.938 31.4436 516.377 224.05C551.663 303.599 640.918 466.095 672.561 371.589L721.869 265.524C755.08 191.642 834.787 88.2067 887.924 265.524C941.062 442.842 990.324 409.21 1008.31 370.229C1060.9 241.501 1147.8 28.1035 1190.97 182.577C1234.15 337.05 1280.23 435.499 1309.29 397.425C1384.97 298.263 1373.97 104.343 1413.07 151.301C1431.75 173.738 1471.19 324.676 1508.55 355.951C1538.44 380.971 1550.76 300.426 1547.99 265.524" stroke="url(#paint3_linear_242_150)" stroke-width="1.11155"/>
<path d="M232.008 257.743C290.127 171.169 430.938 23.6623 516.377 216.269C551.663 295.817 640.918 458.313 672.561 363.807L721.869 257.743C755.08 183.861 834.787 80.4254 887.924 257.743C941.062 435.061 990.324 401.429 1008.31 362.448C1060.9 233.72 1147.8 20.3223 1190.97 174.795C1234.15 329.269 1280.23 427.718 1309.29 389.644C1384.97 290.482 1373.97 96.5617 1413.07 143.52C1431.75 165.957 1471.19 316.894 1508.55 348.17C1538.44 373.19 1550.76 292.645 1547.99 257.743" stroke="url(#paint4_linear_242_150)" stroke-width="1.11155"/>
<path d="M236.135 266.473C293.89 189.14 433.818 57.3786 518.721 229.426C553.786 300.484 642.481 445.634 673.926 361.216L722.925 266.473C755.928 200.477 835.134 108.083 887.939 266.473C940.743 424.864 989.697 394.822 1007.57 360.002C1059.83 245.014 1146.19 54.3951 1189.09 192.38C1231.99 330.364 1277.78 418.305 1306.66 384.294C1381.87 295.717 1370.94 122.497 1409.79 164.443C1428.36 184.484 1467.55 319.311 1504.68 347.248C1534.38 369.597 1546.62 297.649 1543.87 266.473" stroke="url(#paint5_linear_242_150)" stroke-width="1.11155"/>
<path d="M236.135 263.487C293.89 192.963 433.818 72.8027 518.721 229.702C553.786 294.502 642.481 426.872 673.926 349.887L722.925 263.487C755.928 203.301 835.134 119.042 887.939 263.487C940.743 407.931 989.697 380.534 1007.57 348.78C1059.83 243.917 1146.19 70.0818 1189.09 195.917C1231.99 321.752 1277.78 401.949 1306.66 370.933C1381.87 290.156 1370.94 132.187 1409.79 170.44C1428.36 188.717 1467.55 311.671 1504.68 337.149C1534.38 357.53 1546.62 291.917 1543.87 263.487" stroke="url(#paint6_linear_242_150)" stroke-width="1.11155"/>
<path d="M232.008 262.038C289.945 197.351 430.315 87.1348 515.485 231.049C550.661 290.487 639.636 411.902 671.18 341.288L720.334 262.038C753.441 206.834 832.897 129.548 885.868 262.038C938.839 394.528 987.947 369.398 1005.88 340.272C1058.3 244.088 1144.93 84.6392 1187.97 200.06C1231.01 315.481 1276.94 389.042 1305.91 360.593C1381.36 286.5 1370.39 141.605 1409.37 176.691C1427.99 193.456 1467.31 306.235 1504.55 329.604C1534.35 348.299 1546.63 288.116 1543.87 262.038" stroke="url(#paint7_linear_242_150)" stroke-width="1.11155"/>
<path d="M236.135 262.933C293.89 204.568 433.818 105.125 518.721 234.973C553.786 288.601 642.481 398.148 673.926 334.437L722.925 262.933C755.928 213.124 835.134 143.392 887.939 262.933C940.743 382.473 989.697 359.799 1007.57 333.52C1059.83 246.737 1146.19 102.874 1189.09 207.013C1231.99 311.152 1277.78 377.522 1306.66 351.854C1381.87 285.004 1370.94 154.271 1409.79 185.928C1428.36 201.054 1467.55 302.81 1504.68 323.894C1534.38 340.762 1546.62 286.462 1543.87 262.933" stroke="url(#paint8_linear_242_150)" stroke-width="1.11155"/>
<path d="M236.135 265.348C293.89 211.361 433.818 119.376 518.721 239.485C553.786 289.091 642.481 390.423 673.926 331.489L722.925 265.348C755.928 219.275 835.134 154.773 887.939 265.348C940.743 375.923 989.697 354.95 1007.57 330.641C1059.83 250.367 1146.19 117.293 1189.09 213.622C1231.99 309.951 1277.78 371.343 1306.66 347.6C1381.87 285.764 1370.94 164.836 1409.79 194.119C1428.36 208.11 1467.55 302.234 1504.68 321.738C1534.38 337.34 1546.62 287.112 1543.87 265.348" stroke="url(#paint9_linear_242_150)" stroke-width="1.11155"/>
<path d="M236.135 263.899C293.89 215.749 433.818 133.708 518.721 240.832C553.786 285.076 642.481 375.452 673.926 322.89L722.925 263.899C755.928 222.807 835.134 165.279 887.939 263.899C940.743 362.52 989.697 343.814 1007.57 322.134C1059.83 250.538 1146.19 131.851 1189.09 217.765C1231.99 303.68 1277.78 358.436 1306.66 337.26C1381.87 282.108 1370.94 174.253 1409.79 200.371C1428.36 212.85 1467.55 296.798 1504.68 314.193C1534.38 328.109 1546.62 283.311 1543.87 263.899" stroke="url(#paint10_linear_242_150)" stroke-width="1.11155"/>
<path d="M236.135 264.007C293.89 221.693 433.818 149.597 518.721 243.736C553.786 282.616 642.481 362.038 673.926 315.847L722.925 264.007C755.928 227.896 835.134 177.34 887.939 264.007C940.743 350.674 989.697 334.235 1007.57 315.183C1059.83 252.265 1146.19 147.964 1189.09 223.465C1231.99 298.966 1277.78 347.085 1306.66 328.475C1381.87 280.008 1370.94 185.227 1409.79 208.179C1428.36 219.145 1467.55 292.918 1504.68 308.204C1534.38 320.433 1546.62 281.066 1543.87 264.007" stroke="url(#paint11_linear_242_150)" stroke-width="1.11155"/>
<path d="M236.135 265.671C293.89 229.193 433.818 167.042 518.721 248.196C553.786 281.714 642.481 350.181 673.926 310.361L722.925 265.671C755.928 234.541 835.134 190.959 887.939 265.671C940.743 340.384 989.697 326.213 1007.57 309.788C1059.83 255.549 1146.19 165.634 1189.09 230.721C1231.99 295.808 1277.78 337.29 1306.66 321.247C1381.87 279.466 1370.94 197.758 1409.79 217.543C1428.36 226.997 1467.55 290.594 1504.68 303.772C1534.38 314.315 1546.62 280.377 1543.87 265.671" stroke="url(#paint12_linear_242_150)" stroke-width="1.11155"/>
<path d="M232.008 265.009C289.945 234.854 430.315 183.475 515.485 250.563C550.661 278.271 639.636 334.871 671.18 301.953L720.334 265.009C753.441 239.275 832.897 203.247 885.868 265.009C938.839 326.772 987.947 315.057 1005.88 301.479C1058.3 256.642 1144.93 182.312 1187.97 236.117C1231.01 289.923 1276.94 324.214 1305.91 310.952C1381.36 276.413 1370.39 208.867 1409.37 225.224C1427.99 233.039 1467.31 285.612 1504.55 296.506C1534.35 305.221 1546.63 277.166 1543.87 265.009" stroke="url(#paint13_linear_242_150)" stroke-width="1.11155"/>
<path d="M236.135 266.637C294.072 240.373 434.442 195.624 519.612 254.055C554.788 278.188 643.763 327.484 675.307 298.814L724.461 266.637C757.567 244.223 837.024 212.844 889.995 266.637C942.966 320.43 992.074 310.227 1010.01 298.401C1062.43 259.349 1149.06 194.61 1192.09 241.473C1235.13 288.336 1281.07 318.202 1310.04 306.652C1385.48 276.569 1374.52 217.739 1413.5 231.985C1432.12 238.792 1471.43 284.582 1508.68 294.07C1538.48 301.66 1550.75 277.225 1547.99 266.637" stroke="url(#paint14_linear_242_150)" stroke-width="1.11155"/>
<path d="M236.135 267.533C294.072 247.591 434.442 213.615 519.612 257.98C554.788 276.303 643.763 313.731 675.307 291.963L724.461 267.533C757.567 250.515 837.024 226.69 889.995 267.533C942.966 308.375 992.074 300.629 1010.01 291.65C1062.43 261.999 1149.06 212.846 1192.09 248.427C1235.13 284.008 1281.07 306.684 1310.04 297.914C1385.48 275.074 1374.52 230.407 1413.5 241.223C1432.12 246.391 1471.43 281.157 1508.68 288.361C1538.48 294.124 1550.75 275.572 1547.99 267.533" stroke="url(#paint15_linear_242_150)" stroke-width="1.11155"/>
<path d="M232.008 267.64C290.309 253.535 431.562 229.503 517.268 260.883C552.665 273.843 642.199 300.317 673.942 284.92L723.405 267.64C756.72 255.603 836.676 238.751 889.98 267.64C943.284 296.529 992.702 291.049 1010.75 284.698C1063.5 263.726 1150.67 228.959 1193.98 254.126C1237.29 279.293 1283.51 295.332 1312.67 289.129C1388.59 272.974 1377.55 241.38 1416.77 249.03C1435.51 252.686 1475.08 277.277 1512.56 282.372C1542.54 286.448 1554.89 273.326 1552.12 267.64" stroke="url(#paint16_linear_242_150)" stroke-width="1.11155"/>
<g opacity="0.6" filter="url(#filter3_f_242_150)">
<path d="M288.193 243.059C346.842 161.836 488.938 23.4441 575.155 204.148C610.764 278.781 700.832 431.235 732.764 342.569L782.522 243.059C816.036 173.743 896.469 76.6994 950.091 243.059C1003.71 409.419 1053.42 377.865 1071.58 341.293C1124.64 220.521 1212.34 20.3105 1255.9 165.238C1299.47 310.165 1345.97 402.53 1375.3 366.809C1451.67 273.775 1440.57 91.8385 1480.03 135.895C1498.88 156.945 1538.68 298.555 1576.38 327.898C1606.54 351.372 1618.97 275.804 1616.18 243.059" stroke="#3D1B4D" stroke-width="1.11155"/>
<path d="M292.357 245.71C350.639 170.06 491.843 41.1665 577.52 209.469C612.905 278.98 702.409 420.972 734.14 338.391L783.587 245.71C816.89 181.15 896.819 90.767 950.105 245.71C1003.39 400.653 1052.79 371.265 1070.83 337.203C1123.56 224.718 1210.71 38.2479 1254 173.229C1297.3 308.21 1343.5 394.237 1372.65 360.967C1448.54 274.318 1437.51 104.867 1476.72 145.9C1495.45 165.506 1535 297.397 1572.47 324.726C1602.44 346.589 1614.79 276.208 1612.02 245.71" stroke="#3D1B4D" stroke-width="1.11155"/>
<path d="M288.193 249.619C346.842 178.748 488.938 57.9945 575.155 215.668C610.764 280.788 700.832 413.812 732.764 336.447L782.522 249.619C816.036 189.137 896.469 104.462 950.091 249.619C1003.71 394.777 1053.42 367.244 1071.58 335.333C1124.64 229.954 1212.34 55.2602 1255.9 181.716C1299.47 308.172 1345.97 388.766 1375.3 357.597C1451.67 276.42 1440.57 117.672 1480.03 156.113C1498.88 174.481 1538.68 298.042 1576.38 323.645C1606.54 344.127 1618.97 278.191 1616.18 249.619" stroke="#3D1B4D" stroke-width="1.11155"/>
<path d="M288.193 244.524C346.842 173.652 488.938 52.8988 575.155 210.572C610.764 275.692 700.832 408.716 732.764 331.351L782.522 244.524C816.036 184.042 896.469 99.3666 950.091 244.524C1003.71 389.681 1053.42 362.149 1071.58 330.238C1124.64 224.858 1212.34 50.1645 1255.9 176.62C1299.47 303.076 1345.97 383.67 1375.3 352.501C1451.67 271.325 1440.57 112.576 1480.03 151.018C1498.88 169.385 1538.68 292.947 1576.38 318.549C1606.54 339.032 1618.97 273.095 1616.18 244.524" stroke="#3D1B4D" stroke-width="1.11155"/>
<path d="M288.193 238.155C346.842 167.283 488.938 46.5296 575.155 204.203C610.764 269.323 700.832 402.347 732.764 324.982L782.522 238.155C816.036 177.672 896.469 92.9974 950.091 238.155C1003.71 383.312 1053.42 355.779 1071.58 323.869C1124.64 218.489 1212.34 43.7953 1255.9 170.251C1299.47 296.707 1345.97 377.301 1375.3 346.132C1451.67 264.955 1440.57 106.207 1480.03 144.648C1498.88 163.016 1538.68 286.577 1576.38 312.18C1606.54 332.663 1618.97 266.726 1616.18 238.155" stroke="#3D1B4D" stroke-width="1.11155"/>
<path d="M292.357 245.3C350.639 181.994 491.843 74.1297 577.52 214.973C612.905 273.142 702.409 391.967 734.14 322.859L783.587 245.3C816.89 191.274 896.819 115.637 950.105 245.3C1003.39 374.963 1052.79 350.37 1070.83 321.865C1123.56 227.734 1210.71 71.6873 1254 184.645C1297.3 297.603 1343.5 369.594 1372.65 341.752C1448.54 269.24 1437.51 127.437 1476.72 161.775C1495.45 178.182 1535 288.554 1572.47 311.424C1602.44 329.72 1614.79 270.822 1612.02 245.3" stroke="#3D1B4D" stroke-width="1.11155"/>
<path d="M292.357 242.855C350.639 185.123 491.843 86.7563 577.52 215.198C612.905 268.246 702.409 376.607 734.14 313.585L783.587 242.855C816.89 193.586 896.819 124.609 950.105 242.855C1003.39 361.101 1052.79 338.673 1070.83 312.679C1123.56 226.835 1210.71 84.529 1254 187.541C1297.3 290.553 1343.5 356.205 1372.65 330.814C1448.54 264.687 1437.51 135.37 1476.72 166.685C1495.45 181.647 1535 282.301 1572.47 303.157C1602.44 319.842 1614.79 266.13 1612.02 242.855" stroke="#3D1B4D" stroke-width="1.11155"/>
<path d="M288.193 241.67C346.659 188.715 488.309 98.4896 574.256 216.302C609.752 264.959 699.538 364.353 731.37 306.546L780.972 241.67C814.381 196.478 894.562 133.21 948.016 241.67C1001.47 350.13 1051.03 329.558 1069.12 305.715C1122.02 226.976 1209.44 96.4466 1252.87 190.933C1296.3 285.42 1342.66 345.639 1371.89 322.35C1448.02 261.695 1436.96 143.08 1476.29 171.803C1495.08 185.527 1534.76 277.851 1572.34 296.981C1602.41 312.286 1614.8 263.018 1612.01 241.67" stroke="#3D1B4D" stroke-width="1.11155"/>
<path d="M292.357 242.403C350.639 194.624 491.843 113.217 577.52 219.514C612.905 263.415 702.409 353.094 734.14 300.938L783.587 242.403C816.89 201.628 896.819 144.544 950.105 242.403C1003.39 340.261 1052.79 321.7 1070.83 300.187C1123.56 229.145 1210.71 111.374 1254 196.625C1297.3 281.876 1343.5 336.209 1372.65 315.196C1448.54 260.47 1437.51 153.449 1476.72 179.365C1495.45 191.747 1535 275.047 1572.47 292.307C1602.44 306.116 1614.79 261.664 1612.02 242.403" stroke="#3D1B4D" stroke-width="1.11155"/>
<path d="M292.357 244.38C350.639 200.184 491.843 124.883 577.52 223.207C612.905 263.816 702.409 346.769 734.14 298.525L783.587 244.38C816.89 206.663 896.819 153.86 950.105 244.38C1003.39 334.899 1052.79 317.73 1070.83 297.83C1123.56 232.116 1210.71 123.178 1254 202.035C1297.3 280.893 1343.5 331.15 1372.65 311.714C1448.54 261.092 1437.51 162.098 1476.72 186.07C1495.45 197.523 1535 274.576 1572.47 290.542C1602.44 303.314 1614.79 262.196 1612.02 244.38" stroke="#3D1B4D" stroke-width="1.11155"/>
<path d="M292.357 243.193C350.639 203.776 491.843 136.615 577.52 224.31C612.905 260.529 702.409 334.514 734.14 291.485L783.587 243.193C816.89 209.554 896.819 162.46 950.105 243.193C1003.39 323.927 1052.79 308.614 1070.83 290.866C1123.56 232.255 1210.71 135.095 1254 205.427C1297.3 275.759 1343.5 320.584 1372.65 303.248C1448.54 258.099 1437.51 169.807 1476.72 191.187C1495.45 201.403 1535 270.125 1572.47 284.365C1602.44 295.757 1614.79 259.084 1612.02 243.193" stroke="#3D1B4D" stroke-width="1.11155"/>
<path d="M292.357 243.282C350.639 208.642 491.843 149.623 577.52 226.688C612.905 258.516 702.409 323.533 734.14 285.72L783.587 243.282C816.89 213.72 896.819 172.334 950.105 243.282C1003.39 314.23 1052.79 300.773 1070.83 285.176C1123.56 233.67 1210.71 148.286 1254 210.093C1297.3 271.9 1343.5 311.292 1372.65 296.057C1448.54 256.381 1437.51 178.791 1476.72 197.579C1495.45 206.557 1535 266.949 1572.47 279.463C1602.44 289.474 1614.79 257.247 1612.02 243.282" stroke="#3D1B4D" stroke-width="1.11155"/>
<path d="M292.357 244.644C350.639 214.782 491.843 163.903 577.52 230.339C612.905 257.777 702.409 313.826 734.14 281.228L783.587 244.644C816.89 219.16 896.819 183.482 950.105 244.644C1003.39 305.806 1052.79 294.205 1070.83 280.759C1123.56 236.358 1210.71 162.751 1254 216.033C1297.3 269.315 1343.5 303.273 1372.65 290.14C1448.54 255.937 1437.51 189.048 1476.72 205.245C1495.45 212.984 1535 265.047 1572.47 275.835C1602.44 284.465 1614.79 256.683 1612.02 244.644" stroke="#3D1B4D" stroke-width="1.11155"/>
<path d="M288.193 244.103C346.659 219.417 488.309 177.357 574.256 232.277C609.752 254.959 699.538 301.293 731.37 274.346L780.972 244.103C814.381 223.036 894.562 193.542 948.016 244.103C1001.47 294.663 1051.03 285.073 1069.12 273.958C1122.02 237.253 1209.44 176.404 1252.87 220.451C1296.3 264.497 1342.66 292.569 1371.89 281.713C1448.02 253.438 1436.96 198.143 1476.29 211.533C1495.08 217.931 1534.76 260.969 1572.34 269.887C1602.41 277.021 1614.8 254.054 1612.01 244.103" stroke="#3D1B4D" stroke-width="1.11155"/>
<path d="M292.357 245.435C350.823 223.934 492.473 187.301 578.42 235.135C613.916 254.89 703.702 295.246 735.534 271.776L785.136 245.435C818.545 227.086 898.726 201.398 952.18 245.435C1005.63 289.471 1055.19 281.119 1073.29 271.438C1126.18 239.469 1213.6 186.472 1257.03 224.835C1300.47 263.198 1346.82 287.648 1376.05 278.192C1452.19 253.565 1441.12 205.406 1480.46 217.068C1499.25 222.64 1538.92 260.125 1576.51 267.892C1606.57 274.106 1618.96 254.103 1616.18 245.435" stroke="#3D1B4D" stroke-width="1.11155"/>
<path d="M292.357 246.167C350.823 229.843 492.473 202.029 578.42 238.347C613.916 253.347 703.702 283.987 735.534 266.167L785.136 246.167C818.545 232.236 898.726 212.732 952.18 246.167C1005.63 279.602 1055.19 273.261 1073.29 265.91C1126.18 241.637 1213.6 201.399 1257.03 230.527C1300.47 259.654 1346.82 278.218 1376.05 271.038C1452.19 252.34 1441.12 215.775 1480.46 224.629C1499.25 228.86 1538.92 257.321 1576.51 263.218C1606.57 267.936 1618.96 252.748 1616.18 246.167" stroke="#3D1B4D" stroke-width="1.11155"/>
<path d="M288.193 246.256C347.026 234.709 489.567 215.036 576.055 240.724C611.775 251.334 702.126 273.006 734.157 260.402L784.071 246.256C817.69 236.402 898.376 222.607 952.166 246.256C1005.96 269.905 1055.82 265.42 1074.03 260.221C1127.26 243.052 1215.23 214.591 1258.94 235.193C1302.64 255.795 1349.29 268.926 1378.7 263.848C1455.32 250.622 1444.19 224.759 1483.76 231.022C1502.67 234.014 1542.6 254.145 1580.42 258.316C1610.68 261.653 1623.14 250.911 1620.34 246.256" stroke="#3D1B4D" stroke-width="1.11155"/>
</g>
<g opacity="0.6" filter="url(#filter4_f_242_150)">
<path d="M23.3008 219.717C94.8457 138.493 268.185 0.101376 373.36 180.806C416.798 255.438 526.67 407.892 565.623 319.226L626.322 219.717C667.205 150.4 765.323 53.3566 830.736 219.717C896.148 386.076 956.791 354.523 978.936 317.951C1043.67 197.178 1150.64 -3.0323 1203.79 141.895C1256.94 286.822 1313.66 379.187 1349.44 343.466C1442.6 250.432 1429.06 68.4957 1477.19 112.552C1500.19 133.602 1548.74 275.212 1594.73 304.555C1631.53 328.029 1646.69 252.461 1643.28 219.717" stroke="#404AA3" stroke-opacity="0.18" stroke-width="1.11155"/>
<path d="M28.3828 222.367C99.4791 146.718 271.732 17.8237 376.247 186.127C419.413 255.637 528.596 397.629 567.305 315.048L627.623 222.367C668.25 157.808 765.753 67.4242 830.755 222.367C895.758 377.31 956.02 347.922 978.026 313.86C1042.35 201.375 1148.66 14.9051 1201.47 149.886C1254.29 284.867 1310.66 370.894 1346.2 337.624C1438.79 250.975 1425.33 81.5243 1473.16 122.557C1496.01 142.163 1544.26 274.054 1589.96 301.383C1626.53 323.247 1641.59 252.865 1638.21 222.367" stroke="#404AA3" stroke-opacity="0.18" stroke-width="1.11155"/>
<path d="M23.3008 226.278C94.8457 155.406 268.185 34.6527 373.36 192.326C416.798 257.446 526.67 390.47 565.623 313.105L626.322 226.278C667.205 165.796 765.323 81.1205 830.736 226.278C896.148 371.435 956.791 343.903 978.936 311.992C1043.67 206.612 1150.64 31.9184 1203.79 158.374C1256.94 284.83 1313.66 365.424 1349.44 334.255C1442.6 253.078 1429.06 94.3301 1477.19 132.771C1500.19 151.139 1548.74 274.7 1594.73 300.303C1631.53 320.786 1646.69 254.849 1643.28 226.278" stroke="#404AA3" stroke-opacity="0.18" stroke-width="1.11155"/>
<path d="M23.3008 221.181C94.8457 150.31 268.185 29.5565 373.36 187.23C416.798 252.35 526.67 385.374 565.623 308.009L626.322 221.181C667.205 160.699 765.323 76.0243 830.736 221.181C896.148 366.339 956.791 338.806 978.936 306.895C1043.67 201.516 1150.64 26.8222 1203.79 153.278C1256.94 279.734 1313.66 360.328 1349.44 329.159C1442.6 247.982 1429.06 89.2339 1477.19 127.675C1500.19 146.043 1548.74 269.604 1594.73 295.207C1631.53 315.689 1646.69 249.753 1643.28 221.181" stroke="#404AA3" stroke-opacity="0.18" stroke-width="1.11155"/>
<path d="M23.3008 214.812C94.8457 143.94 268.185 23.1869 373.36 180.86C416.798 245.981 526.67 379.004 565.623 301.639L626.322 214.812C667.205 154.33 765.323 69.6547 830.736 214.812C896.148 359.969 956.791 332.437 978.936 300.526C1043.67 195.146 1150.64 20.4526 1203.79 146.909C1256.94 273.365 1313.66 353.958 1349.44 322.789C1442.6 241.613 1429.06 82.8643 1477.19 121.306C1500.19 139.673 1548.74 263.235 1594.73 288.838C1631.53 309.32 1646.69 243.383 1643.28 214.812" stroke="#404AA3" stroke-opacity="0.18" stroke-width="1.11155"/>
<path d="M28.3828 221.958C99.4791 158.651 271.732 50.7874 376.247 191.63C419.413 249.8 528.596 368.624 567.305 299.517L627.623 221.958C668.25 167.932 765.753 92.2952 830.755 221.958C895.758 351.621 956.02 327.027 978.026 298.523C1042.35 204.391 1148.66 48.345 1201.47 161.303C1254.29 274.261 1310.66 346.251 1346.2 318.41C1438.79 245.898 1425.33 104.095 1473.16 138.433C1496.01 154.84 1544.26 265.212 1589.96 288.082C1626.53 306.378 1641.59 247.48 1638.21 221.958" stroke="#404AA3" stroke-opacity="0.18" stroke-width="1.11155"/>
<path d="M28.3828 219.514C99.4791 161.781 271.732 63.4145 376.247 191.856C419.413 244.904 528.596 353.266 567.305 290.243L627.623 219.514C668.25 170.244 765.753 101.268 830.755 219.514C895.758 337.76 956.02 315.332 978.026 289.337C1042.35 203.494 1148.66 61.1872 1201.47 164.199C1254.29 267.211 1310.66 332.863 1346.2 307.473C1438.79 241.346 1425.33 112.028 1473.16 143.343C1496.01 158.305 1544.26 258.959 1589.96 279.815C1626.53 296.5 1641.59 242.788 1638.21 219.514" stroke="#404AA3" stroke-opacity="0.18" stroke-width="1.11155"/>
<path d="M23.3008 218.328C94.6214 165.373 267.417 75.1473 372.262 192.959C415.564 241.617 525.092 341.011 563.923 283.204L624.432 218.328C665.186 173.136 762.997 109.868 828.205 218.328C893.412 326.788 953.865 306.216 975.94 282.373C1040.47 203.634 1147.11 73.1043 1200.09 167.591C1253.07 262.078 1309.62 322.296 1345.28 299.007C1438.15 238.353 1424.66 119.738 1472.64 148.461C1495.56 162.185 1543.96 254.509 1589.81 273.639C1626.49 288.943 1641.6 239.676 1638.2 218.328" stroke="#404AA3" stroke-opacity="0.18" stroke-width="1.11155"/>
<path d="M28.3828 219.06C99.4791 171.281 271.732 89.8744 376.247 196.171C419.413 240.072 528.596 329.751 567.305 277.595L627.623 219.06C668.25 178.285 765.753 121.201 830.755 219.06C895.758 316.919 956.02 298.357 978.026 276.844C1042.35 205.802 1148.66 88.031 1201.47 173.282C1254.29 258.533 1310.66 312.866 1346.2 291.853C1438.79 237.128 1425.33 130.106 1473.16 156.022C1496.01 168.404 1544.26 251.704 1589.96 268.965C1626.53 282.773 1641.59 238.321 1638.21 219.06" stroke="#404AA3" stroke-opacity="0.18" stroke-width="1.11155"/>
<path d="M28.3828 221.037C99.4791 176.841 271.732 101.54 376.247 199.865C419.413 240.473 528.596 323.426 567.305 275.182L627.623 221.037C668.25 183.32 765.753 130.517 830.755 221.037C895.758 311.556 956.02 294.387 978.026 274.488C1042.35 208.773 1148.66 99.8352 1201.47 178.693C1254.29 257.55 1310.66 307.808 1346.2 288.371C1438.79 237.75 1425.33 138.755 1473.16 162.727C1496.01 174.18 1544.26 251.233 1589.96 267.199C1626.53 279.972 1641.59 238.854 1638.21 221.037" stroke="#404AA3" stroke-opacity="0.18" stroke-width="1.11155"/>
<path d="M28.3828 219.851C99.4791 180.434 271.732 113.273 376.247 200.968C419.413 237.186 528.596 311.171 567.305 268.143L627.623 219.851C668.25 186.212 765.753 139.118 830.755 219.851C895.758 300.585 956.02 285.272 978.026 267.523C1042.35 208.913 1148.66 111.752 1201.47 182.085C1254.29 252.417 1310.66 297.241 1346.2 279.906C1438.79 234.757 1425.33 146.464 1473.16 167.845C1496.01 178.06 1544.26 246.783 1589.96 261.023C1626.53 272.414 1641.59 235.742 1638.21 219.851" stroke="#404AA3" stroke-opacity="0.18" stroke-width="1.11155"/>
<path d="M28.3828 219.94C99.4791 185.3 271.732 126.28 376.247 203.345C419.413 235.174 528.596 300.191 567.305 262.378L627.623 219.94C668.25 190.378 765.753 148.992 830.755 219.94C895.758 290.887 956.02 277.43 978.026 261.834C1042.35 210.328 1148.66 124.944 1201.47 186.751C1254.29 248.558 1310.66 287.949 1346.2 272.715C1438.79 233.039 1425.33 155.448 1473.16 174.237C1496.01 183.214 1544.26 243.607 1589.96 256.121C1626.53 266.132 1641.59 233.904 1638.21 219.94" stroke="#404AA3" stroke-opacity="0.18" stroke-width="1.11155"/>
<path d="M28.3828 221.301C99.4791 191.44 271.732 140.56 376.247 206.996C419.413 234.434 528.596 290.483 567.305 257.886L627.623 221.301C668.25 195.817 765.753 160.14 830.755 221.301C895.758 282.463 956.02 270.862 978.026 257.417C1042.35 213.015 1148.66 139.408 1201.47 192.69C1254.29 245.972 1310.66 279.93 1346.2 266.797C1438.79 232.594 1425.33 165.705 1473.16 181.903C1496.01 189.642 1544.26 241.704 1589.96 252.492C1626.53 261.122 1641.59 233.34 1638.21 221.301" stroke="#404AA3" stroke-opacity="0.18" stroke-width="1.11155"/>
<path d="M23.3008 220.76C94.6214 196.074 267.417 154.014 372.262 208.934C415.564 231.616 525.092 277.95 563.923 251.003L624.432 220.76C665.186 199.693 762.997 170.199 828.205 220.76C893.412 271.32 953.865 261.73 975.94 250.615C1040.47 213.91 1147.11 153.062 1200.09 197.108C1253.07 241.155 1309.62 269.226 1345.28 258.37C1438.15 230.095 1424.66 174.801 1472.64 188.19C1495.56 194.588 1543.96 237.626 1589.81 246.544C1626.49 253.678 1641.6 230.712 1638.2 220.76" stroke="#404AA3" stroke-opacity="0.18" stroke-width="1.11155"/>
<path d="M28.3828 222.093C99.7034 200.593 272.499 163.96 377.344 211.793C420.646 231.549 530.174 271.904 569.005 248.434L629.514 222.093C670.268 203.744 768.079 178.057 833.287 222.093C898.494 266.129 958.947 257.777 981.022 248.096C1045.55 216.127 1152.19 163.13 1205.17 201.493C1258.15 239.856 1314.7 264.306 1350.36 254.85C1443.24 230.224 1429.74 182.064 1477.72 193.726C1500.64 199.298 1549.04 236.783 1594.89 244.55C1631.57 250.764 1646.68 230.761 1643.29 222.093" stroke="#404AA3" stroke-opacity="0.18" stroke-width="1.11155"/>
<path d="M28.3828 222.825C99.7034 206.501 272.499 178.687 377.344 215.005C420.646 230.005 530.174 260.645 569.005 242.825L629.514 222.825C670.268 208.894 768.079 189.39 833.287 222.825C898.494 256.261 958.947 249.919 981.022 242.569C1045.55 218.296 1152.19 178.057 1205.17 207.185C1258.15 236.312 1314.7 254.876 1350.36 247.697C1443.24 228.999 1429.74 192.433 1477.72 201.288C1500.64 205.518 1549.04 233.979 1594.89 239.876C1631.57 244.594 1646.68 229.407 1643.29 222.825" stroke="#404AA3" stroke-opacity="0.18" stroke-width="1.11155"/>
<path d="M23.3008 222.914C95.0699 211.367 268.953 191.694 374.457 217.382C418.031 227.992 528.248 249.664 567.323 237.06L628.212 222.914C669.223 213.06 767.649 199.264 833.267 222.914C898.884 246.563 959.717 242.077 981.931 236.878C1046.87 219.71 1154.18 191.248 1207.49 211.851C1260.81 232.453 1317.71 245.584 1353.59 240.505C1447.05 227.28 1433.47 201.417 1481.75 207.679C1504.82 210.672 1553.52 230.803 1599.66 234.974C1636.57 238.311 1651.78 227.569 1648.36 222.914" stroke="#404AA3" stroke-opacity="0.18" stroke-width="1.11155"/>
</g>
<g opacity="0.6" filter="url(#filter5_f_242_150)">
<path d="M1725.09 272.627C1653.54 191.403 1480.2 53.0115 1375.03 233.716C1331.59 308.348 1221.72 460.802 1182.76 372.136L1122.06 272.627C1081.18 203.31 983.063 106.267 917.651 272.627C852.238 438.987 791.596 407.433 769.451 370.861C704.72 250.088 597.743 49.8779 544.595 194.805C491.448 339.732 434.723 432.097 398.95 396.376C305.784 303.342 319.322 121.406 271.192 165.462C248.195 186.512 199.647 328.122 153.654 357.465C116.859 380.939 101.698 305.371 105.105 272.627" stroke="#361844" stroke-width="1.11155"/>
<path d="M1720 275.277C1648.91 199.628 1476.65 70.7339 1372.14 239.037C1328.97 308.547 1219.79 450.539 1181.08 367.958L1120.76 275.277C1080.14 210.718 982.634 120.334 917.631 275.277C852.629 430.22 792.366 400.832 770.36 366.77C706.035 254.286 599.729 67.8152 546.915 202.796C494.1 337.778 437.731 423.804 402.183 390.534C309.601 303.885 323.054 134.434 275.225 175.467C252.373 195.073 204.129 326.965 158.424 354.294C121.86 376.157 106.795 305.775 110.18 275.277" stroke="#361844" stroke-width="1.11155"/>
<path d="M1725.09 279.187C1653.54 208.316 1480.2 87.5623 1375.03 245.236C1331.59 310.356 1221.72 443.38 1182.76 366.014L1122.06 279.187C1081.18 218.705 983.063 134.03 917.651 279.187C852.238 424.345 791.596 396.812 769.451 364.901C704.72 259.521 597.743 84.8281 544.595 211.284C491.448 337.74 434.723 418.333 398.95 387.165C305.784 305.988 319.322 147.24 271.192 185.681C248.195 204.048 199.647 327.61 153.654 353.213C116.859 373.695 101.698 307.759 105.105 279.187" stroke="#361844" stroke-width="1.11155"/>
<path d="M1725.09 274.091C1653.54 203.219 1480.2 82.4662 1375.03 240.139C1331.59 305.26 1221.72 438.283 1182.76 360.918L1122.06 274.091C1081.18 213.609 983.063 128.934 917.651 274.091C852.238 419.248 791.596 391.716 769.451 359.805C704.72 254.425 597.743 79.7319 544.595 206.188C491.448 332.644 434.723 413.237 398.95 382.068C305.784 300.892 319.322 142.144 271.192 180.585C248.195 198.952 199.647 322.514 153.654 348.117C116.859 368.599 101.698 302.662 105.105 274.091" stroke="#361844" stroke-width="1.11155"/>
<path d="M1725.09 267.722C1653.54 196.85 1480.2 76.0965 1375.03 233.77C1331.59 298.89 1221.72 431.914 1182.76 354.549L1122.06 267.722C1081.18 207.239 983.063 122.564 917.651 267.722C852.238 412.879 791.596 385.346 769.451 353.436C704.72 248.056 597.743 73.3622 544.595 199.818C491.448 326.274 434.723 406.868 398.95 375.699C305.784 294.522 319.322 135.774 271.192 174.215C248.195 192.583 199.647 316.144 153.654 341.747C116.859 362.23 101.698 296.293 105.105 267.722" stroke="#361844" stroke-width="1.11155"/>
<path d="M1720 274.868C1648.91 211.561 1476.65 103.698 1372.14 244.541C1328.97 302.71 1219.79 421.534 1181.08 352.427L1120.76 274.868C1080.14 220.842 982.634 145.205 917.631 274.868C852.629 404.531 792.366 379.938 770.36 351.433C706.035 257.301 599.729 101.255 546.915 214.213C494.1 327.171 437.731 399.162 402.183 371.32C309.601 298.808 323.054 157.005 275.225 191.343C252.373 207.75 204.129 318.122 158.424 340.992C121.86 359.288 106.795 300.39 110.18 274.868" stroke="#361844" stroke-width="1.11155"/>
<path d="M1720 272.423C1648.91 214.69 1476.65 116.324 1372.14 244.765C1328.97 297.813 1219.79 406.175 1181.08 343.153L1120.76 272.423C1080.14 223.154 982.634 154.177 917.631 272.423C852.629 390.669 792.366 368.241 770.36 342.246C706.035 256.403 599.729 114.096 546.915 217.108C494.1 320.12 437.731 385.772 402.183 360.382C309.601 294.255 323.054 164.937 275.225 196.252C252.373 211.214 204.129 311.868 158.424 332.725C121.86 349.41 106.795 295.697 110.18 272.423" stroke="#361844" stroke-width="1.11155"/>
<path d="M1725.09 271.238C1653.77 218.283 1480.97 128.057 1376.12 245.87C1332.82 294.527 1223.29 393.921 1184.46 336.114L1123.96 271.238C1083.2 226.046 985.389 162.778 920.182 271.238C854.975 379.698 794.522 359.126 772.446 335.283C707.918 256.544 601.277 126.014 548.296 220.501C495.315 314.988 438.768 375.207 403.108 351.918C310.233 291.263 323.729 172.648 275.749 201.371C252.825 215.095 204.429 307.419 158.58 326.549C121.901 341.853 106.787 292.586 110.184 271.238" stroke="#361844" stroke-width="1.11155"/>
<path d="M1720 271.969C1648.91 224.191 1476.65 142.784 1372.14 249.081C1328.97 292.982 1219.79 382.661 1181.08 330.505L1120.76 271.969C1080.14 231.195 982.634 174.111 917.631 271.969C852.629 369.828 792.366 351.267 770.36 329.754C706.035 258.711 599.729 140.941 546.915 226.192C494.1 311.443 437.731 365.776 402.183 344.763C309.601 290.037 323.054 183.016 275.225 208.932C252.373 221.314 204.129 304.614 158.424 321.874C121.86 335.683 106.795 291.231 110.18 271.969" stroke="#361844" stroke-width="1.11155"/>
<path d="M1720 273.947C1648.91 229.752 1476.65 154.45 1372.14 252.775C1328.97 293.384 1219.79 376.337 1181.08 328.092L1120.76 273.947C1080.14 236.231 982.634 183.428 917.631 273.947C852.629 364.466 792.366 347.297 770.36 327.398C706.035 261.683 599.729 152.745 546.915 231.603C494.1 310.46 437.731 360.718 402.183 341.281C309.601 290.66 323.054 191.665 275.225 215.637C252.373 227.091 204.129 304.143 158.424 320.109C121.86 332.882 106.795 291.764 110.18 273.947" stroke="#361844" stroke-width="1.11155"/>
<path d="M1720 272.761C1648.91 233.344 1476.65 166.183 1372.14 253.878C1328.97 290.097 1219.79 364.082 1181.08 321.053L1120.76 272.761C1080.14 239.122 982.634 192.028 917.631 272.761C852.629 353.495 792.366 338.182 770.36 320.434C706.035 261.823 599.729 164.662 546.915 234.995C494.1 305.327 437.731 350.151 402.183 332.816C309.601 287.667 323.054 199.375 275.225 220.755C252.373 230.97 204.129 299.693 158.424 313.933C121.86 325.325 106.795 288.652 110.18 272.761" stroke="#361844" stroke-width="1.11155"/>
<path d="M1720 272.849C1648.91 238.209 1476.65 179.189 1372.14 256.254C1328.97 288.083 1219.79 353.1 1181.08 315.287L1120.76 272.849C1080.14 243.287 982.634 201.901 917.631 272.849C852.629 343.796 792.366 330.34 770.36 314.743C706.035 263.237 599.729 177.853 546.915 239.66C494.1 301.467 437.731 340.858 402.183 325.624C309.601 285.948 323.054 208.358 275.225 227.146C252.373 236.124 204.129 296.516 158.424 309.03C121.86 319.041 106.795 286.813 110.18 272.849" stroke="#361844" stroke-width="1.11155"/>
<path d="M1720 274.211C1648.91 244.35 1476.65 193.471 1372.14 259.906C1328.97 287.344 1219.79 343.394 1181.08 310.796L1120.76 274.211C1080.14 248.727 982.634 213.05 917.631 274.211C852.629 335.373 792.366 323.772 770.36 310.327C706.035 265.925 599.729 192.318 546.915 245.6C494.1 298.883 437.731 332.84 402.183 319.707C309.601 285.504 323.054 218.616 275.225 234.813C252.373 242.552 204.129 294.614 158.424 305.402C121.86 314.032 106.795 286.25 110.18 274.211" stroke="#361844" stroke-width="1.11155"/>
<path d="M1725.09 273.67C1653.77 248.984 1480.97 206.924 1376.12 261.844C1332.82 284.526 1223.29 330.861 1184.46 303.913L1123.96 273.67C1083.2 252.603 985.389 223.11 920.182 273.67C854.975 324.23 794.522 314.64 772.446 303.525C707.918 266.82 601.277 205.972 548.296 250.018C495.315 294.065 438.768 322.137 403.108 311.28C310.233 283.005 323.729 227.711 275.749 241.1C252.825 247.498 204.429 290.536 158.58 299.454C121.901 306.588 106.787 283.622 110.184 273.67" stroke="#361844" stroke-width="1.11155"/>
<path d="M1720 275.003C1648.68 253.502 1475.89 216.869 1371.04 264.703C1327.74 284.458 1218.21 324.814 1179.38 301.343L1118.87 275.003C1078.12 256.654 980.307 230.966 915.1 275.003C849.893 319.039 789.44 310.687 767.364 301.006C702.836 269.037 596.195 216.04 543.214 254.403C490.233 292.766 433.686 317.216 398.026 307.76C305.151 283.133 318.647 234.974 270.667 246.636C247.743 252.208 199.347 289.693 153.498 297.46C116.819 303.674 101.705 283.67 105.102 275.003" stroke="#361844" stroke-width="1.11155"/>
<path d="M1720 275.735C1648.68 259.411 1475.89 231.597 1371.04 267.915C1327.74 282.914 1218.21 313.555 1179.38 295.735L1118.87 275.735C1078.12 261.804 980.307 242.3 915.1 275.735C849.893 309.17 789.44 302.829 767.364 295.478C702.836 271.205 596.195 230.967 543.214 260.094C490.233 289.222 433.686 307.786 398.026 300.606C305.151 281.908 318.647 245.343 270.667 254.197C247.743 258.428 199.347 286.889 153.498 292.786C116.819 297.504 101.705 282.316 105.102 275.735" stroke="#361844" stroke-width="1.11155"/>
<path d="M1725.09 275.823C1653.32 264.277 1479.43 244.604 1373.93 270.292C1330.36 280.901 1220.14 302.574 1181.06 289.969L1120.17 275.823C1079.16 265.969 980.737 252.174 915.12 275.823C849.502 299.473 788.67 294.987 766.455 289.788C701.521 272.619 594.209 244.158 540.895 264.76C487.581 285.363 430.678 298.493 394.794 293.415C301.335 280.19 314.915 254.326 266.634 260.589C243.566 263.582 194.865 283.712 148.728 287.884C111.818 291.221 96.61 280.478 100.028 275.823" stroke="#361844" stroke-width="1.11155"/>
</g>
</g>
<defs>
<filter id="filter0_f_242_150" x="6.20952" y="74.0459" width="1735.97" height="384.042" filterUnits="userSpaceOnUse" color-interpolation-filters="sRGB">
<feFlood flood-opacity="0" result="BackgroundImageFix"/>
<feBlend mode="normal" in="SourceGraphic" in2="BackgroundImageFix" result="shape"/>
<feGaussianBlur stdDeviation="8.33665" result="effect1_foregroundBlur_242_150"/>
</filter>
<filter id="filter1_f_242_150" x="357.659" y="0.350067" width="1073.2" height="552.22" filterUnits="userSpaceOnUse" color-interpolation-filters="sRGB">
<feFlood flood-opacity="0" result="BackgroundImageFix"/>
<feBlend mode="normal" in="SourceGraphic" in2="BackgroundImageFix" result="shape"/>
<feGaussianBlur stdDeviation="55.5777" result="effect1_foregroundBlur_242_150"/>
</filter>
<filter id="filter2_f_242_150" x="349.765" y="158.524" width="1213.55" height="218.753" filterUnits="userSpaceOnUse" color-interpolation-filters="sRGB">
<feFlood flood-opacity="0" result="BackgroundImageFix"/>
<feBlend mode="normal" in="SourceGraphic" in2="BackgroundImageFix" result="shape"/>
<feGaussianBlur stdDeviation="1.11155" result="effect1_foregroundBlur_242_150"/>
</filter>
<filter id="filter3_f_242_150" x="265.511" y="91.831" width="1378" height="305.455" filterUnits="userSpaceOnUse" color-interpolation-filters="sRGB">
<feFlood flood-opacity="0" result="BackgroundImageFix"/>
<feBlend mode="normal" in="SourceGraphic" in2="BackgroundImageFix" result="shape"/>
<feGaussianBlur stdDeviation="11.1155" result="effect1_foregroundBlur_242_150"/>
</filter>
<filter id="filter4_f_242_150" x="0.651752" y="68.4882" width="1670.96" height="305.455" filterUnits="userSpaceOnUse" color-interpolation-filters="sRGB">
<feFlood flood-opacity="0" result="BackgroundImageFix"/>
<feBlend mode="normal" in="SourceGraphic" in2="BackgroundImageFix" result="shape"/>
<feGaussianBlur stdDeviation="11.1155" result="effect1_foregroundBlur_242_150"/>
</filter>
<filter id="filter5_f_242_150" x="93.4461" y="138.072" width="1637.62" height="272.108" filterUnits="userSpaceOnUse" color-interpolation-filters="sRGB">
<feFlood flood-opacity="0" result="BackgroundImageFix"/>
<feBlend mode="normal" in="SourceGraphic" in2="BackgroundImageFix" result="shape"/>
<feGaussianBlur stdDeviation="2.77888" result="effect1_foregroundBlur_242_150"/>
</filter>
<linearGradient id="paint0_linear_242_150" x1="890.233" y1="109.949" x2="890.233" y2="424.296" gradientUnits="userSpaceOnUse">
<stop stop-color="#1B0C22"/>
<stop offset="1" stop-color="#B80F74" stop-opacity="0.05"/>
</linearGradient>
<linearGradient id="paint1_linear_242_150" x1="890.19" y1="120.841" x2="890.19" y2="416.514" gradientUnits="userSpaceOnUse">
<stop stop-color="#1B0C22"/>
<stop offset="1" stop-color="#B80F74" stop-opacity="0.05"/>
</linearGradient>
<linearGradient id="paint2_linear_242_150" x1="890.233" y1="134.848" x2="890.233" y2="410.29" gradientUnits="userSpaceOnUse">
<stop stop-color="#1B0C22"/>
<stop offset="1" stop-color="#B80F74" stop-opacity="0.05"/>
</linearGradient>
<linearGradient id="paint3_linear_242_150" x1="890.189" y1="128.623" x2="890.189" y2="405.622" gradientUnits="userSpaceOnUse">
<stop stop-color="#1B0C22"/>
<stop offset="1" stop-color="#B80F74" stop-opacity="0.05"/>
</linearGradient>
<linearGradient id="paint4_linear_242_150" x1="890.189" y1="120.841" x2="890.189" y2="397.84" gradientUnits="userSpaceOnUse">
<stop stop-color="#1B0C22"/>
<stop offset="1" stop-color="#B80F74" stop-opacity="0.05"/>
</linearGradient>
<linearGradient id="paint5_linear_242_150" x1="890.19" y1="144.185" x2="890.19" y2="391.616" gradientUnits="userSpaceOnUse">
<stop stop-color="#1B0C22"/>
<stop offset="1" stop-color="#B80F74" stop-opacity="0.05"/>
</linearGradient>
<linearGradient id="paint6_linear_242_150" x1="890.19" y1="151.965" x2="890.19" y2="377.611" gradientUnits="userSpaceOnUse">
<stop stop-color="#1B0C22"/>
<stop offset="1" stop-color="#B80F74" stop-opacity="0.05"/>
</linearGradient>
<linearGradient id="paint7_linear_242_150" x1="888.126" y1="159.746" x2="888.126" y2="366.717" gradientUnits="userSpaceOnUse">
<stop stop-color="#1B0C22"/>
<stop offset="1" stop-color="#B80F74" stop-opacity="0.05"/>
</linearGradient>
<linearGradient id="paint8_linear_242_150" x1="890.19" y1="170.639" x2="890.19" y2="357.38" gradientUnits="userSpaceOnUse">
<stop stop-color="#1B0C22"/>
<stop offset="1" stop-color="#B80F74" stop-opacity="0.05"/>
</linearGradient>
<linearGradient id="paint9_linear_242_150" x1="890.19" y1="179.977" x2="890.19" y2="352.712" gradientUnits="userSpaceOnUse">
<stop stop-color="#1B0C22"/>
<stop offset="1" stop-color="#B80F74" stop-opacity="0.05"/>
</linearGradient>
<linearGradient id="paint10_linear_242_150" x1="890.19" y1="187.757" x2="890.19" y2="341.819" gradientUnits="userSpaceOnUse">
<stop stop-color="#1B0C22"/>
<stop offset="1" stop-color="#B80F74" stop-opacity="0.05"/>
</linearGradient>
<linearGradient id="paint11_linear_242_150" x1="890.19" y1="197.094" x2="890.19" y2="332.481" gradientUnits="userSpaceOnUse">
<stop stop-color="#1B0C22"/>
<stop offset="1" stop-color="#B80F74" stop-opacity="0.05"/>
</linearGradient>
<linearGradient id="paint12_linear_242_150" x1="890.19" y1="207.988" x2="890.19" y2="324.701" gradientUnits="userSpaceOnUse">
<stop stop-color="#1B0C22"/>
<stop offset="1" stop-color="#B80F74" stop-opacity="0.05"/>
</linearGradient>
<linearGradient id="paint13_linear_242_150" x1="888.126" y1="217.324" x2="888.126" y2="313.807" gradientUnits="userSpaceOnUse">
<stop stop-color="#1B0C22"/>
<stop offset="1" stop-color="#B80F74" stop-opacity="0.05"/>
</linearGradient>
<linearGradient id="paint14_linear_242_150" x1="892.253" y1="225.105" x2="892.253" y2="309.138" gradientUnits="userSpaceOnUse">
<stop stop-color="#1B0C22"/>
<stop offset="1" stop-color="#B80F74" stop-opacity="0.05"/>
</linearGradient>
<linearGradient id="paint15_linear_242_150" x1="892.253" y1="235.999" x2="892.253" y2="299.802" gradientUnits="userSpaceOnUse">
<stop stop-color="#1B0C22"/>
<stop offset="1" stop-color="#B80F74" stop-opacity="0.05"/>
</linearGradient>
<linearGradient id="paint16_linear_242_150" x1="892.253" y1="245.335" x2="892.253" y2="290.465" gradientUnits="userSpaceOnUse">
<stop stop-color="#1B0C22"/>
<stop offset="1" stop-color="#B80F74" stop-opacity="0.05"/>
</linearGradient>
</defs>
</svg>
